<svg width="49" height="50" viewBox="0 0 49 50" fill="none" xmlns="http://www.w3.org/2000/svg">
<g filter="url(#filter0_d_973_4425)">
<rect x="13.5" width="34.3696" height="34.3696" rx="4.23759" transform="rotate(18.8641 13.5 0)" fill="black" fill-opacity="0.01" shape-rendering="crispEdges"/>
<rect x="13.555" y="0.112085" width="34.193" height="34.193" rx="4.14931" transform="rotate(18.8641 13.555 0.112085)" stroke="#C30100" stroke-opacity="0.5" stroke-width="0.176566" shape-rendering="crispEdges"/>
<path d="M31.7005 22.6513H30.0339C29.7977 22.6513 29.6 22.5713 29.4405 22.4113C29.2811 22.2513 29.2011 22.0535 29.2005 21.8179C29.2 21.5824 29.28 21.3846 29.4405 21.2246C29.6011 21.0646 29.7989 20.9846 30.0339 20.9846H31.7005C31.9366 20.9846 32.1347 21.0646 32.2947 21.2246C32.4547 21.3846 32.5344 21.5824 32.5339 21.8179C32.5333 22.0535 32.4533 22.2516 32.2939 22.4121C32.1344 22.5727 31.9366 22.6524 31.7005 22.6513ZM28.0339 25.8179C28.1727 25.6235 28.3533 25.5124 28.5755 25.4846C28.7977 25.4568 29.0061 25.5124 29.2005 25.6513L30.5339 26.6513C30.7283 26.7902 30.8394 26.9707 30.8672 27.1929C30.895 27.4152 30.8394 27.6235 30.7005 27.8179C30.5616 28.0124 30.3811 28.1235 30.1589 28.1513C29.9366 28.1791 29.7283 28.1235 29.5339 27.9846L28.2005 26.9846C28.0061 26.8457 27.895 26.6652 27.8672 26.4429C27.8394 26.2207 27.895 26.0124 28.0339 25.8179ZM30.5339 16.9846L29.2005 17.9846C29.0061 18.1235 28.7977 18.179 28.5755 18.1513C28.3533 18.1235 28.1727 18.0124 28.0339 17.8179C27.895 17.6235 27.8394 17.4152 27.8672 17.1929C27.895 16.9707 28.0061 16.7902 28.2005 16.6513L29.5339 15.6513C29.7283 15.5124 29.9366 15.4568 30.1589 15.4846C30.3811 15.5124 30.5616 15.6235 30.7005 15.8179C30.8394 16.0124 30.895 16.2207 30.8672 16.4429C30.8394 16.6652 30.7283 16.8457 30.5339 16.9846ZM18.3672 24.3179H17.5339C17.0755 24.3179 16.6833 24.1549 16.3572 23.8288C16.0311 23.5027 15.8677 23.1102 15.8672 22.6513V20.9846C15.8672 20.5263 16.0305 20.1341 16.3572 19.8079C16.6839 19.4818 17.0761 19.3185 17.5339 19.3179H20.8672L23.763 17.5679C24.0408 17.4013 24.3222 17.4013 24.6072 17.5679C24.8922 17.7346 25.0344 17.9777 25.0339 18.2971V25.3388C25.0339 25.6582 24.8914 25.9013 24.6064 26.0679C24.3214 26.2346 24.0402 26.2346 23.763 26.0679L20.8672 24.3179H20.0339V26.8179C20.0339 27.0541 19.9539 27.2521 19.7939 27.4121C19.6339 27.5721 19.4361 27.6518 19.2005 27.6513C18.965 27.6507 18.7672 27.5707 18.6072 27.4113C18.4472 27.2518 18.3672 27.0541 18.3672 26.8179V24.3179ZM23.3672 23.8596V19.7763L21.3255 20.9846H17.5339V22.6513H21.3255L23.3672 23.8596ZM25.8672 24.6096V19.0263C26.2422 19.3596 26.5444 19.766 26.7739 20.2454C27.0033 20.7249 27.1177 21.2491 27.1172 21.8179C27.1166 22.3868 27.0019 22.9113 26.773 23.3913C26.5441 23.8713 26.2422 24.2774 25.8672 24.6096Z" fill="white"/>
</g>
<defs>
<filter id="filter0_d_973_4425" x="-1.1407" y="0" width="50.6955" height="50.6988" filterUnits="userSpaceOnUse" color-interpolation-filters="sRGB">
<feFlood flood-opacity="0" result="BackgroundImageFix"/>
<feColorMatrix in="SourceAlpha" type="matrix" values="0 0 0 0 0 0 0 0 0 0 0 0 0 0 0 0 0 0 127 0" result="hardAlpha"/>
<feOffset dy="3.53132"/>
<feGaussianBlur stdDeviation="1.76566"/>
<feComposite in2="hardAlpha" operator="out"/>
<feColorMatrix type="matrix" values="0 0 0 0 0 0 0 0 0 0 0 0 0 0 0 0 0 0 0.25 0"/>
<feBlend mode="normal" in2="BackgroundImageFix" result="effect1_dropShadow_973_4425"/>
<feBlend mode="normal" in="BackgroundImageFix" in2="effect1_dropShadow_973_4425" result="BackgroundImageFix"/>
<feBlend mode="normal" in="SourceGraphic" in2="BackgroundImageFix" result="shape"/>
</filter>
</defs>
</svg>
