<svg width="38" height="40" viewBox="0 0 38 40" fill="none" xmlns="http://www.w3.org/2000/svg">
<g filter="url(#filter0_d_1_1540)">
<g clip-path="url(#clip0_1_1540)">
<rect x="10.9844" width="25.6" height="25.6" rx="4.8" transform="rotate(18.8641 10.9844 0)" fill="black" fill-opacity="0.01" shape-rendering="crispEdges"/>
<g clip-path="url(#clip1_1_1540)">
<path d="M17.7067 11.6667L24.8833 13.3438L22.5122 20.2833C22.3407 20.7852 21.9769 21.1985 21.5007 21.4321C21.0245 21.6658 20.475 21.7007 19.973 21.5292C19.4711 21.3577 19.0578 20.9938 18.8242 20.5176C18.5905 20.0414 18.5556 19.4919 18.7271 18.99C18.8986 18.488 19.2625 18.0748 19.7387 17.8411C20.2149 17.6075 20.7644 17.5725 21.2663 17.744C21.7521 17.91 22.1312 18.2438 22.3642 18.6546L23.3816 15.6769L17.4883 14.3678L15.9881 18.7586C15.8166 19.2606 15.4527 19.6738 14.9765 19.9075C14.5003 20.1411 13.9508 20.1761 13.4489 20.0045C12.9469 19.833 12.5337 19.4692 12.3 18.993C12.0664 18.5168 12.0314 17.9673 12.203 17.4653C12.3745 16.9634 12.7383 16.5501 13.2145 16.3165C13.6907 16.0828 14.2402 16.0479 14.7422 16.2194C15.2279 16.3854 15.607 16.7192 15.8401 17.13L17.7067 11.6667ZM18.1436 12.45L17.706 13.7307L23.5972 15.0461L24.0175 13.8159L18.1436 12.45ZM15.3572 18.5431C15.4716 18.2084 15.4483 17.8421 15.2925 17.5246C15.1368 17.2072 14.8613 16.9646 14.5266 16.8503C14.192 16.7359 13.8257 16.7592 13.5082 16.915C13.1907 17.0707 12.9481 17.3462 12.8338 17.6809C12.7195 18.0155 12.7428 18.3818 12.8985 18.6993C13.0543 19.0168 13.3298 19.2594 13.6644 19.3737C13.9991 19.488 14.3654 19.4647 14.6829 19.309C15.0003 19.1532 15.2429 18.8777 15.3572 18.5431ZM21.8814 20.0677C21.9957 19.7331 21.9724 19.3667 21.8167 19.0493C21.6609 18.7318 21.3854 18.4892 21.0508 18.3749C20.7161 18.2606 20.3498 18.2838 20.0323 18.4396C19.7149 18.5954 19.4723 18.8709 19.3579 19.2055C19.2436 19.5401 19.2669 19.9065 19.4227 20.2239C19.5784 20.5414 19.8539 20.784 20.1886 20.8983C20.5232 21.0127 20.8895 20.9894 21.207 20.8336C21.5245 20.6778 21.767 20.4023 21.8814 20.0677Z" fill="white"/>
</g>
</g>
<rect x="11.0467" y="0.126961" width="25.4" height="25.4" rx="4.7" transform="rotate(18.8641 11.0467 0.126961)" stroke="#C30100" stroke-width="0.2" shape-rendering="crispEdges"/>
</g>
<defs>
<filter id="filter0_d_1_1540" x="-1.29272" y="0" width="40.502" height="40.502" filterUnits="userSpaceOnUse" color-interpolation-filters="sRGB">
<feFlood flood-opacity="0" result="BackgroundImageFix"/>
<feColorMatrix in="SourceAlpha" type="matrix" values="0 0 0 0 0 0 0 0 0 0 0 0 0 0 0 0 0 0 127 0" result="hardAlpha"/>
<feOffset dy="4"/>
<feGaussianBlur stdDeviation="2"/>
<feComposite in2="hardAlpha" operator="out"/>
<feColorMatrix type="matrix" values="0 0 0 0 0 0 0 0 0 0 0 0 0 0 0 0 0 0 0.25 0"/>
<feBlend mode="normal" in2="BackgroundImageFix" result="effect1_dropShadow_1_1540"/>
<feBlend mode="normal" in="BackgroundImageFix" in2="effect1_dropShadow_1_1540" result="BackgroundImageFix"/>
<feBlend mode="normal" in="SourceGraphic" in2="BackgroundImageFix" result="shape"/>
</filter>
<clipPath id="clip0_1_1540">
<rect x="10.9844" width="25.6" height="25.6" rx="4.8" transform="rotate(18.8641 10.9844 0)" fill="white"/>
</clipPath>
<clipPath id="clip1_1_1540">
<rect width="16" height="16" fill="white" transform="translate(13.9746 6.09424) rotate(18.8641)"/>
</clipPath>
</defs>
</svg>
