<svg width="30" height="30" viewBox="0 0 30 30" fill="none" xmlns="http://www.w3.org/2000/svg">
<path d="M15 28.4375C22.4213 28.4375 28.4375 22.4213 28.4375 15C28.4375 7.57867 22.4213 1.5625 15 1.5625C7.57867 1.5625 1.5625 7.57867 1.5625 15C1.5625 22.4213 7.57867 28.4375 15 28.4375Z" stroke="white" stroke-width="0.5" stroke-linecap="round" stroke-linejoin="round"/>
<path d="M20.1758 18.5624C20.8714 18.2812 22.1083 17.9074 22.4808 18.3587C22.8833 18.8468 22.3745 19.9068 21.9058 20.7299" stroke="white" stroke-width="0.5" stroke-linecap="round" stroke-linejoin="round"/>
<path d="M7.37375 18.8894C8.47313 19.7625 11.72 21.0988 15.1787 21.0988C17.4481 21.1524 19.675 20.4777 21.5331 19.1738M12.7525 12.5781V14.6406C12.7525 14.9721 12.8842 15.2901 13.1186 15.5245C13.353 15.7589 13.671 15.8906 14.0025 15.8906C14.334 15.8906 14.652 15.7589 14.8864 15.5245C15.1208 15.2901 15.2525 14.9721 15.2525 14.6406M15.2525 14.6406V12.5781M15.2525 14.6406V15.8906M6.5 13.8906C6.5 13.5591 6.6317 13.2412 6.86612 13.0067C7.10054 12.7723 7.41848 12.6406 7.75 12.6406C8.08152 12.6406 8.39946 12.7723 8.63388 13.0067C8.8683 13.2412 9 13.5591 9 13.8906M9 13.8906V15.8906M9 13.8906C9 13.5591 9.1317 13.2412 9.36612 13.0067C9.60054 12.7723 9.91848 12.6406 10.25 12.6406C10.5815 12.6406 10.8995 12.7723 11.1339 13.0067C11.3683 13.2412 11.5 13.5591 11.5 13.8906V15.8906M6.5 12.6406V15.8906" stroke="white" stroke-width="0.5" stroke-linecap="round" stroke-linejoin="round"/>
<path d="M19.9258 11.4844C20.1674 11.4844 20.3633 11.2885 20.3633 11.0469C20.3633 10.8052 20.1674 10.6094 19.9258 10.6094C19.6842 10.6094 19.4883 10.8052 19.4883 11.0469C19.4883 11.2885 19.6842 11.4844 19.9258 11.4844Z" fill="white"/>
<path d="M19.9234 12.5781V15.8906M16.5859 15.6081C16.8789 15.8326 17.2484 15.933 17.6147 15.8875H17.8947C18.114 15.8871 18.3243 15.7997 18.4792 15.6444C18.6342 15.4891 18.7211 15.2787 18.7209 15.0593C18.7211 14.84 18.6342 14.6295 18.4792 14.4742C18.3243 14.319 18.114 14.2315 17.8947 14.2312H17.3341C17.1147 14.2309 16.9045 14.1435 16.7495 13.9882C16.5946 13.8329 16.5076 13.6224 16.5078 13.4031C16.5076 13.1837 16.5946 12.9733 16.7495 12.818C16.9045 12.6627 17.1147 12.5753 17.3341 12.575H17.6147C17.9807 12.53 18.3496 12.6305 18.6422 12.855M23.4984 15.2612C23.389 15.4525 23.231 15.6115 23.0403 15.722C22.8497 15.8325 22.6332 15.8907 22.4128 15.8906C22.0813 15.8906 21.7633 15.7589 21.5289 15.5245C21.2945 15.29 21.1628 14.9721 21.1628 14.6406V13.8281C21.1628 13.4966 21.2945 13.1786 21.5289 12.9442C21.7633 12.7098 22.0813 12.5781 22.4128 12.5781C22.6328 12.578 22.8489 12.636 23.0393 12.7462C23.2297 12.8564 23.3876 13.0148 23.4972 13.2056" stroke="white" stroke-width="0.5" stroke-linecap="round" stroke-linejoin="round"/>
</svg>
