<svg width="398" height="231" viewBox="0 0 398 231" fill="none" xmlns="http://www.w3.org/2000/svg">
<g clip-path="url(#clip0_5_1267)">
<g filter="url(#filter0_d_5_1267)">
<rect x="89.1592" y="7.30371" width="233.242" height="185.716" rx="15.7252" fill="#1D0807" fill-opacity="0.51" shape-rendering="crispEdges"/>
</g>
<g clip-path="url(#clip1_5_1267)">
<rect x="80.4707" y="39.0557" width="250.621" height="208.359" rx="15.7252" fill="#1D0606" fill-opacity="0.66"/>
<path d="M101.09 76.8496L107.321 63.09H109.267L115.518 76.8496H113.454L107.891 64.1908H108.677L103.114 76.8496H101.09ZM103.743 73.4097L104.274 71.8372H112.019L112.589 73.4097H103.743ZM122.858 66.3334C123.71 66.3334 124.457 66.4972 125.099 66.8248C125.754 67.1524 126.265 67.6503 126.632 68.3187C126.999 68.987 127.182 69.8322 127.182 70.8544V76.8496H125.295V71.0706C125.295 70.0615 125.046 69.3015 124.548 68.7904C124.063 68.2794 123.375 68.0238 122.484 68.0238C121.816 68.0238 121.233 68.1549 120.735 68.417C120.237 68.679 119.85 69.0656 119.575 69.5767C119.313 70.0878 119.182 70.7233 119.182 71.4834V76.8496H117.295V66.4316H119.103V69.2425L118.809 68.4956C119.149 67.8141 119.673 67.2834 120.381 66.9034C121.089 66.5234 121.914 66.3334 122.858 66.3334ZM137.142 76.8496V74.6481L137.043 74.2353V70.4809C137.043 69.6815 136.807 69.0656 136.336 68.6332C135.877 68.1876 135.182 67.9648 134.252 67.9648C133.636 67.9648 133.033 68.0697 132.444 68.2794C131.854 68.4759 131.356 68.7446 130.95 69.0853L130.163 67.67C130.701 67.2376 131.343 66.9099 132.09 66.6872C132.85 66.4513 133.643 66.3334 134.468 66.3334C135.897 66.3334 136.997 66.6806 137.771 67.3752C138.544 68.0697 138.93 69.1311 138.93 70.5595V76.8496H137.142ZM133.721 76.9675C132.948 76.9675 132.267 76.8365 131.677 76.5744C131.1 76.3123 130.655 75.952 130.34 75.4933C130.026 75.0216 129.869 74.4908 129.869 73.9011C129.869 73.3376 130 72.8266 130.262 72.3679C130.537 71.9093 130.976 71.5423 131.579 71.2671C132.195 70.992 133.02 70.8544 134.055 70.8544H137.358V72.2107H134.134C133.191 72.2107 132.555 72.3679 132.227 72.6824C131.9 72.9969 131.736 73.377 131.736 73.8225C131.736 74.3336 131.939 74.7464 132.345 75.0609C132.752 75.3623 133.315 75.513 134.036 75.513C134.743 75.513 135.359 75.3557 135.883 75.0412C136.421 74.7267 136.807 74.268 137.043 73.6652L137.417 74.9626C137.168 75.5785 136.729 76.0699 136.1 76.4368C135.471 76.7906 134.678 76.9675 133.721 76.9675ZM142.422 76.8496V62.2645H144.309V76.8496H142.422ZM148.364 80.7809C147.867 80.7809 147.382 80.6957 146.91 80.5254C146.438 80.3681 146.032 80.1323 145.691 79.8177L146.497 78.4025C146.759 78.6515 147.047 78.8415 147.362 78.9725C147.677 79.1036 148.011 79.1691 148.364 79.1691C148.823 79.1691 149.203 79.0511 149.505 78.8153C149.806 78.5794 150.088 78.16 150.35 77.5572L150.998 76.1223L151.195 75.8864L155.284 66.4316H157.131L152.08 77.8914C151.778 78.6253 151.437 79.2018 151.057 79.6212C150.691 80.0405 150.284 80.3354 149.839 80.5057C149.393 80.6892 148.902 80.7809 148.364 80.7809ZM150.841 77.1838L146.084 66.4316H148.05L152.099 75.7095L150.841 77.1838ZM162.758 76.9675C161.709 76.9675 160.897 76.6858 160.32 76.1223C159.744 75.5588 159.456 74.7529 159.456 73.7046V64.1515H161.343V73.6259C161.343 74.1894 161.48 74.6219 161.755 74.9233C162.044 75.2247 162.45 75.3754 162.974 75.3754C163.564 75.3754 164.055 75.2116 164.448 74.884L165.038 76.2403C164.75 76.4892 164.402 76.6727 163.996 76.7906C163.603 76.9086 163.19 76.9675 162.758 76.9675ZM157.686 67.9845V66.4316H164.33V67.9845H157.686ZM167.319 76.8496V66.4316H169.206V76.8496H167.319ZM168.263 64.4267C167.896 64.4267 167.588 64.3087 167.339 64.0729C167.103 63.837 166.985 63.5487 166.985 63.208C166.985 62.8541 167.103 62.5593 167.339 62.3234C167.588 62.0875 167.896 61.9696 168.263 61.9696C168.63 61.9696 168.931 62.0875 169.167 62.3234C169.416 62.5462 169.541 62.8279 169.541 63.1687C169.541 63.5225 169.423 63.8239 169.187 64.0729C168.951 64.3087 168.643 64.4267 168.263 64.4267ZM177.35 76.9675C176.289 76.9675 175.339 76.7382 174.5 76.2796C173.674 75.8209 173.026 75.1919 172.554 74.3925C172.082 73.5932 171.846 72.6759 171.846 71.6406C171.846 70.6054 172.082 69.6881 172.554 68.8887C173.026 68.0893 173.674 67.4669 174.5 67.0213C175.339 66.5627 176.289 66.3334 177.35 66.3334C178.294 66.3334 179.132 66.5234 179.866 66.9034C180.613 67.2703 181.19 67.8207 181.596 68.5545L180.161 69.4784C179.82 68.9673 179.401 68.5939 178.903 68.358C178.418 68.109 177.894 67.9845 177.33 67.9845C176.649 67.9845 176.04 68.1352 175.502 68.4366C174.965 68.738 174.539 69.1639 174.225 69.7143C173.91 70.2516 173.753 70.8937 173.753 71.6406C173.753 72.3876 173.91 73.0362 174.225 73.5866C174.539 74.137 174.965 74.5629 175.502 74.8643C176.04 75.1657 176.649 75.3164 177.33 75.3164C177.894 75.3164 178.418 75.1985 178.903 74.9626C179.401 74.7136 179.82 74.3336 180.161 73.8225L181.596 74.7267C181.19 75.4474 180.613 76.0044 179.866 76.3975C179.132 76.7775 178.294 76.9675 177.35 76.9675ZM187.027 76.9675C186.162 76.9675 185.336 76.8496 184.55 76.6137C183.777 76.3779 183.168 76.0896 182.722 75.7488L183.508 74.2549C183.954 74.5563 184.504 74.8119 185.159 75.0216C185.815 75.2312 186.483 75.3361 187.164 75.3361C188.042 75.3361 188.671 75.2116 189.051 74.9626C189.445 74.7136 189.641 74.3663 189.641 73.9208C189.641 73.5932 189.523 73.3376 189.287 73.1542C189.051 72.9707 188.737 72.8331 188.344 72.7414C187.964 72.6497 187.538 72.571 187.066 72.5055C186.594 72.4269 186.123 72.3352 185.651 72.2303C185.179 72.1124 184.747 71.9551 184.353 71.7586C183.96 71.5489 183.646 71.2671 183.41 70.9133C183.174 70.5464 183.056 70.0615 183.056 69.4587C183.056 68.8297 183.233 68.2794 183.587 67.8076C183.941 67.3358 184.439 66.9755 185.081 66.7265C185.736 66.4644 186.509 66.3334 187.4 66.3334C188.082 66.3334 188.77 66.4185 189.464 66.5889C190.172 66.7461 190.748 66.9755 191.194 67.2769L190.388 68.7708C189.916 68.4563 189.425 68.24 188.914 68.1221C188.403 68.0042 187.892 67.9452 187.381 67.9452C186.555 67.9452 185.939 68.0828 185.533 68.358C185.127 68.6201 184.924 68.9608 184.924 69.3801C184.924 69.7339 185.041 70.0091 185.277 70.2057C185.526 70.3892 185.841 70.5333 186.221 70.6381C186.614 70.743 187.046 70.8347 187.518 70.9133C187.99 70.9789 188.462 71.0706 188.933 71.1885C189.405 71.2934 189.831 71.4441 190.211 71.6406C190.604 71.8372 190.919 72.1124 191.155 72.4662C191.404 72.82 191.528 73.2918 191.528 73.8815C191.528 74.5105 191.345 75.0543 190.978 75.513C190.611 75.9716 190.093 76.332 189.425 76.5941C188.757 76.8431 187.957 76.9675 187.027 76.9675Z" fill="white"/>
<line x1="106.068" y1="102.61" x2="106.035" y2="226.446" stroke="#737373" stroke-width="1.98416"/>
<rect x="101.109" y="152.213" width="7.93666" height="35.715" rx="3.96833" fill="#C30100"/>
<line x1="189.98" y1="102.606" x2="190.359" y2="226.443" stroke="#737373" stroke-width="1.98416"/>
<rect x="185.02" y="118.482" width="7.93666" height="69.4458" rx="3.96833" fill="#C30100"/>
<line x1="290.672" y1="102.612" x2="290.396" y2="226.448" stroke="#737373" stroke-width="1.98416"/>
<rect x="285.711" y="118.482" width="7.93666" height="33.7308" rx="3.96833" fill="#C30100"/>
<rect x="117.892" y="164.118" width="7.93666" height="29.7625" rx="3.96833" fill="#C30100"/>
<rect x="168.237" y="156.182" width="7.93666" height="29.7625" rx="3.96833" fill="#C30100"/>
<rect x="201.801" y="146.261" width="7.93666" height="39.6833" rx="3.96833" fill="#C30100"/>
<rect x="268.929" y="126.419" width="7.93666" height="39.6833" rx="3.96833" fill="#C30100"/>
<rect x="302.493" y="134.355" width="7.93666" height="33.7308" rx="3.96833" fill="#C30100"/>
<rect x="218.583" y="156.182" width="7.93666" height="39.6833" rx="3.96833" fill="#C30100"/>
<rect x="235.365" y="144.276" width="7.93666" height="39.6833" rx="3.96833" fill="#C30100"/>
<rect x="252.147" y="110.546" width="7.93666" height="93.2557" rx="3.96833" fill="#C30100"/>
<rect x="134.673" y="146.261" width="7.93666" height="43.6516" rx="3.96833" fill="#C30100"/>
<rect x="151.455" y="136.34" width="7.93666" height="57.5408" rx="3.96833" fill="#C30100"/>
</g>
<rect x="8.05129" y="118.492" width="176.839" height="40.4146" rx="20.2073" fill="black" fill-opacity="0.01"/>
<rect x="8.05129" y="118.492" width="176.839" height="40.4146" rx="20.2073" stroke="white" stroke-width="0.102575"/>
<path fill-rule="evenodd" clip-rule="evenodd" d="M41.8501 134.187C41.8501 133.899 41.8501 133.611 41.8488 133.323C41.8475 133.081 41.8448 132.838 41.8383 132.596C41.8245 132.068 41.7937 131.535 41.702 131.013C41.6089 130.483 41.4562 129.989 41.2164 129.507C40.9804 129.034 40.6724 128.601 40.3048 128.225C39.9371 127.85 39.5131 127.535 39.0498 127.294C38.5786 127.049 38.0956 126.894 37.5773 126.798C37.0661 126.704 36.5444 126.673 36.0274 126.659C35.7901 126.652 35.5529 126.649 35.3157 126.648C35.0339 126.646 34.7521 126.646 34.4703 126.646H25.6376C25.3558 126.646 25.074 126.646 24.7922 126.648C24.555 126.649 24.3177 126.652 24.0805 126.659C23.5635 126.673 23.0418 126.704 22.5306 126.798C22.0116 126.894 21.5293 127.05 21.0581 127.295C20.5948 127.536 20.1708 127.85 19.8031 128.226C19.4355 128.602 19.1274 129.034 18.8915 129.508C18.6517 129.99 18.499 130.483 18.4059 131.014C18.3142 131.536 18.2834 132.069 18.2696 132.597C18.2631 132.839 18.2604 133.081 18.2591 133.324C18.2578 133.611 18.2578 133.899 18.2578 134.187V143.211C18.2578 143.499 18.2578 143.787 18.2591 144.075C18.2604 144.317 18.2631 144.56 18.2696 144.802C18.2834 145.33 18.3142 145.863 18.4059 146.385C18.499 146.915 18.6517 147.409 18.8915 147.891C19.1274 148.364 19.4355 148.797 19.8031 149.173C20.1708 149.548 20.5948 149.863 21.0581 150.104C21.5293 150.349 22.0123 150.504 22.5306 150.6C23.0418 150.694 23.5635 150.725 24.0805 150.739C24.3177 150.746 24.555 150.749 24.7922 150.75C25.074 150.752 25.3558 150.752 25.6376 150.752H34.4696C34.7514 150.752 35.0332 150.752 35.315 150.75C35.5523 150.749 35.7895 150.746 36.0267 150.739C36.5438 150.725 37.0654 150.694 37.5766 150.6C38.0956 150.505 38.578 150.349 39.0492 150.104C39.5125 149.863 39.9365 149.548 40.3041 149.173C40.6718 148.797 40.9798 148.364 41.2157 147.891C41.4556 147.409 41.6083 146.915 41.7013 146.385C41.7931 145.863 41.8239 145.33 41.8376 144.802C41.8442 144.56 41.8468 144.317 41.8481 144.075C41.8501 143.787 41.8494 143.499 41.8494 143.211V134.187H41.8501Z" fill="url(#paint0_linear_5_1267)"/>
<path fill-rule="evenodd" clip-rule="evenodd" d="M35.7654 130.136C35.7084 130.141 35.2018 130.233 35.1409 130.246L28.1288 131.691L28.1261 131.692C27.9433 131.731 27.7998 131.798 27.689 131.893C27.5553 132.007 27.4813 132.169 27.4531 132.358C27.4472 132.398 27.4374 132.48 27.4374 132.601C27.4374 132.601 27.4374 139.921 27.4374 141.568C27.4374 141.777 27.421 141.981 27.2821 142.154C27.1431 142.328 26.9714 142.38 26.7702 142.422C26.6175 142.453 26.4648 142.485 26.3122 142.516C25.7328 142.635 25.356 142.716 25.0146 142.852C24.6882 142.981 24.4438 143.145 24.2491 143.354C23.8631 143.768 23.7065 144.328 23.7603 144.853C23.8061 145.301 24.0034 145.729 24.3422 146.046C24.5709 146.26 24.8566 146.423 25.1935 146.492C25.5428 146.564 25.915 146.539 26.4589 146.427C26.7486 146.367 27.0199 146.274 27.2781 146.118C27.5337 145.964 27.7526 145.758 27.9236 145.508C28.0953 145.257 28.2061 144.978 28.267 144.681C28.3299 144.375 28.345 144.098 28.345 143.793V136.016C28.345 135.599 28.4604 135.489 28.7893 135.408C28.7893 135.408 34.6179 134.206 34.8899 134.152C35.2693 134.078 35.4483 134.188 35.4483 134.595V139.904C35.4483 140.114 35.4463 140.327 35.306 140.501C35.1671 140.675 34.9954 140.727 34.7942 140.768C34.6415 140.8 34.4888 140.831 34.3361 140.863C33.7568 140.982 33.38 141.063 33.0386 141.198C32.7122 141.328 32.4678 141.492 32.2731 141.701C31.8871 142.114 31.7167 142.675 31.7705 143.2C31.8164 143.648 32.0274 144.076 32.3662 144.393C32.5949 144.607 32.8806 144.765 33.2175 144.835C33.5668 144.907 33.939 144.881 34.4829 144.769C34.7726 144.71 35.0439 144.621 35.3021 144.465C35.5577 144.311 35.7766 144.105 35.9476 143.855C36.1193 143.603 36.2301 143.324 36.291 143.028C36.3539 142.722 36.3566 142.445 36.3566 142.14V130.769C36.3579 130.357 36.1449 130.102 35.7654 130.136Z" fill="white"/>
<path d="M50.6774 141.699V141.141L53.0161 138.885C53.224 138.688 53.3772 138.515 53.4757 138.368C53.5796 138.214 53.648 138.075 53.6808 137.949C53.7191 137.818 53.7383 137.692 53.7383 137.572C53.7383 137.276 53.6343 137.044 53.4264 136.874C53.2186 136.704 52.9149 136.62 52.5156 136.62C52.2092 136.62 51.9329 136.672 51.6868 136.776C51.4406 136.874 51.2272 137.03 51.0467 137.243L50.4887 136.759C50.7075 136.48 51.0002 136.267 51.3667 136.119C51.7387 135.966 52.1463 135.889 52.5894 135.889C52.9888 135.889 53.3362 135.955 53.6316 136.086C53.927 136.212 54.154 136.395 54.3127 136.636C54.4768 136.877 54.5589 137.161 54.5589 137.49C54.5589 137.676 54.5343 137.859 54.485 138.039C54.4358 138.22 54.3428 138.411 54.206 138.614C54.0692 138.816 53.8723 139.043 53.6152 139.295L51.5309 141.305L51.3339 140.985H54.805V141.699H50.6774ZM56.4646 141.699L58.9018 136.3L59.1152 136.669H55.7015L56.1118 136.267V137.695H55.324V135.955H59.6568V136.513L57.3345 141.699H56.4646ZM60.493 141.748C60.3398 141.748 60.2085 141.696 60.0991 141.593C59.9897 141.483 59.935 141.346 59.935 141.182C59.935 141.018 59.9897 140.884 60.0991 140.78C60.2085 140.676 60.3398 140.624 60.493 140.624C60.6407 140.624 60.7665 140.676 60.8704 140.78C60.9799 140.884 61.0346 141.018 61.0346 141.182C61.0346 141.346 60.9799 141.483 60.8704 141.593C60.7665 141.696 60.6407 141.748 60.493 141.748ZM64.1309 141.765C63.6659 141.765 63.2638 141.696 62.9246 141.56C62.5855 141.423 62.3229 141.229 62.1369 140.977C61.9509 140.72 61.8579 140.419 61.8579 140.074C61.8579 139.735 61.9454 139.448 62.1204 139.213C62.301 138.972 62.5608 138.792 62.9 138.671C63.2392 138.545 63.6495 138.482 64.1309 138.482C64.6123 138.482 65.0226 138.545 65.3618 138.671C65.7065 138.792 65.9691 138.972 66.1496 139.213C66.3301 139.454 66.4204 139.741 66.4204 140.074C66.4204 140.419 66.3274 140.72 66.1414 140.977C65.9554 141.229 65.6901 141.423 65.3454 141.56C65.0008 141.696 64.5959 141.765 64.1309 141.765ZM64.1309 141.1C64.5905 141.1 64.9488 141.007 65.2059 140.821C65.4685 140.63 65.5998 140.373 65.5998 140.05C65.5998 139.733 65.4685 139.484 65.2059 139.303C64.9488 139.117 64.5905 139.024 64.1309 139.024C63.6769 139.024 63.3213 139.117 63.0641 139.303C62.807 139.484 62.6785 139.733 62.6785 140.05C62.6785 140.373 62.807 140.63 63.0641 140.821C63.3213 141.007 63.6769 141.1 64.1309 141.1ZM64.1309 138.926C63.6933 138.926 63.3213 138.868 63.0149 138.753C62.7085 138.633 62.4733 138.463 62.3092 138.244C62.1451 138.02 62.063 137.755 62.063 137.449C62.063 137.126 62.1478 136.849 62.3174 136.62C62.4925 136.384 62.7359 136.204 63.0477 136.078C63.3596 135.952 63.7206 135.889 64.1309 135.889C64.5467 135.889 64.9105 135.952 65.2223 136.078C65.5341 136.204 65.7776 136.384 65.9527 136.62C66.1277 136.849 66.2152 137.126 66.2152 137.449C66.2152 137.755 66.1332 138.02 65.9691 138.244C65.8049 138.463 65.567 138.633 65.2551 138.753C64.9433 138.868 64.5686 138.926 64.1309 138.926ZM64.1309 138.4C64.5303 138.4 64.8421 138.318 65.0664 138.154C65.2962 137.99 65.4111 137.766 65.4111 137.481C65.4111 137.191 65.2934 136.964 65.0582 136.8C64.823 136.636 64.5139 136.554 64.1309 136.554C63.748 136.554 63.4416 136.636 63.2118 136.8C62.9875 136.964 62.8754 137.191 62.8754 137.481C62.8754 137.766 62.9848 137.99 63.2036 138.154C63.4279 138.318 63.737 138.4 64.1309 138.4ZM71.5172 141.765C71.0796 141.765 70.6611 141.699 70.2617 141.568C69.8623 141.431 69.5478 141.256 69.318 141.043L69.6216 140.403C69.8405 140.594 70.1195 140.753 70.4586 140.879C70.7978 141.004 71.1507 141.067 71.5172 141.067C71.8509 141.067 72.1217 141.029 72.3296 140.952C72.5375 140.876 72.6907 140.772 72.7892 140.641C72.8876 140.504 72.9369 140.351 72.9369 140.181C72.9369 139.984 72.8712 139.826 72.7399 139.705C72.6141 139.585 72.4472 139.489 72.2393 139.418C72.0369 139.341 71.8126 139.276 71.5665 139.221C71.3203 139.166 71.0714 139.103 70.8197 139.032C70.5735 138.956 70.3465 138.86 70.1386 138.745C69.9362 138.63 69.7721 138.477 69.6462 138.286C69.5204 138.089 69.4575 137.837 69.4575 137.531C69.4575 137.235 69.5341 136.964 69.6873 136.718C69.8459 136.467 70.0866 136.267 70.4094 136.119C70.7376 135.966 71.1534 135.889 71.6567 135.889C71.9904 135.889 72.3214 135.933 72.6496 136.021C72.9779 136.108 73.2624 136.234 73.5031 136.398L73.2323 137.055C72.9861 136.89 72.7262 136.773 72.4527 136.702C72.1792 136.625 71.9138 136.587 71.6567 136.587C71.334 136.587 71.0686 136.628 70.8607 136.71C70.6529 136.792 70.4997 136.901 70.4012 137.038C70.3082 137.175 70.2617 137.328 70.2617 137.498C70.2617 137.7 70.3246 137.862 70.4504 137.982C70.5817 138.102 70.7486 138.198 70.951 138.269C71.1589 138.34 71.3859 138.406 71.6321 138.466C71.8783 138.521 72.1245 138.584 72.3706 138.655C72.6223 138.726 72.8493 138.819 73.0517 138.934C73.2596 139.049 73.4265 139.202 73.5523 139.393C73.6781 139.585 73.741 139.831 73.741 140.132C73.741 140.422 73.6617 140.693 73.5031 140.944C73.3444 141.19 73.0982 141.39 72.7645 141.543C72.4363 141.691 72.0205 141.765 71.5172 141.765ZM76.3185 141.748C75.8808 141.748 75.5417 141.631 75.301 141.396C75.0602 141.16 74.9399 140.824 74.9399 140.386V136.398H75.7277V140.353C75.7277 140.589 75.7851 140.769 75.9 140.895C76.0204 141.021 76.1899 141.084 76.4088 141.084C76.6549 141.084 76.8601 141.015 77.0242 140.879L77.2704 141.445C77.15 141.549 77.0051 141.625 76.8355 141.675C76.6714 141.724 76.499 141.748 76.3185 141.748ZM74.2014 137.998V137.35H76.975V137.998H74.2014ZM78.2228 141.699V137.35H78.9778V138.532L78.9039 138.236C79.0243 137.935 79.2267 137.706 79.5112 137.547C79.7956 137.388 80.1457 137.309 80.5615 137.309V138.072C80.5287 138.067 80.4959 138.064 80.463 138.064C80.4357 138.064 80.4083 138.064 80.381 138.064C79.9597 138.064 79.626 138.19 79.3799 138.441C79.1337 138.693 79.0106 139.057 79.0106 139.533V141.699H78.2228ZM83.429 141.748C82.964 141.748 82.5537 141.653 82.1981 141.461C81.848 141.27 81.5744 141.007 81.3775 140.673C81.186 140.34 81.0903 139.957 81.0903 139.525C81.0903 139.092 81.1833 138.709 81.3693 138.376C81.5608 138.042 81.8206 137.782 82.1489 137.596C82.4826 137.405 82.8573 137.309 83.2731 137.309C83.6943 137.309 84.0663 137.402 84.3891 137.588C84.7119 137.774 84.9635 138.037 85.1441 138.376C85.3301 138.709 85.4231 139.101 85.4231 139.549C85.4231 139.582 85.4203 139.62 85.4149 139.664C85.4149 139.708 85.4121 139.749 85.4067 139.787H81.7057V139.221H84.9964L84.6763 139.418C84.6818 139.139 84.6243 138.89 84.504 138.671C84.3836 138.452 84.2168 138.283 84.0034 138.162C83.7955 138.037 83.5521 137.974 83.2731 137.974C82.9996 137.974 82.7561 138.037 82.5428 138.162C82.3294 138.283 82.1625 138.455 82.0422 138.679C81.9218 138.898 81.8617 139.15 81.8617 139.434V139.566C81.8617 139.856 81.9273 140.115 82.0586 140.345C82.1954 140.57 82.3841 140.745 82.6248 140.87C82.8655 140.996 83.1418 141.059 83.4536 141.059C83.7107 141.059 83.9432 141.015 84.1511 140.928C84.3645 140.84 84.5505 140.709 84.7091 140.534L85.1441 141.043C84.9471 141.273 84.7009 141.448 84.4055 141.568C84.1156 141.688 83.7901 141.748 83.429 141.748ZM89.0965 141.699V140.78L89.0555 140.608V139.04C89.0555 138.707 88.957 138.45 88.7601 138.269C88.5686 138.083 88.2787 137.99 87.8903 137.99C87.6331 137.99 87.3815 138.034 87.1353 138.121C86.8891 138.203 86.6812 138.316 86.5116 138.458L86.1834 137.867C86.4077 137.686 86.6758 137.55 86.9876 137.457C87.3049 137.358 87.6359 137.309 87.9805 137.309C88.5768 137.309 89.0364 137.454 89.3591 137.744C89.6819 138.034 89.8433 138.477 89.8433 139.073V141.699H89.0965ZM87.6687 141.748C87.3459 141.748 87.0614 141.694 86.8153 141.584C86.5746 141.475 86.3886 141.324 86.2573 141.133C86.126 140.936 86.0603 140.714 86.0603 140.468C86.0603 140.233 86.115 140.02 86.2244 139.828C86.3393 139.637 86.5226 139.484 86.7742 139.369C87.0314 139.254 87.376 139.196 87.8082 139.196H89.1868V139.763H87.841C87.4471 139.763 87.1818 139.828 87.045 139.96C86.9083 140.091 86.8399 140.249 86.8399 140.435C86.8399 140.649 86.9247 140.821 87.0943 140.952C87.2639 141.078 87.4991 141.141 87.8 141.141C88.0954 141.141 88.3525 141.076 88.5714 140.944C88.7956 140.813 88.957 140.621 89.0555 140.37L89.2114 140.911C89.1075 141.169 88.9242 141.374 88.6616 141.527C88.399 141.675 88.068 141.748 87.6687 141.748ZM96.7417 137.309C97.0918 137.309 97.4009 137.377 97.669 137.514C97.9371 137.651 98.1449 137.859 98.2926 138.138C98.4458 138.417 98.5224 138.77 98.5224 139.196V141.699H97.7346V139.287C97.7346 138.865 97.6362 138.548 97.4392 138.335C97.2423 138.121 96.966 138.015 96.6104 138.015C96.3478 138.015 96.1181 138.069 95.9211 138.179C95.7242 138.288 95.571 138.45 95.4616 138.663C95.3576 138.876 95.3057 139.142 95.3057 139.459V141.699H94.5179V139.287C94.5179 138.865 94.4194 138.548 94.2225 138.335C94.031 138.121 93.7547 138.015 93.3937 138.015C93.1365 138.015 92.9095 138.069 92.7126 138.179C92.5156 138.288 92.3624 138.45 92.253 138.663C92.1436 138.876 92.0889 139.142 92.0889 139.459V141.699H91.3011V137.35H92.0561V138.507L91.933 138.212C92.0698 137.927 92.2804 137.706 92.5649 137.547C92.8493 137.388 93.1803 137.309 93.5578 137.309C93.9736 137.309 94.3319 137.413 94.6328 137.621C94.9337 137.823 95.1306 138.132 95.2236 138.548L94.9036 138.417C95.0349 138.083 95.2646 137.815 95.5929 137.613C95.9211 137.41 96.3041 137.309 96.7417 137.309ZM101.219 141.748C100.858 141.748 100.514 141.699 100.185 141.601C99.8625 141.502 99.6081 141.382 99.4221 141.24L99.7504 140.616C99.9364 140.742 100.166 140.849 100.44 140.936C100.713 141.024 100.992 141.067 101.277 141.067C101.643 141.067 101.906 141.015 102.064 140.911C102.229 140.807 102.311 140.663 102.311 140.477C102.311 140.34 102.261 140.233 102.163 140.156C102.064 140.08 101.933 140.022 101.769 139.984C101.61 139.946 101.433 139.913 101.236 139.886C101.039 139.853 100.842 139.815 100.645 139.771C100.448 139.722 100.267 139.656 100.103 139.574C99.9391 139.486 99.8078 139.369 99.7093 139.221C99.6109 139.068 99.5616 138.865 99.5616 138.614C99.5616 138.351 99.6355 138.121 99.7832 137.924C99.9309 137.728 100.139 137.577 100.407 137.473C100.68 137.364 101.003 137.309 101.375 137.309C101.66 137.309 101.947 137.345 102.237 137.416C102.532 137.481 102.773 137.577 102.959 137.703L102.622 138.327C102.426 138.195 102.22 138.105 102.007 138.056C101.794 138.007 101.58 137.982 101.367 137.982C101.022 137.982 100.765 138.039 100.596 138.154C100.426 138.264 100.341 138.406 100.341 138.581C100.341 138.729 100.39 138.844 100.489 138.926C100.593 139.002 100.724 139.062 100.883 139.106C101.047 139.15 101.227 139.188 101.424 139.221C101.621 139.248 101.818 139.287 102.015 139.336C102.212 139.38 102.39 139.443 102.549 139.525C102.713 139.607 102.844 139.722 102.942 139.869C103.046 140.017 103.098 140.214 103.098 140.46C103.098 140.723 103.022 140.95 102.869 141.141C102.715 141.333 102.499 141.483 102.22 141.593C101.941 141.696 101.608 141.748 101.219 141.748ZM108.149 141.748C107.712 141.748 107.323 141.653 106.984 141.461C106.645 141.27 106.377 141.007 106.18 140.673C105.983 140.334 105.885 139.951 105.885 139.525C105.885 139.092 105.983 138.709 106.18 138.376C106.377 138.042 106.645 137.782 106.984 137.596C107.323 137.405 107.712 137.309 108.149 137.309C108.582 137.309 108.967 137.405 109.307 137.596C109.651 137.782 109.919 138.042 110.111 138.376C110.308 138.704 110.406 139.087 110.406 139.525C110.406 139.957 110.308 140.34 110.111 140.673C109.919 141.007 109.651 141.27 109.307 141.461C108.967 141.653 108.582 141.748 108.149 141.748ZM108.149 141.059C108.428 141.059 108.677 140.996 108.896 140.87C109.121 140.745 109.296 140.567 109.421 140.337C109.547 140.102 109.61 139.831 109.61 139.525C109.61 139.213 109.547 138.945 109.421 138.72C109.296 138.491 109.121 138.313 108.896 138.187C108.677 138.061 108.428 137.998 108.149 137.998C107.87 137.998 107.622 138.061 107.403 138.187C107.184 138.313 107.009 138.491 106.878 138.72C106.746 138.945 106.681 139.213 106.681 139.525C106.681 139.831 106.746 140.102 106.878 140.337C107.009 140.567 107.184 140.745 107.403 140.87C107.622 140.996 107.87 141.059 108.149 141.059ZM113.818 137.309C114.173 137.309 114.485 137.377 114.753 137.514C115.027 137.651 115.24 137.859 115.393 138.138C115.547 138.417 115.623 138.77 115.623 139.196V141.699H114.835V139.287C114.835 138.865 114.731 138.548 114.524 138.335C114.321 138.121 114.034 138.015 113.662 138.015C113.383 138.015 113.14 138.069 112.932 138.179C112.724 138.288 112.562 138.45 112.447 138.663C112.338 138.876 112.283 139.142 112.283 139.459V141.699H111.496V137.35H112.251V138.523L112.127 138.212C112.27 137.927 112.489 137.706 112.784 137.547C113.079 137.388 113.424 137.309 113.818 137.309ZM118.53 141.699L121.131 135.955H121.944L124.553 141.699H123.692L121.369 136.415H121.697L119.375 141.699H118.53ZM119.638 140.263L119.859 139.607H123.092L123.33 140.263H119.638ZM127.601 141.748C127.24 141.748 126.909 141.666 126.608 141.502C126.313 141.333 126.075 141.084 125.894 140.756C125.719 140.427 125.632 140.017 125.632 139.525C125.632 139.032 125.716 138.622 125.886 138.294C126.061 137.965 126.296 137.719 126.592 137.555C126.893 137.391 127.229 137.309 127.601 137.309C128.028 137.309 128.405 137.402 128.733 137.588C129.062 137.774 129.322 138.034 129.513 138.368C129.705 138.696 129.8 139.082 129.8 139.525C129.8 139.968 129.705 140.356 129.513 140.69C129.322 141.024 129.062 141.283 128.733 141.469C128.405 141.655 128.028 141.748 127.601 141.748ZM125.295 143.291V137.35H126.05V138.523L126.001 139.533L126.083 140.542V143.291H125.295ZM127.535 141.059C127.814 141.059 128.063 140.996 128.282 140.87C128.506 140.745 128.681 140.567 128.807 140.337C128.939 140.102 129.004 139.831 129.004 139.525C129.004 139.213 128.939 138.945 128.807 138.72C128.681 138.491 128.506 138.313 128.282 138.187C128.063 138.061 127.814 137.998 127.535 137.998C127.262 137.998 127.013 138.061 126.789 138.187C126.57 138.313 126.395 138.491 126.263 138.72C126.138 138.945 126.075 139.213 126.075 139.525C126.075 139.831 126.138 140.102 126.263 140.337C126.395 140.567 126.57 140.745 126.789 140.87C127.013 140.996 127.262 141.059 127.535 141.059ZM133.195 141.748C132.834 141.748 132.503 141.666 132.202 141.502C131.906 141.333 131.668 141.084 131.488 140.756C131.313 140.427 131.225 140.017 131.225 139.525C131.225 139.032 131.31 138.622 131.48 138.294C131.655 137.965 131.89 137.719 132.185 137.555C132.486 137.391 132.823 137.309 133.195 137.309C133.621 137.309 133.999 137.402 134.327 137.588C134.655 137.774 134.915 138.034 135.107 138.368C135.298 138.696 135.394 139.082 135.394 139.525C135.394 139.968 135.298 140.356 135.107 140.69C134.915 141.024 134.655 141.283 134.327 141.469C133.999 141.655 133.621 141.748 133.195 141.748ZM130.889 143.291V137.35H131.644V138.523L131.594 139.533L131.676 140.542V143.291H130.889ZM133.129 141.059C133.408 141.059 133.657 140.996 133.876 140.87C134.1 140.745 134.275 140.567 134.401 140.337C134.532 140.102 134.598 139.831 134.598 139.525C134.598 139.213 134.532 138.945 134.401 138.72C134.275 138.491 134.1 138.313 133.876 138.187C133.657 138.061 133.408 137.998 133.129 137.998C132.855 137.998 132.606 138.061 132.382 138.187C132.163 138.313 131.988 138.491 131.857 138.72C131.731 138.945 131.668 139.213 131.668 139.525C131.668 139.831 131.731 140.102 131.857 140.337C131.988 140.567 132.163 140.745 132.382 140.87C132.606 140.996 132.855 141.059 133.129 141.059ZM136.482 141.699V135.61H137.27V141.699H136.482ZM140.711 141.748C140.246 141.748 139.835 141.653 139.48 141.461C139.13 141.27 138.856 141.007 138.659 140.673C138.468 140.34 138.372 139.957 138.372 139.525C138.372 139.092 138.465 138.709 138.651 138.376C138.843 138.042 139.102 137.782 139.431 137.596C139.764 137.405 140.139 137.309 140.555 137.309C140.976 137.309 141.348 137.402 141.671 137.588C141.994 137.774 142.245 138.037 142.426 138.376C142.612 138.709 142.705 139.101 142.705 139.549C142.705 139.582 142.702 139.62 142.697 139.664C142.697 139.708 142.694 139.749 142.688 139.787H138.988V139.221H142.278L141.958 139.418C141.964 139.139 141.906 138.89 141.786 138.671C141.665 138.452 141.499 138.283 141.285 138.162C141.077 138.037 140.834 137.974 140.555 137.974C140.281 137.974 140.038 138.037 139.825 138.162C139.611 138.283 139.444 138.455 139.324 138.679C139.204 138.898 139.143 139.15 139.143 139.434V139.566C139.143 139.856 139.209 140.115 139.34 140.345C139.477 140.57 139.666 140.745 139.907 140.87C140.147 140.996 140.424 141.059 140.735 141.059C140.993 141.059 141.225 141.015 141.433 140.928C141.646 140.84 141.832 140.709 141.991 140.534L142.426 141.043C142.229 141.273 141.983 141.448 141.687 141.568C141.397 141.688 141.072 141.748 140.711 141.748ZM146.117 141.699V135.955H146.79L149.367 140.296H149.006L151.55 135.955H152.223L152.231 141.699H151.443L151.435 137.194H151.624L149.359 141.002H148.981L146.7 137.194H146.905V141.699H146.117ZM155.67 141.748C155.298 141.748 154.97 141.68 154.685 141.543C154.406 141.407 154.187 141.199 154.029 140.92C153.875 140.635 153.799 140.28 153.799 139.853V137.35H154.587V139.763C154.587 140.189 154.688 140.509 154.89 140.723C155.098 140.936 155.388 141.043 155.76 141.043C156.034 141.043 156.272 140.988 156.474 140.879C156.676 140.764 156.832 140.6 156.942 140.386C157.051 140.167 157.106 139.905 157.106 139.598V137.35H157.894V141.699H157.147V140.526L157.27 140.838C157.128 141.128 156.914 141.352 156.63 141.51C156.345 141.669 156.025 141.748 155.67 141.748ZM160.641 141.748C160.28 141.748 159.935 141.699 159.607 141.601C159.284 141.502 159.03 141.382 158.844 141.24L159.172 140.616C159.358 140.742 159.588 140.849 159.861 140.936C160.135 141.024 160.414 141.067 160.698 141.067C161.065 141.067 161.327 141.015 161.486 140.911C161.65 140.807 161.732 140.663 161.732 140.477C161.732 140.34 161.683 140.233 161.584 140.156C161.486 140.08 161.355 140.022 161.19 139.984C161.032 139.946 160.854 139.913 160.657 139.886C160.46 139.853 160.263 139.815 160.066 139.771C159.869 139.722 159.689 139.656 159.525 139.574C159.361 139.486 159.229 139.369 159.131 139.221C159.032 139.068 158.983 138.865 158.983 138.614C158.983 138.351 159.057 138.121 159.205 137.924C159.352 137.728 159.56 137.577 159.828 137.473C160.102 137.364 160.425 137.309 160.797 137.309C161.081 137.309 161.368 137.345 161.658 137.416C161.954 137.481 162.194 137.577 162.38 137.703L162.044 138.327C161.847 138.195 161.642 138.105 161.428 138.056C161.215 138.007 161.002 137.982 160.788 137.982C160.444 137.982 160.187 138.039 160.017 138.154C159.847 138.264 159.763 138.406 159.763 138.581C159.763 138.729 159.812 138.844 159.91 138.926C160.014 139.002 160.146 139.062 160.304 139.106C160.468 139.15 160.649 139.188 160.846 139.221C161.043 139.248 161.24 139.287 161.437 139.336C161.634 139.38 161.811 139.443 161.97 139.525C162.134 139.607 162.265 139.722 162.364 139.869C162.468 140.017 162.52 140.214 162.52 140.46C162.52 140.723 162.443 140.95 162.29 141.141C162.137 141.333 161.921 141.483 161.642 141.593C161.363 141.696 161.029 141.748 160.641 141.748ZM163.504 141.699V137.35H164.292V141.699H163.504ZM163.898 136.513C163.745 136.513 163.617 136.464 163.513 136.365C163.414 136.267 163.365 136.146 163.365 136.004C163.365 135.857 163.414 135.733 163.513 135.635C163.617 135.537 163.745 135.487 163.898 135.487C164.051 135.487 164.177 135.537 164.276 135.635C164.38 135.728 164.432 135.846 164.432 135.988C164.432 136.136 164.382 136.261 164.284 136.365C164.185 136.464 164.057 136.513 163.898 136.513ZM167.692 141.748C167.249 141.748 166.852 141.653 166.502 141.461C166.157 141.27 165.887 141.007 165.69 140.673C165.493 140.34 165.394 139.957 165.394 139.525C165.394 139.092 165.493 138.709 165.69 138.376C165.887 138.042 166.157 137.782 166.502 137.596C166.852 137.405 167.249 137.309 167.692 137.309C168.086 137.309 168.436 137.388 168.742 137.547C169.054 137.7 169.295 137.93 169.464 138.236L168.865 138.622C168.723 138.409 168.548 138.253 168.34 138.154C168.138 138.05 167.919 137.998 167.684 137.998C167.399 137.998 167.145 138.061 166.92 138.187C166.696 138.313 166.518 138.491 166.387 138.72C166.256 138.945 166.19 139.213 166.19 139.525C166.19 139.836 166.256 140.107 166.387 140.337C166.518 140.567 166.696 140.745 166.92 140.87C167.145 140.996 167.399 141.059 167.684 141.059C167.919 141.059 168.138 141.01 168.34 140.911C168.548 140.807 168.723 140.649 168.865 140.435L169.464 140.813C169.295 141.114 169.054 141.346 168.742 141.51C168.436 141.669 168.086 141.748 167.692 141.748Z" fill="white"/>
<rect x="213.874" y="175.523" width="176.839" height="40.4146" rx="20.2073" fill="black" fill-opacity="0.01"/>
<rect x="213.874" y="175.523" width="176.839" height="40.4146" rx="20.2073" stroke="white" stroke-width="0.102575"/>
<path fill-rule="evenodd" clip-rule="evenodd" d="M247.673 191.218C247.673 190.93 247.673 190.642 247.672 190.354C247.671 190.112 247.668 189.87 247.662 189.627C247.648 189.099 247.617 188.567 247.525 188.044C247.432 187.514 247.279 187.02 247.04 186.538C246.804 186.065 246.496 185.632 246.128 185.257C245.76 184.881 245.336 184.566 244.873 184.325C244.402 184.08 243.919 183.925 243.4 183.829C242.889 183.735 242.368 183.704 241.851 183.69C241.613 183.683 241.376 183.68 241.139 183.679C240.857 183.678 240.575 183.678 240.294 183.678H231.461C231.179 183.678 230.897 183.678 230.615 183.679C230.378 183.68 230.141 183.683 229.904 183.69C229.387 183.705 228.865 183.735 228.354 183.83C227.835 183.925 227.353 184.081 226.881 184.326C226.418 184.567 225.994 184.882 225.626 185.257C225.259 185.633 224.951 186.066 224.715 186.539C224.475 187.021 224.322 187.515 224.229 188.045C224.137 188.567 224.107 189.1 224.093 189.628C224.086 189.87 224.084 190.113 224.082 190.355C224.081 190.642 224.081 190.93 224.081 191.218V200.242C224.081 200.53 224.081 200.818 224.082 201.106C224.084 201.349 224.086 201.591 224.093 201.833C224.107 202.362 224.137 202.894 224.229 203.416C224.322 203.947 224.475 204.44 224.715 204.922C224.951 205.396 225.259 205.828 225.626 206.204C225.994 206.579 226.418 206.894 226.881 207.135C227.353 207.38 227.836 207.536 228.354 207.631C228.865 207.725 229.387 207.757 229.904 207.771C230.141 207.777 230.378 207.78 230.615 207.781C230.897 207.783 231.179 207.783 231.461 207.783H240.293C240.575 207.783 240.856 207.783 241.138 207.781C241.375 207.78 241.613 207.777 241.85 207.771C242.367 207.757 242.889 207.725 243.4 207.631C243.919 207.536 244.401 207.38 244.872 207.135C245.336 206.894 245.76 206.579 246.127 206.204C246.495 205.828 246.803 205.396 247.039 204.922C247.279 204.44 247.431 203.947 247.525 203.416C247.616 202.894 247.647 202.361 247.661 201.833C247.667 201.591 247.67 201.349 247.671 201.106C247.673 200.818 247.673 200.53 247.673 200.242V191.218H247.673Z" fill="url(#paint1_linear_5_1267)"/>
<path fill-rule="evenodd" clip-rule="evenodd" d="M241.589 187.167C241.532 187.172 241.025 187.264 240.964 187.277L233.952 188.722L233.949 188.723C233.767 188.763 233.623 188.829 233.512 188.924C233.379 189.039 233.305 189.201 233.276 189.389C233.27 189.43 233.261 189.511 233.261 189.632C233.261 189.632 233.261 196.952 233.261 198.599C233.261 198.809 233.244 199.012 233.105 199.186C232.966 199.359 232.795 199.411 232.593 199.453C232.441 199.484 232.288 199.516 232.135 199.547C231.556 199.666 231.179 199.748 230.838 199.883C230.511 200.012 230.267 200.177 230.072 200.386C229.686 200.799 229.53 201.359 229.583 201.884C229.629 202.332 229.827 202.761 230.165 203.077C230.394 203.292 230.68 203.454 231.017 203.523C231.366 203.595 231.738 203.57 232.282 203.458C232.572 203.398 232.843 203.305 233.101 203.149C233.357 202.995 233.576 202.79 233.747 202.539C233.919 202.288 234.029 202.009 234.09 201.712C234.153 201.406 234.168 201.13 234.168 200.824V193.047C234.168 192.63 234.284 192.52 234.613 192.439C234.613 192.439 240.441 191.238 240.713 191.183C241.093 191.109 241.271 191.219 241.271 191.626V196.935C241.271 197.145 241.27 197.358 241.129 197.532C240.99 197.706 240.819 197.758 240.617 197.8C240.465 197.831 240.312 197.863 240.159 197.894C239.58 198.013 239.203 198.094 238.862 198.23C238.535 198.359 238.291 198.523 238.096 198.732C237.71 199.146 237.54 199.706 237.594 200.231C237.64 200.679 237.851 201.107 238.189 201.424C238.418 201.638 238.704 201.796 239.041 201.866C239.39 201.938 239.762 201.912 240.306 201.801C240.596 201.741 240.867 201.652 241.125 201.496C241.381 201.342 241.6 201.136 241.771 200.886C241.943 200.635 242.053 200.356 242.114 200.059C242.177 199.753 242.18 199.476 242.18 199.171V187.8C242.181 187.388 241.968 187.134 241.589 187.167Z" fill="white"/>
<path d="M256.5 198.73V198.172L258.838 195.916C259.046 195.719 259.199 195.547 259.298 195.399C259.402 195.246 259.47 195.106 259.503 194.98C259.541 194.849 259.561 194.723 259.561 194.603C259.561 194.307 259.457 194.075 259.249 193.905C259.041 193.736 258.737 193.651 258.338 193.651C258.031 193.651 257.755 193.703 257.509 193.807C257.263 193.905 257.049 194.061 256.869 194.275L256.311 193.79C256.53 193.511 256.822 193.298 257.189 193.15C257.561 192.997 257.969 192.921 258.412 192.921C258.811 192.921 259.158 192.986 259.454 193.118C259.749 193.243 259.976 193.427 260.135 193.667C260.299 193.908 260.381 194.193 260.381 194.521C260.381 194.707 260.357 194.89 260.307 195.071C260.258 195.251 260.165 195.443 260.028 195.645C259.892 195.847 259.695 196.074 259.437 196.326L257.353 198.337L257.156 198.017H260.627V198.73H256.5ZM262.287 198.73L264.724 193.331L264.937 193.7H261.524L261.934 193.298V194.726H261.146V192.986H265.479V193.544L263.157 198.73H262.287ZM266.315 198.78C266.162 198.78 266.031 198.728 265.921 198.624C265.812 198.514 265.757 198.378 265.757 198.213C265.757 198.049 265.812 197.915 265.921 197.811C266.031 197.707 266.162 197.655 266.315 197.655C266.463 197.655 266.589 197.707 266.693 197.811C266.802 197.915 266.857 198.049 266.857 198.213C266.857 198.378 266.802 198.514 266.693 198.624C266.589 198.728 266.463 198.78 266.315 198.78ZM269.953 198.796C269.488 198.796 269.086 198.728 268.747 198.591C268.408 198.454 268.145 198.26 267.959 198.008C267.773 197.751 267.68 197.45 267.68 197.106C267.68 196.766 267.768 196.479 267.943 196.244C268.123 196.003 268.383 195.823 268.722 195.702C269.061 195.577 269.472 195.514 269.953 195.514C270.435 195.514 270.845 195.577 271.184 195.702C271.529 195.823 271.791 196.003 271.972 196.244C272.152 196.485 272.243 196.772 272.243 197.106C272.243 197.45 272.15 197.751 271.964 198.008C271.778 198.26 271.512 198.454 271.168 198.591C270.823 198.728 270.418 198.796 269.953 198.796ZM269.953 198.131C270.413 198.131 270.771 198.038 271.028 197.852C271.291 197.661 271.422 197.404 271.422 197.081C271.422 196.764 271.291 196.515 271.028 196.334C270.771 196.148 270.413 196.055 269.953 196.055C269.499 196.055 269.144 196.148 268.886 196.334C268.629 196.515 268.501 196.764 268.501 197.081C268.501 197.404 268.629 197.661 268.886 197.852C269.144 198.038 269.499 198.131 269.953 198.131ZM269.953 195.957C269.516 195.957 269.144 195.899 268.837 195.785C268.531 195.664 268.296 195.495 268.131 195.276C267.967 195.051 267.885 194.786 267.885 194.48C267.885 194.157 267.97 193.881 268.14 193.651C268.315 193.416 268.558 193.235 268.87 193.109C269.182 192.984 269.543 192.921 269.953 192.921C270.369 192.921 270.733 192.984 271.045 193.109C271.356 193.235 271.6 193.416 271.775 193.651C271.95 193.881 272.038 194.157 272.038 194.48C272.038 194.786 271.955 195.051 271.791 195.276C271.627 195.495 271.389 195.664 271.077 195.785C270.766 195.899 270.391 195.957 269.953 195.957ZM269.953 195.432C270.353 195.432 270.664 195.35 270.889 195.185C271.118 195.021 271.233 194.797 271.233 194.513C271.233 194.223 271.116 193.996 270.88 193.831C270.645 193.667 270.336 193.585 269.953 193.585C269.57 193.585 269.264 193.667 269.034 193.831C268.81 193.996 268.698 194.223 268.698 194.513C268.698 194.797 268.807 195.021 269.026 195.185C269.25 195.35 269.559 195.432 269.953 195.432ZM277.339 198.796C276.902 198.796 276.483 198.73 276.084 198.599C275.685 198.462 275.37 198.287 275.14 198.074L275.444 197.434C275.663 197.625 275.942 197.784 276.281 197.91C276.62 198.036 276.973 198.099 277.339 198.099C277.673 198.099 277.944 198.06 278.152 197.984C278.36 197.907 278.513 197.803 278.611 197.672C278.71 197.535 278.759 197.382 278.759 197.212C278.759 197.015 278.693 196.857 278.562 196.736C278.436 196.616 278.269 196.52 278.062 196.449C277.859 196.373 277.635 196.307 277.389 196.252C277.143 196.198 276.894 196.135 276.642 196.064C276.396 195.987 276.169 195.891 275.961 195.776C275.758 195.661 275.594 195.508 275.469 195.317C275.343 195.12 275.28 194.868 275.28 194.562C275.28 194.266 275.356 193.996 275.51 193.749C275.668 193.498 275.909 193.298 276.232 193.15C276.56 192.997 276.976 192.921 277.479 192.921C277.813 192.921 278.144 192.964 278.472 193.052C278.8 193.139 279.085 193.265 279.325 193.429L279.055 194.086C278.808 193.922 278.549 193.804 278.275 193.733C278.001 193.656 277.736 193.618 277.479 193.618C277.156 193.618 276.891 193.659 276.683 193.741C276.475 193.823 276.322 193.933 276.223 194.069C276.13 194.206 276.084 194.359 276.084 194.529C276.084 194.731 276.147 194.893 276.273 195.013C276.404 195.134 276.571 195.229 276.773 195.3C276.981 195.371 277.208 195.437 277.454 195.497C277.701 195.552 277.947 195.615 278.193 195.686C278.445 195.757 278.672 195.85 278.874 195.965C279.082 196.08 279.249 196.233 279.375 196.425C279.5 196.616 279.563 196.862 279.563 197.163C279.563 197.453 279.484 197.724 279.325 197.976C279.167 198.222 278.921 198.421 278.587 198.575C278.259 198.722 277.843 198.796 277.339 198.796ZM282.141 198.78C281.703 198.78 281.364 198.662 281.123 198.427C280.883 198.192 280.762 197.855 280.762 197.418V193.429H281.55V197.385C281.55 197.62 281.607 197.8 281.722 197.926C281.843 198.052 282.012 198.115 282.231 198.115C282.477 198.115 282.682 198.047 282.846 197.91L283.093 198.476C282.972 198.58 282.827 198.657 282.658 198.706C282.494 198.755 282.321 198.78 282.141 198.78ZM280.024 195.03V194.381H282.797V195.03H280.024ZM284.045 198.73V194.381H284.8V195.563L284.726 195.268C284.847 194.967 285.049 194.737 285.333 194.578C285.618 194.42 285.968 194.34 286.384 194.34V195.103C286.351 195.098 286.318 195.095 286.285 195.095C286.258 195.095 286.231 195.095 286.203 195.095C285.782 195.095 285.448 195.221 285.202 195.473C284.956 195.724 284.833 196.088 284.833 196.564V198.73H284.045ZM289.251 198.78C288.786 198.78 288.376 198.684 288.02 198.492C287.67 198.301 287.397 198.038 287.2 197.705C287.008 197.371 286.913 196.988 286.913 196.556C286.913 196.124 287.006 195.741 287.192 195.407C287.383 195.073 287.643 194.813 287.971 194.627C288.305 194.436 288.68 194.34 289.095 194.34C289.517 194.34 289.889 194.433 290.211 194.619C290.534 194.805 290.786 195.068 290.966 195.407C291.152 195.741 291.245 196.132 291.245 196.58C291.245 196.613 291.243 196.652 291.237 196.695C291.237 196.739 291.234 196.78 291.229 196.818H287.528V196.252H290.819L290.499 196.449C290.504 196.17 290.447 195.921 290.326 195.702C290.206 195.484 290.039 195.314 289.826 195.194C289.618 195.068 289.374 195.005 289.095 195.005C288.822 195.005 288.578 195.068 288.365 195.194C288.152 195.314 287.985 195.486 287.864 195.711C287.744 195.929 287.684 196.181 287.684 196.466V196.597C287.684 196.887 287.75 197.147 287.881 197.376C288.018 197.601 288.206 197.776 288.447 197.902C288.688 198.027 288.964 198.09 289.276 198.09C289.533 198.09 289.766 198.047 289.973 197.959C290.187 197.872 290.373 197.74 290.531 197.565L290.966 198.074C290.769 198.304 290.523 198.479 290.228 198.599C289.938 198.72 289.612 198.78 289.251 198.78ZM294.919 198.73V197.811L294.878 197.639V196.072C294.878 195.738 294.779 195.481 294.582 195.3C294.391 195.114 294.101 195.021 293.713 195.021C293.455 195.021 293.204 195.065 292.958 195.153C292.711 195.235 292.503 195.347 292.334 195.489L292.006 194.898C292.23 194.718 292.498 194.581 292.81 194.488C293.127 194.389 293.458 194.34 293.803 194.34C294.399 194.34 294.859 194.485 295.181 194.775C295.504 195.065 295.666 195.508 295.666 196.105V198.73H294.919ZM293.491 198.78C293.168 198.78 292.884 198.725 292.638 198.616C292.397 198.506 292.211 198.356 292.08 198.164C291.948 197.967 291.883 197.746 291.883 197.5C291.883 197.264 291.937 197.051 292.047 196.859C292.162 196.668 292.345 196.515 292.597 196.4C292.854 196.285 293.198 196.228 293.63 196.228H295.009V196.794H293.663C293.269 196.794 293.004 196.859 292.867 196.991C292.731 197.122 292.662 197.281 292.662 197.467C292.662 197.68 292.747 197.852 292.917 197.984C293.086 198.11 293.321 198.172 293.622 198.172C293.918 198.172 294.175 198.107 294.394 197.976C294.618 197.844 294.779 197.653 294.878 197.401L295.034 197.943C294.93 198.2 294.746 198.405 294.484 198.558C294.221 198.706 293.89 198.78 293.491 198.78ZM302.564 194.34C302.914 194.34 303.223 194.409 303.491 194.545C303.759 194.682 303.967 194.89 304.115 195.169C304.268 195.448 304.345 195.801 304.345 196.228V198.73H303.557V196.318C303.557 195.897 303.458 195.579 303.261 195.366C303.065 195.153 302.788 195.046 302.433 195.046C302.17 195.046 301.94 195.101 301.743 195.21C301.546 195.32 301.393 195.481 301.284 195.694C301.18 195.908 301.128 196.173 301.128 196.49V198.73H300.34V196.318C300.34 195.897 300.242 195.579 300.045 195.366C299.853 195.153 299.577 195.046 299.216 195.046C298.959 195.046 298.732 195.101 298.535 195.21C298.338 195.32 298.185 195.481 298.075 195.694C297.966 195.908 297.911 196.173 297.911 196.49V198.73H297.123V194.381H297.878V195.538L297.755 195.243C297.892 194.958 298.103 194.737 298.387 194.578C298.672 194.42 299.003 194.34 299.38 194.34C299.796 194.34 300.154 194.444 300.455 194.652C300.756 194.854 300.953 195.164 301.046 195.579L300.726 195.448C300.857 195.114 301.087 194.846 301.415 194.644C301.743 194.441 302.126 194.34 302.564 194.34ZM307.042 198.78C306.68 198.78 306.336 198.73 306.008 198.632C305.685 198.534 305.43 198.413 305.244 198.271L305.573 197.647C305.759 197.773 305.988 197.88 306.262 197.967C306.535 198.055 306.814 198.099 307.099 198.099C307.465 198.099 307.728 198.047 307.887 197.943C308.051 197.839 308.133 197.694 308.133 197.508C308.133 197.371 308.084 197.264 307.985 197.188C307.887 197.111 307.755 197.054 307.591 197.015C307.433 196.977 307.255 196.944 307.058 196.917C306.861 196.884 306.664 196.846 306.467 196.802C306.27 196.753 306.09 196.687 305.925 196.605C305.761 196.518 305.63 196.4 305.532 196.252C305.433 196.099 305.384 195.897 305.384 195.645C305.384 195.382 305.458 195.153 305.605 194.956C305.753 194.759 305.961 194.608 306.229 194.504C306.503 194.395 306.825 194.34 307.197 194.34C307.482 194.34 307.769 194.376 308.059 194.447C308.354 194.513 308.595 194.608 308.781 194.734L308.445 195.358C308.248 195.227 308.043 195.136 307.829 195.087C307.616 195.038 307.403 195.013 307.189 195.013C306.845 195.013 306.587 195.071 306.418 195.185C306.248 195.295 306.163 195.437 306.163 195.612C306.163 195.76 306.213 195.875 306.311 195.957C306.415 196.033 306.546 196.094 306.705 196.137C306.869 196.181 307.05 196.219 307.247 196.252C307.444 196.28 307.641 196.318 307.837 196.367C308.034 196.411 308.212 196.474 308.371 196.556C308.535 196.638 308.666 196.753 308.765 196.901C308.869 197.048 308.921 197.245 308.921 197.491C308.921 197.754 308.844 197.981 308.691 198.172C308.538 198.364 308.322 198.514 308.043 198.624C307.764 198.728 307.43 198.78 307.042 198.78ZM313.972 198.78C313.534 198.78 313.146 198.684 312.806 198.492C312.467 198.301 312.199 198.038 312.002 197.705C311.805 197.366 311.707 196.983 311.707 196.556C311.707 196.124 311.805 195.741 312.002 195.407C312.199 195.073 312.467 194.813 312.806 194.627C313.146 194.436 313.534 194.34 313.972 194.34C314.404 194.34 314.79 194.436 315.129 194.627C315.473 194.813 315.741 195.073 315.933 195.407C316.13 195.735 316.228 196.118 316.228 196.556C316.228 196.988 316.13 197.371 315.933 197.705C315.741 198.038 315.473 198.301 315.129 198.492C314.79 198.684 314.404 198.78 313.972 198.78ZM313.972 198.09C314.251 198.09 314.5 198.027 314.718 197.902C314.943 197.776 315.118 197.598 315.244 197.368C315.369 197.133 315.432 196.862 315.432 196.556C315.432 196.244 315.369 195.976 315.244 195.752C315.118 195.522 314.943 195.344 314.718 195.218C314.5 195.092 314.251 195.03 313.972 195.03C313.693 195.03 313.444 195.092 313.225 195.218C313.006 195.344 312.831 195.522 312.7 195.752C312.569 195.976 312.503 196.244 312.503 196.556C312.503 196.862 312.569 197.133 312.7 197.368C312.831 197.598 313.006 197.776 313.225 197.902C313.444 198.027 313.693 198.09 313.972 198.09ZM319.64 194.34C319.996 194.34 320.308 194.409 320.576 194.545C320.849 194.682 321.063 194.89 321.216 195.169C321.369 195.448 321.445 195.801 321.445 196.228V198.73H320.658V196.318C320.658 195.897 320.554 195.579 320.346 195.366C320.143 195.153 319.856 195.046 319.484 195.046C319.205 195.046 318.962 195.101 318.754 195.21C318.546 195.32 318.385 195.481 318.27 195.694C318.16 195.908 318.106 196.173 318.106 196.49V198.73H317.318V194.381H318.073V195.555L317.95 195.243C318.092 194.958 318.311 194.737 318.606 194.578C318.902 194.42 319.246 194.34 319.64 194.34ZM324.352 198.73L326.954 192.986H327.766L330.375 198.73H329.514L327.191 193.446H327.52L325.197 198.73H324.352ZM325.46 197.294L325.682 196.638H328.915L329.153 197.294H325.46ZM333.423 198.78C333.062 198.78 332.731 198.698 332.43 198.534C332.135 198.364 331.897 198.115 331.716 197.787C331.541 197.459 331.454 197.048 331.454 196.556C331.454 196.064 331.539 195.653 331.708 195.325C331.883 194.997 332.119 194.751 332.414 194.586C332.715 194.422 333.051 194.34 333.423 194.34C333.85 194.34 334.227 194.433 334.556 194.619C334.884 194.805 335.144 195.065 335.335 195.399C335.527 195.727 335.623 196.113 335.623 196.556C335.623 196.999 335.527 197.387 335.335 197.721C335.144 198.055 334.884 198.315 334.556 198.501C334.227 198.687 333.85 198.78 333.423 198.78ZM331.117 200.322V194.381H331.872V195.555L331.823 196.564L331.905 197.573V200.322H331.117ZM333.358 198.09C333.637 198.09 333.886 198.027 334.104 197.902C334.329 197.776 334.504 197.598 334.63 197.368C334.761 197.133 334.827 196.862 334.827 196.556C334.827 196.244 334.761 195.976 334.63 195.752C334.504 195.522 334.329 195.344 334.104 195.218C333.886 195.092 333.637 195.03 333.358 195.03C333.084 195.03 332.835 195.092 332.611 195.218C332.392 195.344 332.217 195.522 332.086 195.752C331.96 195.976 331.897 196.244 331.897 196.556C331.897 196.862 331.96 197.133 332.086 197.368C332.217 197.598 332.392 197.776 332.611 197.902C332.835 198.027 333.084 198.09 333.358 198.09ZM339.017 198.78C338.656 198.78 338.325 198.698 338.024 198.534C337.729 198.364 337.491 198.115 337.31 197.787C337.135 197.459 337.047 197.048 337.047 196.556C337.047 196.064 337.132 195.653 337.302 195.325C337.477 194.997 337.712 194.751 338.008 194.586C338.308 194.422 338.645 194.34 339.017 194.34C339.444 194.34 339.821 194.433 340.149 194.619C340.478 194.805 340.737 195.065 340.929 195.399C341.12 195.727 341.216 196.113 341.216 196.556C341.216 196.999 341.12 197.387 340.929 197.721C340.737 198.055 340.478 198.315 340.149 198.501C339.821 198.687 339.444 198.78 339.017 198.78ZM336.711 200.322V194.381H337.466V195.555L337.417 196.564L337.499 197.573V200.322H336.711ZM338.951 198.09C339.23 198.09 339.479 198.027 339.698 197.902C339.922 197.776 340.097 197.598 340.223 197.368C340.354 197.133 340.42 196.862 340.42 196.556C340.42 196.244 340.354 195.976 340.223 195.752C340.097 195.522 339.922 195.344 339.698 195.218C339.479 195.092 339.23 195.03 338.951 195.03C338.678 195.03 338.429 195.092 338.204 195.218C337.986 195.344 337.811 195.522 337.679 195.752C337.553 195.976 337.491 196.244 337.491 196.556C337.491 196.862 337.553 197.133 337.679 197.368C337.811 197.598 337.986 197.776 338.204 197.902C338.429 198.027 338.678 198.09 338.951 198.09ZM342.305 198.73V192.642H343.092V198.73H342.305ZM346.533 198.78C346.068 198.78 345.658 198.684 345.302 198.492C344.952 198.301 344.678 198.038 344.482 197.705C344.29 197.371 344.194 196.988 344.194 196.556C344.194 196.124 344.287 195.741 344.473 195.407C344.665 195.073 344.925 194.813 345.253 194.627C345.587 194.436 345.961 194.34 346.377 194.34C346.798 194.34 347.17 194.433 347.493 194.619C347.816 194.805 348.068 195.068 348.248 195.407C348.434 195.741 348.527 196.132 348.527 196.58C348.527 196.613 348.524 196.652 348.519 196.695C348.519 196.739 348.516 196.78 348.511 196.818H344.81V196.252H348.1L347.78 196.449C347.786 196.17 347.728 195.921 347.608 195.702C347.488 195.484 347.321 195.314 347.107 195.194C346.9 195.068 346.656 195.005 346.377 195.005C346.104 195.005 345.86 195.068 345.647 195.194C345.433 195.314 345.267 195.486 345.146 195.711C345.026 195.929 344.966 196.181 344.966 196.466V196.597C344.966 196.887 345.031 197.147 345.163 197.376C345.299 197.601 345.488 197.776 345.729 197.902C345.97 198.027 346.246 198.09 346.558 198.09C346.815 198.09 347.047 198.047 347.255 197.959C347.469 197.872 347.655 197.74 347.813 197.565L348.248 198.074C348.051 198.304 347.805 198.479 347.51 198.599C347.22 198.72 346.894 198.78 346.533 198.78ZM351.94 198.73V192.986H352.613L355.189 197.327H354.828L357.372 192.986H358.045L358.053 198.73H357.265L357.257 194.225H357.446L355.181 198.033H354.804L352.522 194.225H352.727V198.73H351.94ZM361.492 198.78C361.12 198.78 360.792 198.711 360.507 198.575C360.228 198.438 360.01 198.23 359.851 197.951C359.698 197.666 359.621 197.311 359.621 196.884V194.381H360.409V196.794C360.409 197.221 360.51 197.541 360.712 197.754C360.92 197.967 361.21 198.074 361.582 198.074C361.856 198.074 362.094 198.019 362.296 197.91C362.499 197.795 362.655 197.631 362.764 197.418C362.873 197.199 362.928 196.936 362.928 196.63V194.381H363.716V198.73H362.969V197.557L363.092 197.869C362.95 198.159 362.737 198.383 362.452 198.542C362.168 198.7 361.848 198.78 361.492 198.78ZM366.463 198.78C366.102 198.78 365.757 198.73 365.429 198.632C365.106 198.534 364.852 198.413 364.666 198.271L364.994 197.647C365.18 197.773 365.41 197.88 365.683 197.967C365.957 198.055 366.236 198.099 366.52 198.099C366.887 198.099 367.149 198.047 367.308 197.943C367.472 197.839 367.554 197.694 367.554 197.508C367.554 197.371 367.505 197.264 367.407 197.188C367.308 197.111 367.177 197.054 367.013 197.015C366.854 196.977 366.676 196.944 366.479 196.917C366.282 196.884 366.085 196.846 365.888 196.802C365.692 196.753 365.511 196.687 365.347 196.605C365.183 196.518 365.051 196.4 364.953 196.252C364.855 196.099 364.805 195.897 364.805 195.645C364.805 195.382 364.879 195.153 365.027 194.956C365.175 194.759 365.382 194.608 365.651 194.504C365.924 194.395 366.247 194.34 366.619 194.34C366.903 194.34 367.191 194.376 367.48 194.447C367.776 194.513 368.017 194.608 368.203 194.734L367.866 195.358C367.669 195.227 367.464 195.136 367.251 195.087C367.037 195.038 366.824 195.013 366.611 195.013C366.266 195.013 366.009 195.071 365.839 195.185C365.67 195.295 365.585 195.437 365.585 195.612C365.585 195.76 365.634 195.875 365.733 195.957C365.837 196.033 365.968 196.094 366.126 196.137C366.291 196.181 366.471 196.219 366.668 196.252C366.865 196.28 367.062 196.318 367.259 196.367C367.456 196.411 367.634 196.474 367.792 196.556C367.956 196.638 368.088 196.753 368.186 196.901C368.29 197.048 368.342 197.245 368.342 197.491C368.342 197.754 368.266 197.981 368.112 198.172C367.959 198.364 367.743 198.514 367.464 198.624C367.185 198.728 366.851 198.78 366.463 198.78ZM369.327 198.73V194.381H370.114V198.73H369.327ZM369.721 193.544C369.567 193.544 369.439 193.495 369.335 193.397C369.236 193.298 369.187 193.178 369.187 193.036C369.187 192.888 369.236 192.765 369.335 192.666C369.439 192.568 369.567 192.519 369.721 192.519C369.874 192.519 370 192.568 370.098 192.666C370.202 192.759 370.254 192.877 370.254 193.019C370.254 193.167 370.205 193.293 370.106 193.397C370.008 193.495 369.879 193.544 369.721 193.544ZM373.514 198.78C373.071 198.78 372.674 198.684 372.324 198.492C371.98 198.301 371.709 198.038 371.512 197.705C371.315 197.371 371.216 196.988 371.216 196.556C371.216 196.124 371.315 195.741 371.512 195.407C371.709 195.073 371.98 194.813 372.324 194.627C372.674 194.436 373.071 194.34 373.514 194.34C373.908 194.34 374.258 194.42 374.564 194.578C374.876 194.731 375.117 194.961 375.287 195.268L374.688 195.653C374.545 195.44 374.37 195.284 374.162 195.185C373.96 195.082 373.741 195.03 373.506 195.03C373.221 195.03 372.967 195.092 372.743 195.218C372.518 195.344 372.341 195.522 372.209 195.752C372.078 195.976 372.012 196.244 372.012 196.556C372.012 196.868 372.078 197.139 372.209 197.368C372.341 197.598 372.518 197.776 372.743 197.902C372.967 198.027 373.221 198.09 373.506 198.09C373.741 198.09 373.96 198.041 374.162 197.943C374.37 197.839 374.545 197.68 374.688 197.467L375.287 197.844C375.117 198.145 374.876 198.378 374.564 198.542C374.258 198.7 373.908 198.78 373.514 198.78Z" fill="white"/>
<rect x="209.487" y="94.3628" width="176.839" height="40.4146" rx="20.2073" fill="black" fill-opacity="0.01"/>
<rect x="209.487" y="94.3628" width="176.839" height="40.4146" rx="20.2073" stroke="white" stroke-width="0.102575"/>
<path fill-rule="evenodd" clip-rule="evenodd" d="M243.286 110.058C243.286 109.77 243.286 109.482 243.284 109.194C243.283 108.952 243.28 108.709 243.274 108.467C243.26 107.939 243.229 107.406 243.138 106.884C243.044 106.354 242.892 105.86 242.652 105.378C242.416 104.905 242.108 104.472 241.74 104.097C241.373 103.721 240.949 103.406 240.485 103.165C240.014 102.92 239.531 102.765 239.013 102.669C238.502 102.575 237.98 102.544 237.463 102.53C237.226 102.523 236.988 102.52 236.751 102.519C236.469 102.518 236.188 102.518 235.906 102.518H227.073C226.791 102.518 226.51 102.518 226.228 102.519C225.991 102.52 225.753 102.523 225.516 102.53C224.999 102.544 224.477 102.575 223.966 102.67C223.447 102.765 222.965 102.921 222.494 103.166C222.03 103.407 221.606 103.722 221.239 104.097C220.871 104.473 220.563 104.905 220.327 105.379C220.087 105.861 219.935 106.354 219.841 106.885C219.75 107.407 219.719 107.94 219.705 108.468C219.699 108.71 219.696 108.952 219.695 109.195C219.693 109.482 219.693 109.77 219.693 110.058V119.082C219.693 119.37 219.693 119.658 219.695 119.946C219.696 120.188 219.699 120.431 219.705 120.673C219.719 121.202 219.75 121.734 219.841 122.256C219.935 122.786 220.087 123.28 220.327 123.762C220.563 124.235 220.871 124.668 221.239 125.044C221.606 125.419 222.03 125.734 222.494 125.975C222.965 126.22 223.448 126.376 223.966 126.471C224.477 126.565 224.999 126.596 225.516 126.611C225.753 126.617 225.991 126.62 226.228 126.621C226.51 126.623 226.791 126.623 227.073 126.623H235.905C236.187 126.623 236.469 126.623 236.751 126.621C236.988 126.62 237.225 126.617 237.462 126.611C237.979 126.596 238.501 126.565 239.012 126.471C239.531 126.376 240.014 126.22 240.485 125.975C240.948 125.734 241.372 125.419 241.74 125.044C242.107 124.668 242.415 124.235 242.651 123.762C242.891 123.28 243.044 122.786 243.137 122.256C243.229 121.734 243.259 121.201 243.273 120.673C243.28 120.431 243.282 120.188 243.284 119.946C243.286 119.658 243.285 119.37 243.285 119.082V110.058H243.286Z" fill="url(#paint2_linear_5_1267)"/>
<path fill-rule="evenodd" clip-rule="evenodd" d="M237.2 106.007C237.143 106.012 236.636 106.104 236.575 106.117L229.563 107.562L229.561 107.563C229.378 107.603 229.234 107.669 229.124 107.764C228.99 107.878 228.916 108.04 228.888 108.229C228.882 108.269 228.872 108.351 228.872 108.472C228.872 108.472 228.872 115.792 228.872 117.439C228.872 117.649 228.856 117.852 228.717 118.026C228.578 118.199 228.406 118.251 228.205 118.293C228.052 118.324 227.899 118.356 227.747 118.387C227.167 118.506 226.791 118.587 226.449 118.723C226.123 118.852 225.878 119.017 225.684 119.225C225.298 119.639 225.141 120.199 225.195 120.724C225.241 121.172 225.438 121.601 225.777 121.917C226.005 122.132 226.291 122.294 226.628 122.363C226.977 122.435 227.35 122.41 227.894 122.298C228.183 122.238 228.454 122.145 228.713 121.989C228.968 121.835 229.187 121.629 229.358 121.379C229.53 121.128 229.641 120.849 229.702 120.552C229.765 120.246 229.78 119.969 229.78 119.664V111.887C229.78 111.47 229.895 111.36 230.224 111.279C230.224 111.279 236.053 110.077 236.324 110.023C236.704 109.949 236.883 110.059 236.883 110.466V115.775C236.883 115.985 236.881 116.198 236.741 116.372C236.602 116.546 236.43 116.598 236.229 116.639C236.076 116.671 235.923 116.702 235.771 116.734C235.191 116.853 234.815 116.934 234.473 117.069C234.147 117.199 233.902 117.363 233.708 117.572C233.322 117.985 233.151 118.546 233.205 119.071C233.251 119.519 233.462 119.947 233.801 120.264C234.029 120.478 234.315 120.636 234.652 120.706C235.001 120.778 235.374 120.752 235.918 120.64C236.207 120.581 236.478 120.492 236.737 120.336C236.992 120.182 237.211 119.976 237.382 119.726C237.554 119.475 237.665 119.195 237.726 118.899C237.789 118.593 237.791 118.316 237.791 118.011V106.64C237.792 106.228 237.579 105.973 237.2 106.007Z" fill="white"/>
<path d="M252.113 117.57V117.012L254.452 114.756C254.66 114.559 254.813 114.386 254.911 114.239C255.015 114.085 255.084 113.946 255.116 113.82C255.155 113.689 255.174 113.563 255.174 113.443C255.174 113.147 255.07 112.915 254.862 112.745C254.654 112.576 254.35 112.491 253.951 112.491C253.645 112.491 253.368 112.543 253.122 112.647C252.876 112.745 252.663 112.901 252.482 113.114L251.924 112.63C252.143 112.351 252.436 112.138 252.802 111.99C253.174 111.837 253.582 111.76 254.025 111.76C254.424 111.76 254.772 111.826 255.067 111.957C255.363 112.083 255.59 112.266 255.748 112.507C255.912 112.748 255.994 113.032 255.994 113.361C255.994 113.547 255.97 113.73 255.921 113.91C255.871 114.091 255.778 114.282 255.642 114.485C255.505 114.687 255.308 114.914 255.051 115.166L252.966 117.176L252.769 116.856H256.241V117.57H252.113ZM257.9 117.57L260.337 112.171L260.551 112.54H257.137L257.547 112.138V113.566H256.76V111.826H261.092V112.384L258.77 117.57H257.9ZM261.929 117.62C261.775 117.62 261.644 117.568 261.535 117.464C261.425 117.354 261.371 117.217 261.371 117.053C261.371 116.889 261.425 116.755 261.535 116.651C261.644 116.547 261.775 116.495 261.929 116.495C262.076 116.495 262.202 116.547 262.306 116.651C262.415 116.755 262.47 116.889 262.47 117.053C262.47 117.217 262.415 117.354 262.306 117.464C262.202 117.568 262.076 117.62 261.929 117.62ZM265.566 117.636C265.101 117.636 264.699 117.568 264.36 117.431C264.021 117.294 263.758 117.1 263.572 116.848C263.386 116.591 263.293 116.29 263.293 115.946C263.293 115.606 263.381 115.319 263.556 115.084C263.737 114.843 263.996 114.663 264.336 114.542C264.675 114.416 265.085 114.354 265.566 114.354C266.048 114.354 266.458 114.416 266.797 114.542C267.142 114.663 267.405 114.843 267.585 115.084C267.766 115.325 267.856 115.612 267.856 115.946C267.856 116.29 267.763 116.591 267.577 116.848C267.391 117.1 267.126 117.294 266.781 117.431C266.436 117.568 266.031 117.636 265.566 117.636ZM265.566 116.971C266.026 116.971 266.384 116.878 266.641 116.692C266.904 116.501 267.035 116.244 267.035 115.921C267.035 115.604 266.904 115.355 266.641 115.174C266.384 114.988 266.026 114.895 265.566 114.895C265.112 114.895 264.757 114.988 264.5 115.174C264.243 115.355 264.114 115.604 264.114 115.921C264.114 116.244 264.243 116.501 264.5 116.692C264.757 116.878 265.112 116.971 265.566 116.971ZM265.566 114.797C265.129 114.797 264.757 114.739 264.45 114.624C264.144 114.504 263.909 114.334 263.745 114.116C263.581 113.891 263.499 113.626 263.499 113.32C263.499 112.997 263.583 112.721 263.753 112.491C263.928 112.256 264.171 112.075 264.483 111.949C264.795 111.823 265.156 111.76 265.566 111.76C265.982 111.76 266.346 111.823 266.658 111.949C266.97 112.075 267.213 112.256 267.388 112.491C267.563 112.721 267.651 112.997 267.651 113.32C267.651 113.626 267.569 113.891 267.405 114.116C267.24 114.334 267.003 114.504 266.691 114.624C266.379 114.739 266.004 114.797 265.566 114.797ZM265.566 114.271C265.966 114.271 266.278 114.189 266.502 114.025C266.732 113.861 266.847 113.637 266.847 113.352C266.847 113.062 266.729 112.835 266.494 112.671C266.259 112.507 265.949 112.425 265.566 112.425C265.184 112.425 264.877 112.507 264.647 112.671C264.423 112.835 264.311 113.062 264.311 113.352C264.311 113.637 264.42 113.861 264.639 114.025C264.863 114.189 265.173 114.271 265.566 114.271ZM272.953 117.636C272.515 117.636 272.097 117.57 271.697 117.439C271.298 117.302 270.983 117.127 270.754 116.914L271.057 116.274C271.276 116.465 271.555 116.624 271.894 116.75C272.233 116.876 272.586 116.938 272.953 116.938C273.286 116.938 273.557 116.9 273.765 116.824C273.973 116.747 274.126 116.643 274.225 116.512C274.323 116.375 274.372 116.222 274.372 116.052C274.372 115.855 274.307 115.697 274.175 115.576C274.05 115.456 273.883 115.36 273.675 115.289C273.472 115.212 273.248 115.147 273.002 115.092C272.756 115.037 272.507 114.974 272.255 114.903C272.009 114.827 271.782 114.731 271.574 114.616C271.372 114.501 271.208 114.348 271.082 114.157C270.956 113.96 270.893 113.708 270.893 113.402C270.893 113.106 270.97 112.835 271.123 112.589C271.281 112.338 271.522 112.138 271.845 111.99C272.173 111.837 272.589 111.76 273.092 111.76C273.426 111.76 273.757 111.804 274.085 111.892C274.413 111.979 274.698 112.105 274.939 112.269L274.668 112.926C274.422 112.762 274.162 112.644 273.888 112.573C273.615 112.496 273.349 112.458 273.092 112.458C272.769 112.458 272.504 112.499 272.296 112.581C272.088 112.663 271.935 112.773 271.837 112.909C271.744 113.046 271.697 113.199 271.697 113.369C271.697 113.571 271.76 113.733 271.886 113.853C272.017 113.973 272.184 114.069 272.387 114.14C272.594 114.211 272.821 114.277 273.068 114.337C273.314 114.392 273.56 114.455 273.806 114.526C274.058 114.597 274.285 114.69 274.487 114.805C274.695 114.92 274.862 115.073 274.988 115.264C275.114 115.456 275.177 115.702 275.177 116.003C275.177 116.293 275.097 116.564 274.939 116.815C274.78 117.062 274.534 117.261 274.2 117.414C273.872 117.562 273.456 117.636 272.953 117.636ZM277.754 117.62C277.316 117.62 276.977 117.502 276.737 117.267C276.496 117.031 276.375 116.695 276.375 116.257V112.269H277.163V116.225C277.163 116.46 277.221 116.64 277.336 116.766C277.456 116.892 277.625 116.955 277.844 116.955C278.09 116.955 278.296 116.886 278.46 116.75L278.706 117.316C278.586 117.42 278.441 117.496 278.271 117.546C278.107 117.595 277.935 117.62 277.754 117.62ZM275.637 113.869V113.221H278.411V113.869H275.637ZM279.658 117.57V113.221H280.413V114.403L280.339 114.107C280.46 113.806 280.662 113.577 280.947 113.418C281.231 113.259 281.581 113.18 281.997 113.18V113.943C281.964 113.938 281.931 113.935 281.899 113.935C281.871 113.935 281.844 113.935 281.817 113.935C281.395 113.935 281.062 114.061 280.815 114.313C280.569 114.564 280.446 114.928 280.446 115.404V117.57H279.658ZM284.865 117.62C284.4 117.62 283.989 117.524 283.634 117.332C283.284 117.141 283.01 116.878 282.813 116.545C282.622 116.211 282.526 115.828 282.526 115.396C282.526 114.964 282.619 114.581 282.805 114.247C282.996 113.913 283.256 113.653 283.584 113.467C283.918 113.276 284.293 113.18 284.709 113.18C285.13 113.18 285.502 113.273 285.825 113.459C286.147 113.645 286.399 113.908 286.58 114.247C286.766 114.581 286.859 114.972 286.859 115.42C286.859 115.453 286.856 115.491 286.85 115.535C286.85 115.579 286.848 115.62 286.842 115.658H283.141V115.092H286.432L286.112 115.289C286.117 115.01 286.06 114.761 285.94 114.542C285.819 114.323 285.652 114.154 285.439 114.034C285.231 113.908 284.988 113.845 284.709 113.845C284.435 113.845 284.192 113.908 283.978 114.034C283.765 114.154 283.598 114.326 283.478 114.551C283.357 114.769 283.297 115.021 283.297 115.305V115.437C283.297 115.727 283.363 115.987 283.494 116.216C283.631 116.441 283.82 116.616 284.06 116.742C284.301 116.867 284.577 116.93 284.889 116.93C285.146 116.93 285.379 116.886 285.587 116.799C285.8 116.711 285.986 116.58 286.145 116.405L286.58 116.914C286.383 117.144 286.136 117.319 285.841 117.439C285.551 117.559 285.226 117.62 284.865 117.62ZM290.532 117.57V116.651L290.491 116.479V114.912C290.491 114.578 290.393 114.321 290.196 114.14C290.004 113.954 289.714 113.861 289.326 113.861C289.069 113.861 288.817 113.905 288.571 113.992C288.325 114.075 288.117 114.187 287.947 114.329L287.619 113.738C287.843 113.558 288.111 113.421 288.423 113.328C288.74 113.229 289.071 113.18 289.416 113.18C290.012 113.18 290.472 113.325 290.795 113.615C291.117 113.905 291.279 114.348 291.279 114.944V117.57H290.532ZM289.104 117.62C288.781 117.62 288.497 117.565 288.251 117.455C288.01 117.346 287.824 117.196 287.693 117.004C287.562 116.807 287.496 116.586 287.496 116.339C287.496 116.104 287.551 115.891 287.66 115.699C287.775 115.508 287.958 115.355 288.21 115.24C288.467 115.125 288.812 115.067 289.244 115.067H290.622V115.634H289.277C288.883 115.634 288.617 115.699 288.481 115.831C288.344 115.962 288.275 116.121 288.275 116.307C288.275 116.52 288.36 116.692 288.53 116.824C288.699 116.949 288.935 117.012 289.236 117.012C289.531 117.012 289.788 116.947 290.007 116.815C290.231 116.684 290.393 116.493 290.491 116.241L290.647 116.783C290.543 117.04 290.36 117.245 290.097 117.398C289.835 117.546 289.504 117.62 289.104 117.62ZM298.177 113.18C298.527 113.18 298.836 113.248 299.105 113.385C299.373 113.522 299.58 113.73 299.728 114.009C299.881 114.288 299.958 114.641 299.958 115.067V117.57H299.17V115.158C299.17 114.737 299.072 114.419 298.875 114.206C298.678 113.992 298.402 113.886 298.046 113.886C297.783 113.886 297.554 113.941 297.357 114.05C297.16 114.159 297.007 114.321 296.897 114.534C296.793 114.747 296.741 115.013 296.741 115.33V117.57H295.953V115.158C295.953 114.737 295.855 114.419 295.658 114.206C295.467 113.992 295.19 113.886 294.829 113.886C294.572 113.886 294.345 113.941 294.148 114.05C293.951 114.159 293.798 114.321 293.689 114.534C293.579 114.747 293.524 115.013 293.524 115.33V117.57H292.737V113.221H293.492V114.378L293.369 114.083C293.505 113.798 293.716 113.577 294 113.418C294.285 113.259 294.616 113.18 294.993 113.18C295.409 113.18 295.767 113.284 296.068 113.492C296.369 113.694 296.566 114.003 296.659 114.419L296.339 114.288C296.47 113.954 296.7 113.686 297.028 113.484C297.357 113.281 297.74 113.18 298.177 113.18ZM302.655 117.62C302.294 117.62 301.949 117.57 301.621 117.472C301.298 117.373 301.044 117.253 300.858 117.111L301.186 116.487C301.372 116.613 301.602 116.72 301.875 116.807C302.149 116.895 302.428 116.938 302.712 116.938C303.079 116.938 303.341 116.886 303.5 116.783C303.664 116.679 303.746 116.534 303.746 116.348C303.746 116.211 303.697 116.104 303.598 116.028C303.5 115.951 303.369 115.894 303.205 115.855C303.046 115.817 302.868 115.784 302.671 115.757C302.474 115.724 302.277 115.686 302.08 115.642C301.883 115.593 301.703 115.527 301.539 115.445C301.375 115.357 301.243 115.24 301.145 115.092C301.046 114.939 300.997 114.737 300.997 114.485C300.997 114.222 301.071 113.992 301.219 113.796C301.366 113.599 301.574 113.448 301.842 113.344C302.116 113.235 302.439 113.18 302.811 113.18C303.095 113.18 303.382 113.216 303.672 113.287C303.968 113.352 304.208 113.448 304.394 113.574L304.058 114.198C303.861 114.066 303.656 113.976 303.443 113.927C303.229 113.878 303.016 113.853 302.802 113.853C302.458 113.853 302.201 113.91 302.031 114.025C301.862 114.135 301.777 114.277 301.777 114.452C301.777 114.6 301.826 114.715 301.924 114.797C302.028 114.873 302.16 114.933 302.318 114.977C302.482 115.021 302.663 115.059 302.86 115.092C303.057 115.119 303.254 115.158 303.451 115.207C303.648 115.251 303.826 115.314 303.984 115.396C304.148 115.478 304.28 115.593 304.378 115.74C304.482 115.888 304.534 116.085 304.534 116.331C304.534 116.594 304.457 116.821 304.304 117.012C304.151 117.204 303.935 117.354 303.656 117.464C303.377 117.568 303.043 117.62 302.655 117.62ZM309.585 117.62C309.147 117.62 308.759 117.524 308.42 117.332C308.081 117.141 307.813 116.878 307.616 116.545C307.419 116.205 307.32 115.822 307.32 115.396C307.32 114.964 307.419 114.581 307.616 114.247C307.813 113.913 308.081 113.653 308.42 113.467C308.759 113.276 309.147 113.18 309.585 113.18C310.017 113.18 310.403 113.276 310.742 113.467C311.087 113.653 311.355 113.913 311.546 114.247C311.743 114.575 311.842 114.958 311.842 115.396C311.842 115.828 311.743 116.211 311.546 116.545C311.355 116.878 311.087 117.141 310.742 117.332C310.403 117.524 310.017 117.62 309.585 117.62ZM309.585 116.93C309.864 116.93 310.113 116.867 310.332 116.742C310.556 116.616 310.731 116.438 310.857 116.208C310.983 115.973 311.046 115.702 311.046 115.396C311.046 115.084 310.983 114.816 310.857 114.592C310.731 114.362 310.556 114.184 310.332 114.058C310.113 113.932 309.864 113.869 309.585 113.869C309.306 113.869 309.057 113.932 308.838 114.058C308.619 114.184 308.444 114.362 308.313 114.592C308.182 114.816 308.116 115.084 308.116 115.396C308.116 115.702 308.182 115.973 308.313 116.208C308.444 116.438 308.619 116.616 308.838 116.742C309.057 116.867 309.306 116.93 309.585 116.93ZM315.253 113.18C315.609 113.18 315.921 113.248 316.189 113.385C316.462 113.522 316.676 113.73 316.829 114.009C316.982 114.288 317.059 114.641 317.059 115.067V117.57H316.271V115.158C316.271 114.737 316.167 114.419 315.959 114.206C315.757 113.992 315.47 113.886 315.098 113.886C314.819 113.886 314.575 113.941 314.367 114.05C314.159 114.159 313.998 114.321 313.883 114.534C313.774 114.747 313.719 115.013 313.719 115.33V117.57H312.931V113.221H313.686V114.395L313.563 114.083C313.705 113.798 313.924 113.577 314.219 113.418C314.515 113.259 314.86 113.18 315.253 113.18ZM319.965 117.57L322.567 111.826H323.379L325.989 117.57H325.127L322.805 112.286H323.133L320.811 117.57H319.965ZM321.073 116.134L321.295 115.478H324.528L324.766 116.134H321.073ZM329.037 117.62C328.676 117.62 328.345 117.537 328.044 117.373C327.748 117.204 327.51 116.955 327.33 116.627C327.155 116.298 327.067 115.888 327.067 115.396C327.067 114.903 327.152 114.493 327.322 114.165C327.497 113.837 327.732 113.59 328.027 113.426C328.328 113.262 328.665 113.18 329.037 113.18C329.463 113.18 329.841 113.273 330.169 113.459C330.497 113.645 330.757 113.905 330.949 114.239C331.14 114.567 331.236 114.953 331.236 115.396C331.236 115.839 331.14 116.227 330.949 116.561C330.757 116.895 330.497 117.155 330.169 117.341C329.841 117.527 329.463 117.62 329.037 117.62ZM326.731 119.162V113.221H327.486V114.395L327.436 115.404L327.518 116.413V119.162H326.731ZM328.971 116.93C329.25 116.93 329.499 116.867 329.718 116.742C329.942 116.616 330.117 116.438 330.243 116.208C330.374 115.973 330.44 115.702 330.44 115.396C330.44 115.084 330.374 114.816 330.243 114.592C330.117 114.362 329.942 114.184 329.718 114.058C329.499 113.932 329.25 113.869 328.971 113.869C328.697 113.869 328.448 113.932 328.224 114.058C328.005 114.184 327.83 114.362 327.699 114.592C327.573 114.816 327.51 115.084 327.51 115.396C327.51 115.702 327.573 115.973 327.699 116.208C327.83 116.438 328.005 116.616 328.224 116.742C328.448 116.867 328.697 116.93 328.971 116.93ZM334.63 117.62C334.269 117.62 333.938 117.537 333.637 117.373C333.342 117.204 333.104 116.955 332.923 116.627C332.748 116.298 332.661 115.888 332.661 115.396C332.661 114.903 332.745 114.493 332.915 114.165C333.09 113.837 333.325 113.59 333.621 113.426C333.922 113.262 334.258 113.18 334.63 113.18C335.057 113.18 335.434 113.273 335.763 113.459C336.091 113.645 336.351 113.905 336.542 114.239C336.734 114.567 336.829 114.953 336.829 115.396C336.829 115.839 336.734 116.227 336.542 116.561C336.351 116.895 336.091 117.155 335.763 117.341C335.434 117.527 335.057 117.62 334.63 117.62ZM332.324 119.162V113.221H333.079V114.395L333.03 115.404L333.112 116.413V119.162H332.324ZM334.564 116.93C334.843 116.93 335.092 116.867 335.311 116.742C335.536 116.616 335.711 116.438 335.836 116.208C335.968 115.973 336.033 115.702 336.033 115.396C336.033 115.084 335.968 114.816 335.836 114.592C335.711 114.362 335.536 114.184 335.311 114.058C335.092 113.932 334.843 113.869 334.564 113.869C334.291 113.869 334.042 113.932 333.818 114.058C333.599 114.184 333.424 114.362 333.293 114.592C333.167 114.816 333.104 115.084 333.104 115.396C333.104 115.702 333.167 115.973 333.293 116.208C333.424 116.438 333.599 116.616 333.818 116.742C334.042 116.867 334.291 116.93 334.564 116.93ZM337.918 117.57V111.481H338.706V117.57H337.918ZM342.146 117.62C341.681 117.62 341.271 117.524 340.915 117.332C340.565 117.141 340.292 116.878 340.095 116.545C339.903 116.211 339.808 115.828 339.808 115.396C339.808 114.964 339.901 114.581 340.087 114.247C340.278 113.913 340.538 113.653 340.866 113.467C341.2 113.276 341.575 113.18 341.99 113.18C342.412 113.18 342.784 113.273 343.106 113.459C343.429 113.645 343.681 113.908 343.861 114.247C344.047 114.581 344.14 114.972 344.14 115.42C344.14 115.453 344.138 115.491 344.132 115.535C344.132 115.579 344.129 115.62 344.124 115.658H340.423V115.092H343.714L343.394 115.289C343.399 115.01 343.342 114.761 343.221 114.542C343.101 114.323 342.934 114.154 342.721 114.034C342.513 113.908 342.269 113.845 341.99 113.845C341.717 113.845 341.473 113.908 341.26 114.034C341.047 114.154 340.88 114.326 340.76 114.551C340.639 114.769 340.579 115.021 340.579 115.305V115.437C340.579 115.727 340.645 115.987 340.776 116.216C340.913 116.441 341.101 116.616 341.342 116.742C341.583 116.867 341.859 116.93 342.171 116.93C342.428 116.93 342.661 116.886 342.868 116.799C343.082 116.711 343.268 116.58 343.426 116.405L343.861 116.914C343.664 117.144 343.418 117.319 343.123 117.439C342.833 117.559 342.507 117.62 342.146 117.62ZM347.553 117.57V111.826H348.226L350.802 116.167H350.441L352.985 111.826H353.658L353.666 117.57H352.879L352.87 113.065H353.059L350.794 116.873H350.417L348.136 113.065H348.341V117.57H347.553ZM357.105 117.62C356.733 117.62 356.405 117.551 356.121 117.414C355.842 117.278 355.623 117.07 355.464 116.791C355.311 116.506 355.234 116.151 355.234 115.724V113.221H356.022V115.634C356.022 116.06 356.123 116.38 356.326 116.594C356.534 116.807 356.824 116.914 357.196 116.914C357.469 116.914 357.707 116.859 357.91 116.75C358.112 116.635 358.268 116.471 358.377 116.257C358.487 116.039 358.541 115.776 358.541 115.47V113.221H359.329V117.57H358.582V116.397L358.706 116.709C358.563 116.999 358.35 117.223 358.065 117.382C357.781 117.54 357.461 117.62 357.105 117.62ZM362.076 117.62C361.715 117.62 361.37 117.57 361.042 117.472C360.719 117.373 360.465 117.253 360.279 117.111L360.607 116.487C360.793 116.613 361.023 116.72 361.297 116.807C361.57 116.895 361.849 116.938 362.134 116.938C362.5 116.938 362.763 116.886 362.921 116.783C363.086 116.679 363.168 116.534 363.168 116.348C363.168 116.211 363.118 116.104 363.02 116.028C362.921 115.951 362.79 115.894 362.626 115.855C362.467 115.817 362.29 115.784 362.093 115.757C361.896 115.724 361.699 115.686 361.502 115.642C361.305 115.593 361.124 115.527 360.96 115.445C360.796 115.357 360.665 115.24 360.566 115.092C360.468 114.939 360.419 114.737 360.419 114.485C360.419 114.222 360.492 113.992 360.64 113.796C360.788 113.599 360.996 113.448 361.264 113.344C361.537 113.235 361.86 113.18 362.232 113.18C362.517 113.18 362.804 113.216 363.094 113.287C363.389 113.352 363.63 113.448 363.816 113.574L363.479 114.198C363.282 114.066 363.077 113.976 362.864 113.927C362.651 113.878 362.437 113.853 362.224 113.853C361.879 113.853 361.622 113.91 361.453 114.025C361.283 114.135 361.198 114.277 361.198 114.452C361.198 114.6 361.247 114.715 361.346 114.797C361.45 114.873 361.581 114.933 361.74 114.977C361.904 115.021 362.084 115.059 362.281 115.092C362.478 115.119 362.675 115.158 362.872 115.207C363.069 115.251 363.247 115.314 363.406 115.396C363.57 115.478 363.701 115.593 363.799 115.74C363.903 115.888 363.955 116.085 363.955 116.331C363.955 116.594 363.879 116.821 363.726 117.012C363.572 117.204 363.356 117.354 363.077 117.464C362.798 117.568 362.465 117.62 362.076 117.62ZM364.94 117.57V113.221H365.728V117.57H364.94ZM365.334 112.384C365.181 112.384 365.052 112.335 364.948 112.236C364.85 112.138 364.8 112.018 364.8 111.875C364.8 111.728 364.85 111.605 364.948 111.506C365.052 111.408 365.181 111.358 365.334 111.358C365.487 111.358 365.613 111.408 365.711 111.506C365.815 111.599 365.867 111.717 365.867 111.859C365.867 112.007 365.818 112.132 365.719 112.236C365.621 112.335 365.492 112.384 365.334 112.384ZM369.127 117.62C368.684 117.62 368.288 117.524 367.938 117.332C367.593 117.141 367.322 116.878 367.125 116.545C366.928 116.211 366.83 115.828 366.83 115.396C366.83 114.964 366.928 114.581 367.125 114.247C367.322 113.913 367.593 113.653 367.938 113.467C368.288 113.276 368.684 113.18 369.127 113.18C369.521 113.18 369.871 113.259 370.178 113.418C370.49 113.571 370.73 113.801 370.9 114.107L370.301 114.493C370.159 114.28 369.984 114.124 369.776 114.025C369.573 113.921 369.354 113.869 369.119 113.869C368.835 113.869 368.58 113.932 368.356 114.058C368.132 114.184 367.954 114.362 367.823 114.592C367.691 114.816 367.626 115.084 367.626 115.396C367.626 115.708 367.691 115.978 367.823 116.208C367.954 116.438 368.132 116.616 368.356 116.742C368.58 116.867 368.835 116.93 369.119 116.93C369.354 116.93 369.573 116.881 369.776 116.783C369.984 116.679 370.159 116.52 370.301 116.307L370.9 116.684C370.73 116.985 370.49 117.217 370.178 117.382C369.871 117.54 369.521 117.62 369.127 117.62Z" fill="white"/>
</g>
<defs>
<filter id="filter0_d_5_1267" x="86.2345" y="7.30371" width="239.091" height="191.565" filterUnits="userSpaceOnUse" color-interpolation-filters="sRGB">
<feFlood flood-opacity="0" result="BackgroundImageFix"/>
<feColorMatrix in="SourceAlpha" type="matrix" values="0 0 0 0 0 0 0 0 0 0 0 0 0 0 0 0 0 0 127 0" result="hardAlpha"/>
<feOffset dy="2.92466"/>
<feGaussianBlur stdDeviation="1.46233"/>
<feComposite in2="hardAlpha" operator="out"/>
<feColorMatrix type="matrix" values="0 0 0 0 0 0 0 0 0 0 0 0 0 0 0 0 0 0 0.25 0"/>
<feBlend mode="normal" in2="BackgroundImageFix" result="effect1_dropShadow_5_1267"/>
<feBlend mode="normal" in="SourceGraphic" in2="effect1_dropShadow_5_1267" result="shape"/>
</filter>
<linearGradient id="paint0_linear_5_1267" x1="30.0539" y1="150.659" x2="30.0539" y2="127.166" gradientUnits="userSpaceOnUse">
<stop stop-color="#FA233B"/>
<stop offset="1" stop-color="#FB5C74"/>
</linearGradient>
<linearGradient id="paint1_linear_5_1267" x1="235.877" y1="207.69" x2="235.877" y2="184.197" gradientUnits="userSpaceOnUse">
<stop stop-color="#FA233B"/>
<stop offset="1" stop-color="#FB5C74"/>
</linearGradient>
<linearGradient id="paint2_linear_5_1267" x1="231.489" y1="126.53" x2="231.489" y2="103.037" gradientUnits="userSpaceOnUse">
<stop stop-color="#FA233B"/>
<stop offset="1" stop-color="#FB5C74"/>
</linearGradient>
<clipPath id="clip0_5_1267">
<rect width="398" height="231" fill="white"/>
</clipPath>
<clipPath id="clip1_5_1267">
<rect x="80.4707" y="39.0557" width="250.621" height="208.359" rx="15.7252" fill="white"/>
</clipPath>
</defs>
</svg>
