<svg width="24" height="24" viewBox="0 0 24 24" fill="none" xmlns="http://www.w3.org/2000/svg">
<path fill-rule="evenodd" clip-rule="evenodd" d="M21 7.986C20.999 7.80497 20.996 7.62396 20.991 7.443C20.9856 7.04697 20.9509 6.65188 20.887 6.261C20.8202 5.86972 20.6955 5.49056 20.517 5.136C20.1543 4.42455 19.5757 3.84624 18.864 3.484C18.5098 3.30528 18.131 3.18024 17.74 3.113C17.3491 3.04912 16.954 3.01436 16.558 3.009C16.377 3.00437 16.196 3.0017 16.015 3.001L15.37 3H8.63L7.986 3.001C7.80467 3.00167 7.62367 3.00433 7.443 3.009C7.04661 3.01464 6.65119 3.04974 6.26 3.114C5.8694 3.18102 5.49094 3.30572 5.137 3.484C4.426 3.84762 3.84762 4.426 3.484 5.137C3.301 5.497 3.184 5.865 3.113 6.261C3.043 6.651 3.019 7.049 3.009 7.443C3.00433 7.62433 3.00167 7.80533 3.001 7.986L3 8.631V15.369L3.001 16.014C3.00167 16.1947 3.00433 16.3757 3.009 16.557C3.019 16.952 3.043 17.349 3.113 17.739C3.184 18.135 3.301 18.504 3.483 18.864C3.84593 19.5756 4.42496 20.1539 5.137 20.516C5.497 20.699 5.865 20.816 6.26 20.886C6.65 20.956 7.048 20.98 7.443 20.991C7.623 20.9957 7.804 20.9983 7.986 20.999H16.014C16.1947 20.9983 16.3757 20.9957 16.557 20.991C16.9534 20.9857 17.3488 20.9509 17.74 20.887C18.1306 20.82 18.5091 20.6953 18.863 20.517C19.574 20.1534 20.1524 19.575 20.516 18.864C20.699 18.504 20.816 18.135 20.886 17.739C20.956 17.349 20.98 16.951 20.991 16.557C20.9957 16.377 20.9983 16.196 20.999 16.014L21 7.986ZM16.177 14.713C16.177 14.941 16.175 15.148 16.127 15.376C16.0823 15.5987 15.995 15.8047 15.865 15.994C15.735 16.1787 15.5673 16.3338 15.373 16.449C15.1789 16.5594 14.9676 16.6364 14.748 16.677C14.333 16.76 14.049 16.779 13.782 16.726C13.539 16.6782 13.314 16.564 13.132 16.396C12.8776 16.1639 12.7163 15.8472 12.678 15.505C12.6577 15.3017 12.6814 15.0964 12.7477 14.9031C12.814 14.7098 12.9212 14.5331 13.062 14.385C13.21 14.23 13.397 14.107 13.646 14.01C13.906 13.91 14.194 13.849 14.636 13.76L14.986 13.69C15.138 13.658 15.27 13.62 15.376 13.49C15.482 13.36 15.484 13.2 15.484 13.044V9.079C15.484 8.776 15.348 8.693 15.058 8.749C14.851 8.789 10.404 9.686 10.404 9.686C10.153 9.746 10.064 9.829 10.064 10.14V15.948C10.064 16.176 10.053 16.383 10.005 16.611C9.959 16.832 9.874 17.041 9.743 17.228C9.61306 17.4131 9.44538 17.5685 9.251 17.684C9.05699 17.7951 8.84572 17.8728 8.626 17.914C8.211 17.998 7.927 18.017 7.66 17.964C7.41675 17.9145 7.19184 17.799 7.01 17.63C6.75843 17.3975 6.60081 17.0809 6.567 16.74C6.54454 16.5374 6.56626 16.3324 6.63065 16.1391C6.69504 15.9457 6.80058 15.7686 6.94 15.62C7.088 15.465 7.275 15.342 7.524 15.245C7.784 15.144 8.072 15.083 8.514 14.995L8.864 14.924C9.016 14.893 9.148 14.854 9.254 14.724C9.36 14.594 9.372 14.442 9.372 14.286V7.59C9.372 7.5 9.38 7.44 9.384 7.41C9.39832 7.27556 9.46255 7.15138 9.564 7.062C9.66123 6.98517 9.77598 6.93364 9.898 6.912H9.9L15.25 5.832C15.296 5.822 15.683 5.754 15.726 5.75C16.016 5.725 16.178 5.915 16.178 6.223L16.177 14.713Z" fill="#EF0C5C"/>
</svg>
