<svg width="36" height="32" viewBox="0 0 36 32" fill="none" xmlns="http://www.w3.org/2000/svg">
<path d="M28.8 6.4002C28.4848 6.4002 28.1727 6.46227 27.8815 6.58289C27.5903 6.7035 27.3258 6.88028 27.1029 7.10314C26.88 7.326 26.7033 7.59058 26.5826 7.88176C26.462 8.17294 26.4 8.48502 26.4 8.8002C26.4 9.11537 26.462 9.42746 26.5826 9.71864C26.7033 10.0098 26.88 10.2744 27.1029 10.4973C27.3258 10.7201 27.5903 10.8969 27.8815 11.0175C28.1727 11.1381 28.4848 11.2002 28.8 11.2002C29.4365 11.2002 30.0469 10.9473 30.497 10.4973C30.9471 10.0472 31.2 9.43672 31.2 8.8002C31.2 8.16368 30.9471 7.55323 30.497 7.10314C30.0469 6.65305 29.4365 6.4002 28.8 6.4002ZM24.8 8.8002C24.8002 7.94312 25.0757 7.10877 25.5859 6.4201C26.0961 5.73143 26.8141 5.22485 27.6339 4.975C28.4538 4.72515 29.3322 4.74525 30.1398 5.03233C30.9473 5.31941 31.6413 5.8583 32.1195 6.56959C32.5977 7.28087 32.8348 8.12694 32.7958 8.98314C32.7568 9.83933 32.4439 10.6604 31.9031 11.3253C31.3623 11.9902 30.6222 12.4638 29.7919 12.6763C28.9615 12.8889 28.0849 12.8291 27.2912 12.5058L25.24 15.5826C25.63 15.9766 25.9338 16.4475 26.1322 16.9652C26.3306 17.4829 26.4192 18.0363 26.3924 18.59C26.3656 19.1438 26.2239 19.686 25.9764 20.1821C25.7289 20.6783 25.3809 21.1175 24.9547 21.472C24.5284 21.8265 24.033 22.0885 23.5001 22.2414C22.9671 22.3943 22.4082 22.4347 21.8588 22.3601C21.3094 22.2855 20.7815 22.0975 20.3087 21.808C19.8358 21.5186 19.4283 21.1339 19.112 20.6786L15.1184 22.3906C15.1717 22.653 15.1989 22.9229 15.2 23.2002C15.1998 24.1564 14.8572 25.081 14.234 25.8064C13.6109 26.5317 12.7485 27.0098 11.8032 27.154C10.8579 27.2982 9.89217 27.099 9.0811 26.5925C8.27003 26.0859 7.66726 25.3056 7.38203 24.3928C7.09681 23.4801 7.148 22.4954 7.52633 21.6172C7.90466 20.739 8.5851 20.0253 9.44432 19.6056C10.3035 19.1859 11.2847 19.0879 12.21 19.3294C13.1352 19.5708 13.9434 20.1358 14.488 20.9218L18.4816 19.2098C18.3345 18.4997 18.3832 17.763 18.6225 17.0785C18.8618 16.3939 19.2827 15.7873 19.8402 15.3235C20.3976 14.8597 21.0707 14.5562 21.7873 14.4454C22.504 14.3347 23.2373 14.4208 23.9088 14.6946L25.96 11.6178C25.2167 10.8684 24.7997 9.85566 24.8 8.8002ZM20 18.4002C20 19.0367 20.2528 19.6472 20.7029 20.0973C21.153 20.5473 21.7634 20.8002 22.4 20.8002C23.0365 20.8002 23.6469 20.5473 24.097 20.0973C24.5471 19.6472 24.8 19.0367 24.8 18.4002C24.8 17.7637 24.5471 17.1532 24.097 16.7031C23.6469 16.2531 23.0365 16.0002 22.4 16.0002C21.7634 16.0002 21.153 16.2531 20.7029 16.7031C20.2528 17.1532 20 17.7637 20 18.4002ZM8.79995 23.2002C8.79995 23.8367 9.05281 24.4472 9.5029 24.8973C9.95298 25.3473 10.5634 25.6002 11.2 25.6002C11.8365 25.6002 12.4469 25.3473 12.897 24.8973C13.3471 24.4472 13.6 23.8367 13.6 23.2002C13.6 22.5637 13.3471 21.9532 12.897 21.5031C12.4469 21.0531 11.8365 20.8002 11.2 20.8002C10.5634 20.8002 9.95298 21.0531 9.5029 21.5031C9.05281 21.9532 8.79995 22.5637 8.79995 23.2002Z" fill="white"/>
</svg>
