<svg width="24" height="24" viewBox="0 0 24 24" fill="none" xmlns="http://www.w3.org/2000/svg">
<path d="M12 2C10.6868 2 9.38642 2.25866 8.17317 2.7612C6.95991 3.26375 5.85752 4.00035 4.92893 4.92893C3.05357 6.8043 2 9.34784 2 12C2 14.6522 3.05357 17.1957 4.92893 19.0711C5.85752 19.9997 6.95991 20.7362 8.17317 21.2388C9.38642 21.7413 10.6868 22 12 22C14.6522 22 17.1957 20.9464 19.0711 19.0711C20.9464 17.1957 22 14.6522 22 12C22 10.6868 21.7413 9.38642 21.2388 8.17317C20.7362 6.95991 19.9997 5.85752 19.0711 4.92893C18.1425 4.00035 17.0401 3.26375 15.8268 2.7612C14.6136 2.25866 13.3132 2 12 2ZM12 6.773C13.3686 6.79977 14.6721 7.36224 15.6305 8.33957C16.5889 9.31691 17.1257 10.6312 17.1257 12C17.1257 13.3688 16.5889 14.6831 15.6305 15.6604C14.6721 16.6378 13.3686 17.2002 12 17.227C10.6314 17.2002 9.32793 16.6378 8.36952 15.6604C7.41111 14.6831 6.87425 13.3688 6.87425 12C6.87425 10.6312 7.41111 9.31691 8.36952 8.33957C9.32793 7.36224 10.6314 6.79977 12 6.773ZM12 7.228C10.735 7.23012 9.52249 7.73356 8.62802 8.62802C7.73356 9.52249 7.23012 10.735 7.228 12C7.228 13.2657 7.73073 14.4796 8.62563 15.3747C9.52052 16.2697 10.7343 16.7727 12 16.773C13.2659 16.773 14.4799 16.2701 15.375 15.375C16.2701 14.4799 16.773 13.2659 16.773 12C16.7709 10.7349 16.2673 9.52216 15.3726 8.62767C14.4779 7.73318 13.2651 7.22985 12 7.228ZM10.182 9.386L14.613 11.886L10.182 14.613V9.386Z" fill="#C30100"/>
</svg>
