<svg width="297" height="72" viewBox="0 0 297 72" fill="none" xmlns="http://www.w3.org/2000/svg">
<g clip-path="url(#clip0_420_1547)">
<path d="M124.355 70.6574V22.3394H124.041L104.6 70.6574H97.1782L77.6907 22.3394H77.3794V70.6574H68.2618V5.00606H79.8377L100.71 57.3246H101.068L121.894 5.00964H133.516V70.6609L124.355 70.6574ZM183.931 70.6574H174.677V62.5597H174.455C171.861 68.2921 167.081 71.5197 159.885 71.5197C149.651 71.5197 143.389 64.7424 143.389 53.7785V22.7939H153.043V51.8677C153.043 59.1459 156.442 63.057 163.098 63.057C170.076 63.057 174.277 58.144 174.277 50.6832V22.7939H183.927L183.931 70.6574ZM210.389 21.9279C221.338 21.9279 228.445 28.1184 228.76 36.9425H219.685C219.149 32.305 215.796 29.3923 210.389 29.3923C205.157 29.3923 201.672 31.983 201.672 35.8082C201.672 38.8104 203.819 40.8536 208.911 42.038L216.554 43.8129C226.166 46.0887 229.83 49.9103 229.83 56.8236C229.83 65.5619 221.829 71.5663 210.747 71.5663C198.992 71.5663 191.925 65.6978 191.034 56.5982H200.599C201.493 61.6007 204.846 64.059 210.747 64.059C216.554 64.059 220.133 61.6007 220.133 57.6896C220.133 54.5943 218.39 52.7765 213.248 51.5921L205.605 49.7743C196.666 47.681 192.24 43.3119 192.24 36.3557C192.24 27.7999 199.572 21.9279 210.389 21.9279ZM236.528 10.1481C236.528 7.00634 239.033 4.5051 242.114 4.5051C245.199 4.5051 247.661 7.00992 247.661 10.1481C247.661 13.2398 245.199 15.7875 242.114 15.7875C240.628 15.7752 239.206 15.1753 238.16 14.1187C237.115 13.0622 236.526 11.6348 236.528 10.1481ZM237.287 22.7939H246.941V70.6574H237.287V22.7939ZM287.702 39.2648C286.718 34.1693 282.964 30.1187 276.663 30.1187C269.198 30.1187 264.282 36.4415 264.282 46.722C264.282 57.2351 269.241 63.3326 276.752 63.3326C282.692 63.3326 286.585 60.0119 287.702 54.4584H297.002C295.975 64.6494 287.974 71.5663 276.666 71.5663C263.212 71.5663 254.452 62.1911 254.452 46.7256C254.452 31.5285 263.212 21.9279 276.577 21.9279C288.689 21.9279 296.064 29.8467 296.912 39.2648H287.702ZM38.7336 11.4112C36.2359 14.3956 32.2747 16.7644 28.31 16.4137C27.7911 12.3774 29.7771 8.07625 32.0171 5.44619C34.5112 2.36884 38.8195 0.178916 42.3513 0C42.7842 4.21525 41.149 8.33747 38.7372 11.4148L38.7336 11.4112ZM42.3083 17.2045C44.5412 17.3799 50.9857 18.0776 55.1115 24.2896C54.768 24.5544 47.4647 28.8412 47.5506 37.8514C47.6364 48.6221 56.8291 52.2076 56.915 52.2971C56.8291 52.5618 55.4586 57.3747 52.1058 62.3593C49.1823 66.7391 46.1765 71.0259 41.3637 71.1154C36.7226 71.2013 35.1732 68.3136 29.8486 68.3136C24.5205 68.3136 22.7994 71.0259 18.4195 71.2013C13.7784 71.373 10.261 66.5602 7.33748 62.1839C1.31875 53.3455 -3.23286 37.2431 2.95404 26.3901C5.95983 20.9653 11.4597 17.5516 17.389 17.4622C21.9442 17.3799 26.1558 20.5288 28.904 20.5288C31.6557 20.5288 36.5508 16.8574 42.3083 17.2045Z" fill="#686560" fill-opacity="0.39"/>
</g>
<defs>
<clipPath id="clip0_420_1547">
<rect width="297" height="71.5663" fill="white"/>
</clipPath>
</defs>
</svg>
