<svg width="67" height="68" viewBox="0 0 67 68" fill="none" xmlns="http://www.w3.org/2000/svg">
<g filter="url(#filter0_d_1_6433)">
<ellipse cx="33.1431" cy="32.3491" rx="31.5552" ry="32.3491" fill="#524643" fill-opacity="0.2" shape-rendering="crispEdges"/>
</g>
<path fill-rule="evenodd" clip-rule="evenodd" d="M56.6397 23.553C56.6397 22.9917 56.6397 22.4304 56.6371 21.8691C56.6345 21.3966 56.6292 20.924 56.6162 20.4515C56.5888 19.4216 56.5274 18.3838 56.3447 17.3657C56.1593 16.3318 55.8552 15.3698 55.3774 14.4299C54.9075 13.5071 54.294 12.6638 53.5618 11.9315C52.8295 11.1992 51.9849 10.5857 51.0621 10.1158C50.1236 9.63803 49.1616 9.33519 48.129 9.14852C47.1109 8.96578 46.0719 8.90442 45.042 8.87701C44.5695 8.86396 44.0969 8.85874 43.6244 8.85613C43.0631 8.85352 42.5018 8.85352 41.9406 8.85352H24.3476C23.7863 8.85352 23.225 8.85352 22.6637 8.85613C22.1912 8.85874 21.7187 8.86396 21.2461 8.87701C20.2162 8.90573 19.1772 8.96578 18.1591 9.14983C17.1253 9.33519 16.1646 9.63933 15.226 10.1171C14.3032 10.587 13.4586 11.2005 12.7264 11.9328C11.9941 12.6651 11.3806 13.5084 10.9107 14.4312C10.4329 15.3711 10.1288 16.3331 9.94344 17.367C9.76069 18.3851 9.69934 19.4242 9.67193 20.4528C9.65888 20.9253 9.65366 21.3979 9.65105 21.8704C9.64844 22.4304 9.64844 22.9917 9.64844 23.553V41.1451C9.64844 41.7064 9.64844 42.2677 9.65105 42.829C9.65366 43.3015 9.65888 43.7741 9.67193 44.2466C9.69934 45.2765 9.76069 46.3143 9.94344 47.3324C10.1288 48.3662 10.4329 49.3283 10.9107 50.2681C11.3806 51.191 11.9941 52.0343 12.7264 52.7666C13.4586 53.4989 14.3032 54.1124 15.226 54.5823C16.1646 55.0601 17.1266 55.3629 18.1591 55.5496C19.1772 55.7323 20.2162 55.7937 21.2461 55.8211C21.7187 55.8341 22.1912 55.8393 22.6637 55.8419C23.225 55.8459 23.7863 55.8446 24.3476 55.8446H41.9393C42.5005 55.8446 43.0618 55.8446 43.6231 55.8419C44.0956 55.8393 44.5682 55.8341 45.0407 55.8211C46.0706 55.7937 47.1096 55.7323 48.1277 55.5496C49.1616 55.3642 50.1223 55.0601 51.0608 54.5823C51.9836 54.1124 52.8282 53.4989 53.5605 52.7666C54.2927 52.0343 54.9062 51.191 55.3761 50.2681C55.8539 49.3283 56.158 48.3662 56.3434 47.3324C56.5261 46.3143 56.5875 45.2752 56.6149 44.2466C56.6279 43.7741 56.6332 43.3015 56.6358 42.829C56.6397 42.2677 56.6384 41.7064 56.6384 41.1451V23.553H56.6397Z" fill="url(#paint0_linear_1_6433)"/>
<path fill-rule="evenodd" clip-rule="evenodd" d="M44.5203 15.6561C44.4068 15.6666 43.3978 15.8454 43.2764 15.8702L29.3095 18.6884L29.3043 18.6898C28.9401 18.7668 28.6543 18.896 28.4337 19.0814C28.1674 19.3046 28.0199 19.6205 27.9638 19.9886C27.952 20.0669 27.9324 20.2261 27.9324 20.4611C27.9324 20.4611 27.9324 34.7311 27.9324 37.9423C27.9324 38.3508 27.8998 38.7477 27.6231 39.0857C27.3463 39.4238 27.0044 39.5256 26.6036 39.6066C26.2995 39.6679 25.9953 39.7293 25.6912 39.7906C24.5373 40.023 23.7868 40.1809 23.1067 40.4446C22.4566 40.6965 21.9698 41.0176 21.5821 41.4249C20.8133 42.2303 20.5013 43.3229 20.6083 44.3463C20.6997 45.2195 21.0926 46.055 21.7674 46.6724C22.223 47.0901 22.7921 47.4073 23.463 47.5417C24.1588 47.6814 24.9002 47.6331 25.9836 47.4138C26.5605 47.2977 27.1009 47.1162 27.6152 46.8121C28.1243 46.5118 28.5603 46.1111 28.901 45.6229C29.243 45.1334 29.4636 44.5891 29.585 44.0108C29.7103 43.4143 29.7403 42.8751 29.7403 42.2799V27.1184C29.7403 26.3064 29.97 26.0924 30.6253 25.9331C30.6253 25.9331 42.2347 23.5913 42.7764 23.4856C43.5322 23.3407 43.8886 23.5561 43.8886 24.3484V34.6985C43.8886 35.1084 43.8847 35.5235 43.6053 35.8628C43.3286 36.2009 42.9866 36.3027 42.5859 36.3837C42.2817 36.445 41.9776 36.5064 41.6735 36.5677C40.5196 36.8001 39.769 36.958 39.0889 37.2217C38.4389 37.4736 37.952 37.7948 37.5643 38.202C36.7955 39.0074 36.4561 40.1 36.5632 41.1234C36.6545 41.9967 37.0748 42.8321 37.7497 43.4495C38.2052 43.8672 38.7744 44.1753 39.4453 44.311C40.141 44.4507 40.8824 44.4011 41.9658 44.1831C42.5428 44.0669 43.0832 43.8933 43.5975 43.5892C44.1066 43.2889 44.5425 42.8882 44.8832 42.4C45.2252 41.9105 45.4458 41.3662 45.5672 40.7879C45.6925 40.1914 45.6977 39.6523 45.6977 39.057V16.891C45.7003 16.0869 45.2761 15.5909 44.5203 15.6561Z" fill="white"/>
<defs>
<filter id="filter0_d_1_6433" x="0.000206828" y="0" width="66.2867" height="67.8736" filterUnits="userSpaceOnUse" color-interpolation-filters="sRGB">
<feFlood flood-opacity="0" result="BackgroundImageFix"/>
<feColorMatrix in="SourceAlpha" type="matrix" values="0 0 0 0 0 0 0 0 0 0 0 0 0 0 0 0 0 0 127 0" result="hardAlpha"/>
<feOffset dy="1.58768"/>
<feGaussianBlur stdDeviation="0.793842"/>
<feComposite in2="hardAlpha" operator="out"/>
<feColorMatrix type="matrix" values="0 0 0 0 0 0 0 0 0 0 0 0 0 0 0 0 0 0 0.25 0"/>
<feBlend mode="normal" in2="BackgroundImageFix" result="effect1_dropShadow_1_6433"/>
<feBlend mode="normal" in="BackgroundImageFix" in2="effect1_dropShadow_1_6433" result="BackgroundImageFix"/>
<feBlend mode="normal" in="SourceGraphic" in2="BackgroundImageFix" result="shape"/>
</filter>
<linearGradient id="paint0_linear_1_6433" x1="33.1441" y1="55.6637" x2="33.1441" y2="9.86628" gradientUnits="userSpaceOnUse">
<stop stop-color="#FA233B"/>
<stop offset="1" stop-color="#FB5C74"/>
</linearGradient>
</defs>
</svg>
