<svg width="43" height="6" viewBox="0 0 43 6" fill="none" xmlns="http://www.w3.org/2000/svg">
<g clip-path="url(#clip0_910_15044)">
<path fill-rule="evenodd" clip-rule="evenodd" d="M15.7719 5.0927H16.8586V1.6527H15.7719V3.62131C15.7723 3.84999 15.7139 4.03076 15.5966 4.16361C15.4793 4.2969 15.3232 4.36354 15.1282 4.36354C14.7327 4.36332 14.535 4.12049 14.535 3.63503V1.6527H13.4482V3.72944C13.4482 4.69382 13.8567 5.17666 14.6764 5.17666C15.1265 5.17666 15.4862 4.97412 15.7553 4.56903H15.7719V5.0927ZM12.0289 5.0927H13.0599V3.03654C13.0597 2.05823 12.5563 1.56896 11.5497 1.56874C11.3328 1.56831 11.0929 1.59738 10.8301 1.65597C10.5666 1.71445 10.3594 1.78076 10.2076 1.85786V2.65693C10.5868 2.41301 10.9867 2.29105 11.4074 2.29105C11.8265 2.29105 12.0361 2.47911 12.0361 2.85523L11.0764 2.97937C10.2651 3.08239 9.85938 3.46755 9.85938 4.13486C9.85938 4.45044 9.9571 4.70395 10.1535 4.89277C10.3496 5.08203 10.6196 5.17655 10.9634 5.17633C11.4272 5.17633 11.7777 4.98359 12.0146 4.5981H12.0286L12.0289 5.0927ZM12.0354 3.46319V3.69481C12.0352 3.90607 11.9709 4.0803 11.8426 4.21751C11.7129 4.35537 11.5471 4.42398 11.3422 4.42398C11.1952 4.42354 11.0783 4.38499 10.9914 4.30833C10.9496 4.27123 10.9164 4.22537 10.8942 4.174C10.8721 4.12263 10.8614 4.067 10.863 4.01105C10.863 3.74404 11.04 3.58821 11.394 3.54356L12.0354 3.46319ZM19.7223 5.0927H20.8126V0H19.7223V2.04571H19.7093C19.5297 1.7273 19.2124 1.56831 18.7574 1.56874C18.2771 1.56874 17.8885 1.73993 17.5919 2.08229C17.2954 2.42531 17.1471 2.88093 17.1469 3.44915C17.1467 3.99428 17.2813 4.41821 17.5508 4.72093C17.8193 5.02475 18.1743 5.17655 18.6161 5.17633C19.0964 5.17633 19.461 4.99056 19.7096 4.61901H19.7227L19.7223 5.0927ZM19.7435 3.16036V3.41942C19.7435 3.70385 19.674 3.93253 19.535 4.10546C19.396 4.27751 19.216 4.36354 18.9949 4.36354C18.7632 4.36354 18.5816 4.28165 18.4503 4.11787C18.3193 3.9554 18.2537 3.72258 18.2535 3.41942C18.2537 3.09731 18.3216 2.84358 18.4571 2.65824C18.5928 2.47377 18.7815 2.38165 19.0233 2.38187C19.2365 2.38165 19.4099 2.45537 19.5435 2.60303C19.6766 2.75113 19.7433 2.9369 19.7435 3.16036ZM21.3873 0.948695C21.5046 1.05498 21.6552 1.10801 21.8391 1.10779C22.0248 1.10779 22.1769 1.05617 22.2919 0.954249C22.4088 0.851016 22.467 0.718708 22.4665 0.557326C22.4667 0.398339 22.4086 0.268427 22.2922 0.16759C22.1765 0.066535 22.0254 0.0160076 21.8391 0.0160076C21.6554 0.0160076 21.5048 0.066535 21.3873 0.16759C21.2694 0.268536 21.2117 0.397903 21.2117 0.557326C21.2117 0.712175 21.2694 0.841869 21.3873 0.948695ZM22.4737 4.25769C22.402 4.18321 22.3662 4.07181 22.3662 3.92611V1.65238H21.2837V4.16132C21.2837 4.31813 21.3068 4.45948 21.3531 4.58536C21.3989 4.71059 21.4635 4.81731 21.5469 4.90551C21.632 4.99481 21.7333 5.06276 21.8508 5.10936C21.9696 5.15619 22.1016 5.17949 22.2466 5.17927C22.404 5.17927 22.5574 5.16947 22.703 5.14726C22.849 5.12657 22.9875 5.09945 23.1187 5.06591V4.31944L23.1096 4.32107C23.0525 4.3324 22.9956 4.34296 22.9389 4.35276C22.8798 4.36405 22.8198 4.36984 22.7597 4.37007C22.6407 4.36986 22.5454 4.3324 22.4737 4.25769ZM23.4532 4.69447C23.7899 5.0155 24.2524 5.17601 24.841 5.17601C25.4388 5.17601 25.9097 5.01049 26.2535 4.67945C26.5972 4.34775 26.769 3.89638 26.7688 3.32533C26.7686 2.79632 26.6019 2.37119 26.2688 2.04995C25.9356 1.72893 25.4758 1.56842 24.8892 1.56842C24.2939 1.56842 23.8216 1.72893 23.4721 2.04995C23.1225 2.37141 22.9478 2.81679 22.948 3.3861C22.948 3.93624 23.1167 4.37334 23.4532 4.69447ZM24.2686 2.63962C24.4109 2.46757 24.6109 2.38154 24.8687 2.38154C25.3949 2.38132 25.6581 2.70278 25.6583 3.34591C25.6581 4.02368 25.3973 4.36267 24.8758 4.36289C24.3283 4.36289 24.0545 4.03272 24.0543 3.37238C24.0543 3.05658 24.1257 2.81233 24.2686 2.63962ZM31.5773 5.09238H32.6637V2.95258C32.6637 2.02959 32.28 1.5682 31.5125 1.56842C30.9908 1.56842 30.5955 1.78207 30.3264 2.20938C30.1422 1.78185 29.8008 1.5682 29.3022 1.56842C29.0607 1.56842 28.8381 1.62613 28.6344 1.74156C28.4308 1.8559 28.2731 2.00618 28.1601 2.18977H28.1461V1.65238H27.0571V5.09238H28.1461V3.18127C28.1463 2.93451 28.2025 2.73948 28.3145 2.59617C28.4255 2.45308 28.5743 2.38165 28.7608 2.38187C29.1299 2.38187 29.3159 2.62492 29.3159 3.11005V5.0927H30.4049V3.16722C30.4049 2.94355 30.4614 2.75657 30.5743 2.6063C30.6872 2.45624 30.8332 2.38143 31.0121 2.38187C31.3891 2.38187 31.5775 2.63145 31.5773 3.13063V5.09238ZM36.0457 5.09238H35.0144V4.5981H35.0004C34.7637 4.98337 34.4134 5.17601 33.9495 5.17601C33.6059 5.17601 33.336 5.0816 33.1396 4.89277C32.9431 4.70308 32.8449 4.45044 32.8452 4.13486C32.8454 3.46733 33.2511 3.08195 34.0622 2.97872L35.0215 2.85491C35.0215 2.47878 34.8121 2.29072 34.3932 2.29072C33.9727 2.29072 33.5729 2.41268 33.1937 2.65661V1.85786C33.3451 1.78098 33.5526 1.71368 33.8162 1.65597C34.0522 1.60094 34.2933 1.5717 34.5355 1.56874C35.5423 1.56896 36.0457 2.05823 36.0457 3.03654V5.09238ZM35.0215 3.69416V3.46287L34.3801 3.54291C34.0261 3.58799 33.8491 3.74404 33.8491 4.01105C33.8491 4.13192 33.892 4.23091 33.9778 4.308C34.0647 4.38488 34.1815 4.42343 34.3283 4.42365C34.5329 4.42365 34.6997 4.35483 34.8287 4.21719C34.9568 4.07998 35.0211 3.90575 35.0215 3.69449M39.1652 4.96856C38.9191 5.10729 38.564 5.17655 38.1 5.17633C37.5575 5.17677 37.1184 5.01669 36.7829 4.69611C36.4472 4.37617 36.2792 3.96281 36.279 3.45601C36.279 2.87124 36.4591 2.41159 36.8181 2.07413C37.1784 1.73721 37.6599 1.56874 38.2625 1.56874C38.6782 1.56896 38.9791 1.62243 39.1652 1.72915V2.63047C38.9451 2.46685 38.6778 2.37958 38.4039 2.38187C38.0905 2.38187 37.8436 2.47007 37.6599 2.64877C37.477 2.82648 37.3856 3.07226 37.3856 3.3861C37.3856 3.68991 37.4738 3.9297 37.6481 4.10285C37.8221 4.2773 38.0635 4.36321 38.3684 4.36321C38.6398 4.36343 38.9054 4.28056 39.1652 4.11461V4.96856ZM41.6914 5.0927H42.9997L41.6435 3.26816L42.9088 1.65238H41.6165L40.5643 3.24203H40.55V0H39.4613V5.0927H40.55V3.3861H40.5643L41.6914 5.0927Z" fill="white"/>
<path fill-rule="evenodd" clip-rule="evenodd" d="M0.112408 2.86873C0.112408 2.86873 0.295484 2.83867 0.37106 2.91773C0.446636 2.99679 0.39712 3.16046 0.296787 3.1634C0.196454 3.16601 0.103939 3.18463 0.0381356 3.11439C0.0209987 3.09517 0.00908224 3.07185 0.00353239 3.04667C-0.00201745 3.02149 -0.001014 2.99531 0.00644625 2.97063C0.0139065 2.94596 0.0275725 2.92362 0.04613 2.90577C0.0646875 2.88793 0.087512 2.87517 0.112408 2.86873ZM2.10051 3.98599C2.08292 3.98795 2.06435 3.97978 2.04513 3.96639C1.91385 3.78247 1.86629 3.15458 1.80602 3.11701C1.74348 3.07813 1.51708 3.46493 1.06688 3.42344C0.87859 3.40612 0.687045 3.28362 0.574333 3.19901C0.584757 3.05624 0.586386 2.72302 0.866863 2.83116C1.03723 2.89715 1.32911 3.0778 1.58516 2.75308C1.86857 2.39438 2.02493 2.49826 2.11842 2.57667C2.21224 2.65442 2.1497 3.06016 2.28945 2.9468C2.4292 2.83344 2.99341 2.12911 2.99341 2.12911C2.99341 2.12911 3.42992 1.6871 3.49703 2.15198C3.56414 2.61652 3.84885 3.13171 3.92442 3.11701C4 3.10231 4.87857 1.30978 5.00431 1.19414C5.13005 1.07849 5.55386 1.09384 5.53367 1.39047C5.51347 1.6871 5.47047 3.53092 5.47047 3.53092C5.47047 3.53092 5.42063 4.05035 5.50174 3.77267C5.5353 3.65767 5.57145 3.55379 5.61641 3.43291C5.83336 2.73576 6.20277 1.54565 6.38683 0.932133C6.42917 0.785451 6.46533 0.659677 6.49367 0.562979V0.561998C6.50475 0.517243 6.51583 0.481634 6.5269 0.449945C6.54221 0.397676 6.55264 0.3637 6.55557 0.354553C6.56404 0.331685 6.58684 0.314044 6.61942 0.301303C6.65199 0.280722 6.68685 0.279742 6.72659 0.278435C6.82855 0.269288 6.95983 0.282682 7.07808 0.316658C7.11261 0.317964 7.14975 0.329072 7.18558 0.354553L7.19047 0.35782L7.19308 0.359453C7.20024 0.36468 7.2123 0.374808 7.2263 0.391469C7.2263 0.392122 7.22674 0.392666 7.22761 0.393102C7.23375 0.401212 7.23951 0.409607 7.24487 0.418257C7.311 0.515282 7.35139 0.694306 7.31067 1.01184C7.20969 1.80438 7.13118 3.43455 7.13118 3.43455C7.13118 3.43455 7.11555 3.51262 7.2781 3.16928C7.28396 3.15719 7.29113 3.14706 7.29764 3.13595C7.30945 3.12812 7.3199 3.11841 7.32859 3.10721C7.42925 2.98666 7.69963 2.9161 7.88694 2.91773C7.9661 2.9272 8.03223 2.94713 8.07164 2.97229C8.14559 3.08532 8.10194 3.50217 8.10194 3.50217C7.9459 3.51654 7.64881 3.60083 7.54327 3.61651C7.43805 3.63219 7.2781 4.31888 7.05561 4.24865C6.83311 4.17841 6.33698 3.86642 6.33698 3.8233C6.33698 3.78573 6.37608 3.32968 6.38617 3.21207L6.38813 3.18888L6.38878 3.18398C6.39562 3.09153 6.38943 3.05102 6.34643 3.14347C6.30995 3.22318 6.15033 3.73248 5.97214 4.2872C5.95324 4.33587 5.61706 5.35807 5.57243 5.48286C5.51998 5.62726 5.47568 5.73801 5.44506 5.79518C5.39848 5.85855 5.33561 5.89841 5.24798 5.87162C5.02939 5.8053 4.7525 5.50247 4.74989 5.42733C4.74468 5.00264 4.77042 2.72172 4.66813 2.91185C4.56291 3.10655 3.74493 4.45936 3.74493 4.45936C3.73125 4.46165 3.72115 4.46132 3.7091 4.4623C3.65111 4.45576 3.56153 4.43714 3.53645 4.38128C3.53493 4.37823 3.53351 4.37496 3.53221 4.37148L3.52765 4.35809C3.51658 4.32084 3.51201 4.28033 3.50224 4.24701C3.46576 4.12353 3.40712 3.94581 3.34588 3.76515C3.25141 3.45709 3.15466 3.14183 3.1387 3.10721C3.10742 3.03893 3.06182 3.068 3.0211 3.10721C2.83867 3.26238 2.45102 3.94842 2.10051 3.98599Z" fill="url(#paint0_linear_910_15044)"/>
</g>
<defs>
<linearGradient id="paint0_linear_910_15044" x1="-3.67094" y1="2.95236" x2="1.8995" y2="10.3333" gradientUnits="userSpaceOnUse">
<stop stop-color="#FFBE00"/>
<stop offset="1" stop-color="#E85E0A"/>
</linearGradient>
<clipPath id="clip0_910_15044">
<rect width="43" height="5.88034" fill="white"/>
</clipPath>
</defs>
</svg>
