<svg width="72" height="73" viewBox="0 0 72 73" fill="none" xmlns="http://www.w3.org/2000/svg">
<g filter="url(#filter0_d_1101_795)">
<ellipse cx="35.5827" cy="34.7303" rx="33.8781" ry="34.7303" fill="#524643" fill-opacity="0.2" shape-rendering="crispEdges"/>
</g>
<path fill-rule="evenodd" clip-rule="evenodd" d="M60.8078 25.2867C60.8078 24.6841 60.8078 24.0815 60.805 23.4788C60.8022 22.9715 60.7966 22.4642 60.7826 21.9569C60.7532 20.8511 60.6873 19.737 60.4911 18.6439C60.2921 17.534 59.9656 16.5011 59.4527 15.4921C58.9482 14.5013 58.2895 13.5959 57.5033 12.8097C56.7171 12.0235 55.8104 11.3649 54.8196 10.8603C53.812 10.3474 52.7792 10.0223 51.6707 9.82187C50.5776 9.62567 49.4621 9.55981 48.3564 9.53038C47.8491 9.51636 47.3418 9.51076 46.8345 9.50795C46.2319 9.50515 45.6293 9.50515 45.0267 9.50515H26.1386C25.536 9.50515 24.9334 9.50515 24.3308 9.50795C23.8235 9.51076 23.3162 9.51636 22.8089 9.53038C21.7032 9.56121 20.5876 9.62567 19.4945 9.82328C18.3846 10.0223 17.3532 10.3488 16.3456 10.8617C15.3548 11.3663 14.4481 12.0249 13.6619 12.8111C12.8757 13.5973 12.2171 14.5027 11.7126 15.4935C11.1997 16.5025 10.8731 17.5354 10.6741 18.6453C10.4779 19.7384 10.4121 20.854 10.3826 21.9583C10.3686 22.4656 10.363 22.9729 10.3602 23.4802C10.3574 24.0815 10.3574 24.6841 10.3574 25.2867V44.1738C10.3574 44.7764 10.3574 45.379 10.3602 45.9816C10.363 46.489 10.3686 46.9963 10.3826 47.5036C10.4121 48.6093 10.4779 49.7235 10.6741 50.8166C10.8731 51.9265 11.1997 52.9594 11.7126 53.9684C12.2171 54.9592 12.8757 55.8645 13.6619 56.6507C14.4481 57.4369 15.3548 58.0956 16.3456 58.6001C17.3532 59.1131 18.386 59.4382 19.4945 59.6386C20.5876 59.8348 21.7032 59.9007 22.8089 59.9301C23.3162 59.9441 23.8235 59.9497 24.3308 59.9525C24.9334 59.9567 25.536 59.9553 26.1386 59.9553H45.0253C45.6279 59.9553 46.2305 59.9553 46.8331 59.9525C47.3404 59.9497 47.8477 59.9441 48.355 59.9301C49.4607 59.9007 50.5762 59.8348 51.6693 59.6386C52.7792 59.4396 53.8106 59.1131 54.8182 58.6001C55.809 58.0956 56.7157 57.4369 57.5019 56.6507C58.2881 55.8645 58.9468 54.9592 59.4513 53.9684C59.9642 52.9594 60.2907 51.9265 60.4897 50.8166C60.6859 49.7235 60.7518 48.6079 60.7812 47.5036C60.7952 46.9963 60.8008 46.489 60.8036 45.9816C60.8078 45.379 60.8064 44.7764 60.8064 44.1738V25.2867H60.8078Z" fill="url(#paint0_linear_1101_795)"/>
<path fill-rule="evenodd" clip-rule="evenodd" d="M47.7955 16.8088C47.6736 16.82 46.5903 17.012 46.46 17.0386L31.465 20.0643L31.4594 20.0657C31.0684 20.1484 30.7615 20.2871 30.5246 20.4862C30.2388 20.7258 30.0804 21.0649 30.0201 21.4601C30.0075 21.5442 29.9865 21.7152 29.9865 21.9675C29.9865 21.9675 29.9865 37.2879 29.9865 40.7355C29.9865 41.1741 29.9515 41.6001 29.6544 41.9631C29.3573 42.3261 28.9901 42.4354 28.5599 42.5223C28.2334 42.5881 27.9068 42.654 27.5803 42.7199C26.3415 42.9693 25.5357 43.1389 24.8055 43.422C24.1076 43.6925 23.5849 44.0372 23.1687 44.4745C22.3433 45.3392 22.0083 46.5122 22.1233 47.6109C22.2213 48.5484 22.6432 49.4454 23.3677 50.1082C23.8568 50.5567 24.4678 50.8972 25.1881 51.0416C25.9351 51.1915 26.7311 51.1397 27.8942 50.9043C28.5136 50.7795 29.0938 50.5847 29.646 50.2582C30.1925 49.9359 30.6606 49.5056 31.0263 48.9815C31.3935 48.4559 31.6303 47.8715 31.7607 47.2507C31.8952 46.6103 31.9274 46.0315 31.9274 45.3924V29.1148C31.9274 28.2431 32.1741 28.0132 32.8776 27.8423C32.8776 27.8423 45.3416 25.3281 45.9232 25.2146C46.7346 25.059 47.1172 25.2903 47.1172 26.1409V37.2529C47.1172 37.6929 47.113 38.1386 46.8131 38.503C46.516 38.8659 46.1489 38.9753 45.7186 39.0621C45.3921 39.128 45.0656 39.1939 44.739 39.2597C43.5002 39.5092 42.6944 39.6788 41.9643 39.9619C41.2664 40.2323 40.7437 40.5771 40.3274 41.0143C39.502 41.879 39.1376 43.052 39.2526 44.1507C39.3507 45.0883 39.8019 45.9852 40.5264 46.6481C41.0155 47.0966 41.6265 47.4273 42.3469 47.573C43.0938 47.723 43.8898 47.6697 45.053 47.4357C45.6724 47.311 46.2526 47.1246 46.8047 46.798C47.3513 46.4757 47.8193 46.0455 48.1851 45.5213C48.5523 44.9958 48.7891 44.4114 48.9194 43.7906C49.054 43.1501 49.0596 42.5713 49.0596 41.9323V18.1345C49.0624 17.2713 48.6069 16.7387 47.7955 16.8088Z" fill="white"/>
<defs>
<filter id="filter0_d_1101_795" x="3.3021e-05" y="0" width="71.1652" height="72.8698" filterUnits="userSpaceOnUse" color-interpolation-filters="sRGB">
<feFlood flood-opacity="0" result="BackgroundImageFix"/>
<feColorMatrix in="SourceAlpha" type="matrix" values="0 0 0 0 0 0 0 0 0 0 0 0 0 0 0 0 0 0 127 0" result="hardAlpha"/>
<feOffset dy="1.70456"/>
<feGaussianBlur stdDeviation="0.852278"/>
<feComposite in2="hardAlpha" operator="out"/>
<feColorMatrix type="matrix" values="0 0 0 0 0 0 0 0 0 0 0 0 0 0 0 0 0 0 0.25 0"/>
<feBlend mode="normal" in2="BackgroundImageFix" result="effect1_dropShadow_1101_795"/>
<feBlend mode="normal" in="BackgroundImageFix" in2="effect1_dropShadow_1101_795" result="BackgroundImageFix"/>
<feBlend mode="normal" in="SourceGraphic" in2="BackgroundImageFix" result="shape"/>
</filter>
<linearGradient id="paint0_linear_1101_795" x1="35.5826" y1="59.7612" x2="35.5826" y2="10.5925" gradientUnits="userSpaceOnUse">
<stop stop-color="#FA233B"/>
<stop offset="1" stop-color="#FB5C74"/>
</linearGradient>
</defs>
</svg>
