<svg width="24" height="24" viewBox="0 0 24 24" fill="none" xmlns="http://www.w3.org/2000/svg">
<path d="M10.5 14V10L14 12L10.5 14Z" stroke="white" stroke-linejoin="round"/>
<path d="M1.5 12C1.5 14.7848 2.60625 17.4555 4.57538 19.4246C6.54451 21.3938 9.21523 22.5 12 22.5C14.7848 22.5 17.4555 21.3938 19.4246 19.4246C21.3938 17.4555 22.5 14.7848 22.5 12C22.5 9.21523 21.3938 6.54451 19.4246 4.57538C17.4555 2.60625 14.7848 1.5 12 1.5C9.21523 1.5 6.54451 2.60625 4.57538 4.57538C2.60625 6.54451 1.5 9.21523 1.5 12Z" stroke="white" stroke-linejoin="round"/>
<path d="M6.5 12C6.5 13.4587 7.07946 14.8576 8.11091 15.8891C9.14236 16.9205 10.5413 17.5 12 17.5C13.4587 17.5 14.8576 16.9205 15.8891 15.8891C16.9205 14.8576 17.5 13.4587 17.5 12C17.5 10.5413 16.9205 9.14236 15.8891 8.11091C14.8576 7.07946 13.4587 6.5 12 6.5C10.5413 6.5 9.14236 7.07946 8.11091 8.11091C7.07946 9.14236 6.5 10.5413 6.5 12Z" stroke="white" stroke-linejoin="round"/>
</svg>
