<svg width="29" height="29" viewBox="0 0 29 29" fill="none" xmlns="http://www.w3.org/2000/svg">
<path d="M8.68 21.8634V3.7801L16.36 2.58789M25.32 12.8218V19.2801M25.32 20.5718C25.32 21.5995 24.9154 22.5851 24.1953 23.3118C23.4752 24.0385 22.4984 24.4468 21.48 24.4468C20.4616 24.4468 19.4848 24.0385 18.7647 23.3118C18.0446 22.5851 17.64 21.5995 17.64 20.5718C17.64 19.5441 18.0446 18.5584 18.7647 17.8317C19.4848 17.105 20.4616 16.6968 21.48 16.6968C22.4984 16.6968 23.4752 17.105 24.1953 17.8317C24.9154 18.5584 25.32 19.5441 25.32 20.5718ZM8.68 23.1551C8.68 24.1828 8.27543 25.1684 7.55529 25.8951C6.83515 26.6218 5.85843 27.0301 4.84 27.0301C3.82157 27.0301 2.84485 26.6218 2.12471 25.8951C1.40457 25.1684 1 24.1828 1 23.1551C1 22.1274 1.40457 21.1418 2.12471 20.4151C2.84485 19.6884 3.82157 19.2801 4.84 19.2801C5.85843 19.2801 6.83515 19.6884 7.55529 20.4151C8.27543 21.1418 8.68 22.1274 8.68 23.1551Z" stroke="white" stroke-width="2" stroke-linecap="square"/>
<path d="M23.72 2.58789L24.3856 4.17664L25.96 4.84831L24.3856 5.51997L23.72 7.10872L23.0544 5.51997L21.48 4.84831L23.0544 4.17664L23.72 2.58789Z" stroke="white" stroke-width="2"/>
</svg>
