<svg width="26" height="26" viewBox="0 0 26 26" fill="none" xmlns="http://www.w3.org/2000/svg">
<g clip-path="url(#clip0_1200_1246)">
<path d="M19.2455 -0.000976562H5.89183C2.63813 -0.000976562 0.000488281 2.63667 0.000488281 5.89036V19.2441C0.000488281 22.4978 2.63813 25.1354 5.89183 25.1354H19.2455C22.4992 25.1354 25.1369 22.4978 25.1369 19.2441V5.89036C25.1369 2.63667 22.4992 -0.000976562 19.2455 -0.000976562Z" fill="url(#paint0_radial_1200_1246)"/>
<path d="M19.2455 -0.000976562H5.89183C2.63813 -0.000976562 0.000488281 2.63667 0.000488281 5.89036V19.2441C0.000488281 22.4978 2.63813 25.1354 5.89183 25.1354H19.2455C22.4992 25.1354 25.1369 22.4978 25.1369 19.2441V5.89036C25.1369 2.63667 22.4992 -0.000976562 19.2455 -0.000976562Z" fill="url(#paint1_radial_1200_1246)"/>
<path d="M12.5698 2.74854C9.90317 2.74854 9.56844 2.76022 8.52116 2.80784C7.47584 2.85576 6.7623 3.02121 6.13801 3.26403C5.49212 3.5148 4.94433 3.85031 4.39859 4.39624C3.85237 4.94208 3.51686 5.48987 3.2653 6.13547C3.02179 6.75995 2.85614 7.47378 2.80911 8.51861C2.76227 9.56599 2.75 9.90082 2.75 12.5675C2.75 15.2342 2.76178 15.5679 2.80931 16.6152C2.85742 17.6605 3.02287 18.374 3.26549 18.9983C3.51646 19.6442 3.85198 20.192 4.39791 20.7377C4.94354 21.284 5.49134 21.6203 6.13674 21.871C6.76151 22.1139 7.47515 22.2793 8.52027 22.3272C9.56766 22.3748 9.90209 22.3865 12.5686 22.3865C15.2355 22.3865 15.5692 22.3748 16.6164 22.3272C17.6618 22.2793 18.3761 22.1139 19.0009 21.871C19.6465 21.6203 20.1935 21.284 20.739 20.7377C21.2852 20.192 21.6206 19.6442 21.8723 18.9986C22.1137 18.374 22.2794 17.6603 22.3285 16.6154C22.3755 15.5681 22.3878 15.2342 22.3878 12.5675C22.3878 9.90082 22.3755 9.56619 22.3285 8.51881C22.2794 7.47349 22.1137 6.76005 21.8723 6.13576C21.6206 5.48987 21.2852 4.94208 20.739 4.39624C20.1929 3.85012 19.6467 3.51461 19.0003 3.26413C18.3743 3.02121 17.6604 2.85566 16.6151 2.80784C15.5677 2.76022 15.2342 2.74854 12.5667 2.74854H12.5698ZM11.6889 4.518C11.9504 4.51761 12.2421 4.518 12.5698 4.518C15.1915 4.518 15.5022 4.52743 16.5375 4.57446C17.4948 4.61825 18.0145 4.7782 18.3606 4.91262C18.8188 5.09054 19.1455 5.30331 19.489 5.64707C19.8326 5.99074 20.0453 6.318 20.2237 6.77625C20.3581 7.12187 20.5183 7.64149 20.5619 8.59883C20.6089 9.63394 20.6191 9.94481 20.6191 12.5653C20.6191 15.1857 20.6089 15.4967 20.5619 16.5317C20.5181 17.4891 20.3581 18.0087 20.2237 18.3544C20.0458 18.8126 19.8326 19.1389 19.489 19.4824C19.1453 19.8261 18.819 20.0387 18.3606 20.2167C18.0149 20.3518 17.4948 20.5113 16.5375 20.5551C15.5024 20.6021 15.1915 20.6124 12.5698 20.6124C9.94794 20.6124 9.63717 20.6021 8.60216 20.5551C7.64482 20.5109 7.1252 20.351 6.77879 20.2166C6.32064 20.0385 5.99328 19.8259 5.64962 19.4822C5.30596 19.1385 5.09328 18.8121 4.91487 18.3536C4.78045 18.0079 4.6203 17.4883 4.57671 16.5309C4.52968 15.4958 4.52025 15.185 4.52025 12.5628C4.52025 9.94068 4.52968 9.63148 4.57671 8.59638C4.6205 7.63903 4.78045 7.11942 4.91487 6.7733C5.09289 6.31505 5.30596 5.98779 5.64972 5.64413C5.99348 5.30047 6.32064 5.08769 6.77889 4.90938C7.12501 4.77437 7.64482 4.61481 8.60216 4.57082C9.50796 4.52988 9.85898 4.51761 11.6889 4.51554V4.518ZM17.8111 6.14833C17.1606 6.14833 16.6328 6.6756 16.6328 7.3262C16.6328 7.97671 17.1606 8.50447 17.8111 8.50447C18.4616 8.50447 18.9894 7.97671 18.9894 7.3262C18.9894 6.6757 18.4616 6.14794 17.8111 6.14794V6.14833ZM12.5698 7.52504C9.78514 7.52504 7.52739 9.78279 7.52739 12.5675C7.52739 15.3523 9.78514 17.6089 12.5698 17.6089C15.3545 17.6089 17.6115 15.3523 17.6115 12.5675C17.6115 9.78289 15.3543 7.52504 12.5696 7.52504H12.5698ZM12.5698 9.2945C14.3773 9.2945 15.8428 10.7598 15.8428 12.5675C15.8428 14.3751 14.3773 15.8406 12.5698 15.8406C10.7622 15.8406 9.29685 14.3751 9.29685 12.5675C9.29685 10.7598 10.7621 9.2945 12.5698 9.2945Z" fill="white"/>
</g>
<defs>
<radialGradient id="paint0_radial_1200_1246" cx="0" cy="0" r="1" gradientUnits="userSpaceOnUse" gradientTransform="translate(6.67734 27.0714) rotate(-90) scale(24.912 23.1701)">
<stop stop-color="#FFDD55"/>
<stop offset="0.1" stop-color="#FFDD55"/>
<stop offset="0.5" stop-color="#FF543E"/>
<stop offset="1" stop-color="#C837AB"/>
</radialGradient>
<radialGradient id="paint1_radial_1200_1246" cx="0" cy="0" r="1" gradientUnits="userSpaceOnUse" gradientTransform="translate(-4.20995 1.80973) rotate(78.681) scale(11.1358 45.9022)">
<stop stop-color="#3771C8"/>
<stop offset="0.128" stop-color="#3771C8"/>
<stop offset="1" stop-color="#6600FF" stop-opacity="0"/>
</radialGradient>
<clipPath id="clip0_1200_1246">
<rect width="25.1364" height="25.1364" fill="white"/>
</clipPath>
</defs>
</svg>
