<svg width="32" height="32" viewBox="0 0 32 32" fill="none" xmlns="http://www.w3.org/2000/svg">
<path d="M20.972 5.17852C22.884 3.25852 25.6813 3.21852 27.2293 4.77319C28.7813 6.33052 28.74 9.14652 26.8253 11.0665L23.5947 14.3105C23.4128 14.4994 23.3123 14.7521 23.315 15.0143C23.3176 15.2765 23.4231 15.5272 23.6088 15.7124C23.7945 15.8975 24.0455 16.0023 24.3077 16.0042C24.5699 16.0061 24.8223 15.905 25.0107 15.7225L28.2427 12.4785C30.7907 9.91986 31.1107 5.83586 28.6467 3.36119C26.18 0.885191 22.104 1.20786 19.5533 3.76652L13.092 10.2559C10.544 12.8145 10.224 16.8985 12.688 19.3719C12.78 19.4676 12.8902 19.544 13.0121 19.5967C13.134 19.6493 13.2651 19.6772 13.3979 19.6787C13.5306 19.6801 13.6623 19.6551 13.7853 19.6051C13.9083 19.5551 14.0202 19.4812 14.1143 19.3875C14.2084 19.2938 14.2829 19.1824 14.3334 19.0596C14.384 18.9368 14.4096 18.8052 14.4088 18.6725C14.408 18.5397 14.3807 18.4084 14.3286 18.2863C14.2765 18.1642 14.2006 18.0537 14.1053 17.9612C12.5533 16.4039 12.596 13.5879 14.5093 11.6679L20.972 5.17852Z" fill="white"/>
<path d="M19.3133 12.6266C19.1259 12.4387 18.8715 12.3329 18.606 12.3325C18.3406 12.3321 18.0859 12.4372 17.898 12.6246C17.71 12.8121 17.6042 13.0665 17.6038 13.3319C17.6035 13.5973 17.7085 13.852 17.896 14.04C19.448 15.5973 19.4066 18.412 17.492 20.3333L11.0293 26.8213C9.11596 28.7413 6.31863 28.7813 4.77063 27.2266C3.21863 25.6693 3.26129 22.8533 5.17463 20.9333L8.40663 17.6893C8.49934 17.5963 8.57282 17.4858 8.62286 17.3644C8.6729 17.2429 8.69853 17.1128 8.69828 16.9814C8.69803 16.8501 8.67192 16.72 8.62142 16.5988C8.57092 16.4775 8.49703 16.3674 8.40396 16.2746C8.3109 16.1819 8.20048 16.1085 8.07903 16.0584C7.95757 16.0084 7.82744 15.9827 7.69608 15.983C7.56471 15.9832 7.43468 16.0094 7.31341 16.0599C7.19214 16.1104 7.08201 16.1842 6.98929 16.2773L3.75729 19.5213C1.20929 22.0813 0.889294 26.164 3.35329 28.6386C5.81996 31.116 9.89596 30.792 12.4466 28.2333L18.9093 21.744C21.4573 19.1866 21.7773 15.1 19.3133 12.6266Z" fill="white"/>
</svg>
