<svg width="26" height="26" viewBox="0 0 26 26" fill="none" xmlns="http://www.w3.org/2000/svg">
<g clip-path="url(#clip0_1200_1253)">
<path d="M19.2455 0.000976562H5.89183C2.63813 0.000976562 0.000488281 2.63862 0.000488281 5.89232V19.246C0.000488281 22.4997 2.63813 25.1374 5.89183 25.1374H19.2455C22.4992 25.1374 25.1369 22.4997 25.1369 19.246V5.89232C25.1369 2.63862 22.4992 0.000976562 19.2455 0.000976562Z" fill="white"/>
<path d="M19.2455 0.000976562H5.89183C2.63813 0.000976562 0.000488281 2.63862 0.000488281 5.89232V19.246C0.000488281 22.4997 2.63813 25.1374 5.89183 25.1374H19.2455C22.4992 25.1374 25.1369 22.4997 25.1369 19.246V5.89232C25.1369 2.63862 22.4992 0.000976562 19.2455 0.000976562Z" fill="#0A66C2"/>
<path d="M18.1377 21.375H21.0117C21.1159 21.375 21.2158 21.3337 21.2894 21.26C21.3631 21.1864 21.4045 21.0865 21.4045 20.9824L21.406 14.9102C21.406 11.7364 20.7221 9.29689 17.0132 9.29689C15.6033 9.24446 14.2737 9.97126 13.5562 11.1849C13.5527 11.1908 13.5474 11.1954 13.541 11.1979C13.5347 11.2005 13.5276 11.2009 13.521 11.1991C13.5144 11.1973 13.5085 11.1934 13.5044 11.188C13.5002 11.1826 13.4979 11.1759 13.4978 11.1691V9.98265C13.4978 9.87848 13.4564 9.77858 13.3828 9.70493C13.3091 9.63127 13.2092 9.58989 13.1051 9.58989H10.3777C10.2735 9.58989 10.1736 9.63127 10.0999 9.70493C10.0263 9.77858 9.9849 9.87848 9.9849 9.98265V20.9818C9.9849 21.0859 10.0263 21.1858 10.0999 21.2595C10.1736 21.3332 10.2735 21.3745 10.3777 21.3745H13.2515C13.3556 21.3745 13.4555 21.3332 13.5292 21.2595C13.6028 21.1858 13.6442 21.0859 13.6442 20.9818V15.5448C13.6442 14.0074 13.9358 12.5186 15.8418 12.5186C17.7206 12.5186 17.745 14.2777 17.745 15.6443V20.9823C17.745 21.0864 17.7864 21.1863 17.86 21.26C17.9337 21.3336 18.0336 21.375 18.1377 21.375ZM3.73193 5.85557C3.73193 7.02048 4.69095 7.979 5.85596 7.979C7.02068 7.9789 7.9791 7.01979 7.9791 5.85507C7.9789 4.69036 7.02038 3.73193 5.85557 3.73193C4.69045 3.73193 3.73193 4.69065 3.73193 5.85557ZM4.41523 21.375H7.29286C7.39702 21.375 7.49692 21.3336 7.57058 21.26C7.64423 21.1863 7.68561 21.0864 7.68561 20.9823V9.98265C7.68561 9.87848 7.64423 9.77858 7.57058 9.70493C7.49692 9.63127 7.39702 9.58989 7.29286 9.58989H4.41523C4.31107 9.58989 4.21117 9.63127 4.13751 9.70493C4.06385 9.77858 4.02247 9.87848 4.02247 9.98265V20.9823C4.02247 21.0864 4.06385 21.1863 4.13751 21.26C4.21117 21.3336 4.31107 21.375 4.41523 21.375Z" fill="white"/>
</g>
<defs>
<clipPath id="clip0_1200_1253">
<rect width="25.1364" height="25.1364" fill="white"/>
</clipPath>
</defs>
</svg>
