<svg width="363" height="375" viewBox="0 0 363 375" fill="none" xmlns="http://www.w3.org/2000/svg">
<line x1="28.8203" y1="22.4369" x2="329.863" y2="22.4369" stroke="url(#paint0_linear_1_4755)" stroke-opacity="0.5" stroke-width="0.251253"/>
<line x1="30.9102" y1="47.2972" x2="331.952" y2="47.2972" stroke="url(#paint1_linear_1_4755)" stroke-opacity="0.5" stroke-width="0.251253"/>
<line x1="32.998" y1="72.1576" x2="334.04" y2="72.1576" stroke="url(#paint2_linear_1_4755)" stroke-opacity="0.5" stroke-width="0.251253"/>
<line x1="35.0879" y1="97.0189" x2="336.13" y2="97.0189" stroke="url(#paint3_linear_1_4755)" stroke-opacity="0.5" stroke-width="0.251253"/>
<g clip-path="url(#clip0_1_4755)">
<path d="M144.683 23.5604C146.522 23.5604 148.013 22.0698 148.013 20.2309C148.013 18.3921 146.522 16.9014 144.683 16.9014C142.844 16.9014 141.354 18.3921 141.354 20.2309C141.354 22.0698 142.844 23.5604 144.683 23.5604Z" fill="#E91E63"/>
</g>
<path d="M65.4565 34.6279V43.8766C65.4565 44.5635 65.1836 45.2221 64.698 45.7078C64.2123 46.1934 63.5537 46.4663 62.8668 46.4663C62.18 46.4663 61.5213 46.1934 61.0357 45.7078C60.55 45.2221 60.2772 44.5635 60.2772 43.8766C60.2772 43.1898 60.55 42.5311 61.0357 42.0455C61.5213 41.5598 62.18 41.287 62.8668 41.287C63.2664 41.287 63.6437 41.3758 63.9767 41.5386V37.1954L56.5777 38.7714V45.3564C56.5777 46.0432 56.3049 46.7019 55.8192 47.1876C55.3336 47.6732 54.6749 47.9461 53.9881 47.9461C53.3013 47.9461 52.6426 47.6732 52.1569 47.1876C51.6713 46.7019 51.3984 46.0432 51.3984 45.3564C51.3984 44.6696 51.6713 44.0109 52.1569 43.5253C52.6426 43.0396 53.3013 42.7668 53.9881 42.7668C54.3876 42.7668 54.765 42.8556 55.0979 43.0184V36.8476L65.4565 34.6279Z" fill="#C30100"/>
<path d="M251.914 25.6537C252.012 25.9312 251.996 26.2362 251.869 26.5018C251.742 26.7674 251.515 26.9717 251.238 27.0699C250.278 27.409 249.431 28.0051 248.788 28.7933C248.145 29.5814 247.731 30.5312 247.591 31.5388C247.451 32.5464 247.591 33.5731 247.995 34.5066C248.399 35.4401 249.052 36.2445 249.883 36.832C250.713 37.4195 251.689 37.7674 252.704 37.8377C253.719 37.908 254.733 37.698 255.637 37.2306C256.54 36.7632 257.298 36.0565 257.827 35.1876C258.356 34.3187 258.636 33.3212 258.637 32.3039C258.637 31.416 258.429 30.5799 258.06 29.8386C257.995 29.708 257.957 29.566 257.947 29.4205C257.937 29.2751 257.955 29.1291 258.002 28.9909C258.096 28.7118 258.296 28.4813 258.56 28.3503C258.824 28.2192 259.128 28.1982 259.408 28.2919C259.687 28.3857 259.917 28.5864 260.048 28.8501C260.581 29.9233 260.858 31.1056 260.856 32.3039C260.856 36.5946 257.378 40.0728 253.087 40.0728C248.797 40.0728 245.318 36.5946 245.318 32.3039C245.318 28.9196 247.482 26.0436 250.498 24.9774C250.775 24.8794 251.08 24.8955 251.346 25.0223C251.611 25.1491 251.816 25.3763 251.914 25.6537ZM253.457 25.6552C253.457 25.4864 253.495 25.3197 253.569 25.1678C253.642 25.0158 253.749 24.8825 253.882 24.7778C254.014 24.6731 254.169 24.5998 254.333 24.5634C254.498 24.527 254.669 24.5284 254.833 24.5675L254.928 24.5949L257.137 25.3318C257.408 25.422 257.633 25.6128 257.767 25.8647C257.901 26.1166 257.932 26.4102 257.855 26.6848C257.778 26.9593 257.598 27.1936 257.353 27.3392C257.108 27.4847 256.816 27.5303 256.538 27.4665L256.436 27.4376L255.677 27.1846V32.3039L255.673 32.446C255.645 32.9619 255.463 33.4575 255.151 33.8691C254.838 34.2808 254.41 34.5895 253.921 34.7558C253.431 34.922 252.904 34.9381 252.405 34.802C251.907 34.6659 251.461 34.3838 251.124 33.992C250.787 33.6002 250.575 33.1166 250.515 32.6033C250.455 32.0901 250.551 31.5707 250.788 31.112C251.026 30.6533 251.396 30.2762 251.85 30.0292C252.303 29.7823 252.821 29.6767 253.335 29.7261L253.457 29.7409V25.6552Z" fill="#B5E554"/>
<path d="M75.9468 90.6252C75.3672 90.0456 75.0774 89.3489 75.0774 88.535C75.0774 87.7211 75.3672 87.0244 75.9468 86.4448C76.5263 85.8652 77.2231 85.5754 78.037 85.5754C78.3206 85.5754 78.5828 85.6095 78.8235 85.6775C79.0642 85.7456 79.2953 85.8472 79.5168 85.9824V79.6563H83.9561V81.8759H80.9966V88.535C80.9966 89.3489 80.7068 90.0456 80.1272 90.6252C79.5476 91.2048 78.8509 91.4946 78.037 91.4946C77.2231 91.4946 76.5263 91.2048 75.9468 90.6252ZM69.1582 88.535C69.1582 87.3142 69.3925 86.1641 69.8611 85.0849C70.3297 84.0056 70.9648 83.0654 71.7663 82.2644C72.5679 81.4633 73.5083 80.8282 74.5876 80.3592C75.6668 79.8901 76.8166 79.6558 78.037 79.6563V81.136C77.0258 81.136 76.0701 81.3304 75.1699 81.7191C74.2697 82.1078 73.4836 82.638 72.8118 83.3099C72.14 83.9817 71.6097 84.7645 71.221 85.6583C70.8323 86.5521 70.638 87.511 70.638 88.535H69.1582ZM72.1178 88.535C72.1178 87.7211 72.2751 86.9534 72.5898 86.2317C72.9045 85.5101 73.33 84.8812 73.8662 84.345C74.4023 83.8088 75.0281 83.3866 75.7433 83.0783C76.4585 82.77 77.2231 82.6158 78.037 82.6158V84.0956C76.8038 84.0956 75.7556 84.5272 74.8924 85.3905C74.0292 86.2537 73.5976 87.3019 73.5976 88.535H72.1178Z" fill="#9724CD"/>
<path d="M281.913 100.674C285.999 100.674 289.312 97.3614 289.312 93.2749C289.312 89.1885 285.999 85.876 281.913 85.876C277.826 85.876 274.514 89.1885 274.514 93.2749C274.514 97.3614 277.826 100.674 281.913 100.674Z" stroke="#1CB6F8" stroke-width="0.835648"/>
<path d="M282.652 89.5752V94.7545" stroke="#1CB6F8" stroke-width="0.835648" stroke-linecap="round" stroke-linejoin="round"/>
<path d="M278.213 95.0008C278.213 94.2512 278.928 93.6445 279.811 93.6445H282.652V95.2479C282.652 95.9974 281.937 96.6041 281.054 96.6041H279.811C278.928 96.6041 278.213 95.997 278.213 95.2479V95.0008Z" fill="#1CB6F8" stroke="#1CB6F8" stroke-width="0.835648" stroke-linejoin="round"/>
<path d="M284.872 89.9451L282.652 89.5752" stroke="#1CB6F8" stroke-width="0.835648" stroke-linecap="round" stroke-linejoin="round"/>
<path d="M0.408203 81.8535C0.408203 81.8535 32.5062 22.9544 68.4531 22.1055C104.4 21.2566 237.057 76.2151 280.99 76.1544C324.922 76.0937 362.553 0.905883 362.553 0.905883" stroke="#C30100" stroke-width="0.931761" stroke-dasharray="0.75 0.75"/>
<g filter="url(#filter0_d_1_4755)">
<g clip-path="url(#clip1_1_4755)">
<rect x="85.127" y="34.3965" width="206.591" height="276.44" rx="8.41796" transform="rotate(5.38974 85.127 34.3965)" fill="#211616"/>
<g clip-path="url(#clip2_1_4755)">
<rect x="95.0898" y="94.6738" width="175.926" height="202.138" rx="15.5802" transform="rotate(5.38974 95.0898 94.6738)" fill="#1D0909"/>
<g filter="url(#filter1_f_1_4755)">
<ellipse cx="171.291" cy="212.332" rx="49.7279" ry="47.4204" transform="rotate(14.903 171.291 212.332)" fill="#F9E6E6"/>
</g>
<path d="M116.179 125.117C115.224 125.027 114.344 124.561 113.732 123.822C113.12 123.083 112.827 122.131 112.917 121.175C113.007 120.22 113.473 119.34 114.212 118.728C114.952 118.116 115.904 117.823 116.859 117.913C117.814 118.003 118.695 118.469 119.307 119.208C119.919 119.948 120.212 120.9 120.121 121.855C120.077 122.328 119.939 122.788 119.717 123.208C119.495 123.628 119.192 124 118.826 124.303C118.46 124.606 118.038 124.833 117.584 124.973C117.13 125.113 116.652 125.162 116.179 125.117ZM117.471 111.429C114.796 111.177 112.13 111.997 110.06 113.71C107.99 115.423 106.686 117.889 106.433 120.564C105.719 128.128 114.752 140.247 114.752 140.247C114.752 140.247 125.892 130.031 126.605 122.467C126.858 119.792 126.037 117.126 124.324 115.056C122.611 112.986 120.146 111.682 117.471 111.429Z" fill="#C30100"/>
<path d="M99.0349 158.747C98.5006 158.697 98.0535 158.598 97.6935 158.451C97.343 158.296 97.0666 158.092 96.8645 157.838C96.6719 157.577 96.5448 157.265 96.4833 156.902C96.4227 156.532 96.4147 156.109 96.4594 155.635L97.0156 149.741L99.3681 149.963L98.8327 155.637C98.8026 155.956 98.8336 156.181 98.9256 156.311C99.0271 156.434 99.2286 156.509 99.5302 156.538L105.593 157.11L105.382 159.346L99.0349 158.747ZM117.645 160.112C117.673 160.184 117.693 160.251 117.704 160.313C117.724 160.376 117.74 160.442 117.751 160.513L115.114 160.264C115.102 160.202 115.09 160.149 115.077 160.104C115.064 160.051 115.051 160.002 115.038 159.957L114.673 158.853L109.503 158.366L108.951 159.37C108.929 159.42 108.907 159.47 108.885 159.52C108.863 159.57 108.845 159.621 108.832 159.672L106.13 159.417C106.154 159.349 106.177 159.286 106.2 159.228C106.232 159.17 106.268 159.108 106.309 159.042L110.091 152.409C110.392 151.89 110.757 151.516 111.188 151.287C111.618 151.058 112.147 150.973 112.777 151.032C113.388 151.09 113.884 151.272 114.264 151.577C114.652 151.883 114.946 152.319 115.145 152.886L117.645 160.112ZM114.002 156.847L112.952 153.592C112.918 153.493 112.869 153.419 112.804 153.369C112.739 153.32 112.663 153.291 112.577 153.283C112.5 153.275 112.424 153.29 112.351 153.327C112.279 153.355 112.217 153.418 112.164 153.518L110.537 156.52L114.002 156.847ZM122.048 160.918C121.264 160.845 120.595 160.655 120.041 160.351C119.488 160.038 119.03 159.643 118.666 159.165C118.349 158.744 118.115 158.274 117.964 157.755C117.813 157.237 117.765 156.689 117.82 156.112C117.88 155.474 118.061 154.891 118.363 154.363C118.665 153.835 119.054 153.39 119.532 153.026C119.954 152.701 120.437 152.464 120.982 152.315C121.535 152.159 122.166 152.114 122.872 152.18L127.59 152.626L127.372 154.939L122.654 154.494C122.258 154.457 121.925 154.478 121.657 154.557C121.389 154.636 121.152 154.752 120.946 154.907C120.73 155.078 120.549 155.287 120.404 155.534C120.268 155.782 120.186 156.052 120.158 156.345C120.133 156.612 120.156 156.871 120.228 157.121C120.301 157.363 120.415 157.582 120.57 157.78C120.74 158.004 120.961 158.199 121.232 158.364C121.505 158.52 121.848 158.617 122.261 158.656L124.497 158.867C124.609 158.878 124.671 158.823 124.683 158.702L124.903 156.363L127.23 156.582L126.831 160.809C126.796 161.18 126.593 161.347 126.223 161.312L122.048 160.918ZM132.475 161.902C131.69 161.828 131.021 161.639 130.468 161.335C129.915 161.022 129.456 160.626 129.093 160.149C128.776 159.728 128.542 159.258 128.391 158.739C128.24 158.221 128.192 157.673 128.246 157.095C128.306 156.458 128.487 155.875 128.789 155.347C129.091 154.819 129.481 154.373 129.959 154.01C130.381 153.684 130.864 153.447 131.408 153.299C131.962 153.142 132.592 153.098 133.299 153.164L135.134 153.337C135.841 153.404 136.447 153.566 136.954 153.822C137.469 154.071 137.904 154.394 138.257 154.793C138.659 155.239 138.958 155.75 139.156 156.325C139.354 156.9 139.423 157.506 139.363 158.144C139.308 158.722 139.158 159.251 138.913 159.732C138.668 160.213 138.35 160.631 137.96 160.985C137.514 161.387 136.989 161.689 136.388 161.893C135.787 162.089 135.094 162.149 134.31 162.075L132.475 161.902ZM133.081 155.478C132.684 155.441 132.352 155.461 132.084 155.54C131.815 155.619 131.578 155.736 131.372 155.891C131.156 156.061 130.976 156.27 130.831 156.518C130.694 156.766 130.612 157.036 130.585 157.329C130.559 157.596 130.583 157.855 130.655 158.105C130.728 158.347 130.842 158.566 130.997 158.763C131.167 158.988 131.389 159.174 131.662 159.322C131.935 159.469 132.278 159.562 132.692 159.601L134.527 159.775C134.941 159.814 135.295 159.786 135.591 159.692C135.887 159.599 136.139 159.457 136.348 159.268C136.538 159.104 136.691 158.909 136.808 158.686C136.925 158.453 136.997 158.204 137.022 157.936C137.049 157.643 137.015 157.362 136.919 157.092C136.831 156.823 136.697 156.584 136.517 156.376C136.344 156.186 136.133 156.027 135.884 155.899C135.635 155.771 135.313 155.689 134.916 155.651L133.081 155.478ZM149.815 157.057L143.533 156.464C143.387 156.45 143.269 156.457 143.179 156.483C143.099 156.501 143.031 156.534 142.974 156.581C142.842 156.69 142.768 156.835 142.751 157.016C142.733 157.206 142.792 157.368 142.927 157.502C142.974 157.55 143.031 157.59 143.098 157.623C143.174 157.647 143.281 157.666 143.419 157.679L147.258 158.041C147.749 158.088 148.156 158.2 148.478 158.378C148.809 158.549 149.08 158.765 149.29 159.029C149.5 159.292 149.655 159.585 149.755 159.907C149.864 160.23 149.902 160.564 149.869 160.909C149.839 161.228 149.75 161.528 149.602 161.81C149.462 162.092 149.282 162.34 149.062 162.554C148.795 162.807 148.472 162.999 148.095 163.128C147.726 163.259 147.283 163.299 146.766 163.251L139.993 162.612L140.204 160.375L146.563 160.975C146.744 160.992 146.884 160.988 146.982 160.963C147.089 160.929 147.177 160.881 147.243 160.818C147.349 160.715 147.409 160.586 147.423 160.431C147.441 160.241 147.396 160.08 147.286 159.948C147.233 159.873 147.159 159.819 147.067 159.784C146.984 159.741 146.857 159.712 146.684 159.696L143.13 159.36C142.544 159.305 142.076 159.191 141.727 159.019C141.388 158.839 141.113 158.618 140.903 158.355C140.693 158.091 140.538 157.803 140.437 157.489C140.337 157.167 140.304 156.825 140.338 156.463C140.372 156.109 140.468 155.784 140.626 155.486C140.793 155.188 141.004 154.93 141.26 154.711C141.515 154.491 141.826 154.33 142.193 154.225C142.56 154.112 143.036 154.083 143.622 154.138L150.034 154.743L149.815 157.057ZM153.298 161.572L151.813 165.839L149.977 165.666L150.945 161.35L153.298 161.572ZM170.553 163.786C170.522 164.114 170.448 164.394 170.33 164.626C170.222 164.851 170.083 165.033 169.913 165.174C169.753 165.306 169.57 165.398 169.366 165.448C169.16 165.507 168.95 165.526 168.734 165.506C168.364 165.471 168.042 165.384 167.768 165.245C167.502 165.116 167.277 164.921 167.093 164.66L162.82 158.662C162.759 158.578 162.693 158.533 162.624 158.526C162.564 158.52 162.51 158.537 162.463 158.576C162.416 158.615 162.389 158.673 162.381 158.751L161.823 164.671L159.522 164.454L160.172 157.564C160.207 157.194 160.284 156.884 160.403 156.634C160.531 156.386 160.693 156.188 160.89 156.041C161.086 155.894 161.312 155.798 161.569 155.753C161.826 155.699 162.101 155.686 162.394 155.714C162.808 155.753 163.151 155.85 163.423 156.006C163.695 156.162 163.954 156.413 164.2 156.758L167.984 162.266C168.014 162.312 168.046 162.346 168.078 162.366C168.112 162.378 168.15 162.386 168.194 162.39C168.314 162.401 168.382 162.33 168.396 162.175L168.929 156.526L171.217 156.742L170.553 163.786ZM174.881 157.087L174.057 165.825L171.704 165.603L172.529 156.865L174.881 157.087ZM179.811 166.368C179.027 166.294 178.358 166.105 177.804 165.801C177.251 165.488 176.793 165.092 176.43 164.615C176.113 164.194 175.879 163.724 175.728 163.205C175.577 162.687 175.529 162.139 175.583 161.561C175.643 160.924 175.824 160.341 176.126 159.813C176.428 159.285 176.818 158.839 177.296 158.476C177.718 158.15 178.201 157.913 178.745 157.765C179.299 157.608 179.929 157.564 180.636 157.63L185.354 158.075L185.135 160.389L180.417 159.944C180.021 159.907 179.689 159.927 179.42 160.006C179.152 160.085 178.915 160.202 178.709 160.357C178.493 160.528 178.313 160.737 178.168 160.984C178.031 161.232 177.949 161.502 177.921 161.795C177.896 162.062 177.92 162.321 177.992 162.571C178.065 162.813 178.179 163.032 178.334 163.229C178.504 163.454 178.725 163.649 178.996 163.814C179.268 163.97 179.611 164.067 180.025 164.106L182.261 164.317C182.373 164.328 182.435 164.273 182.446 164.152L182.667 161.812L184.993 162.032L184.595 166.259C184.56 166.629 184.357 166.797 183.986 166.762L179.811 166.368ZM195.793 159.06L195.575 161.374L188.931 160.747C188.793 160.734 188.717 160.801 188.704 160.948L188.61 161.943L195.422 162.586L195.263 164.266L188.451 163.623L188.351 164.683C188.336 164.838 188.398 164.922 188.536 164.935L195.18 165.562L194.969 167.798L187.006 167.047C186.188 166.97 185.817 166.526 185.893 165.716L186.492 159.37C186.566 158.585 187.017 158.232 187.844 158.31L195.793 159.06ZM198.406 168.123L196.067 167.902L196.84 159.707C196.874 159.345 197.085 159.182 197.473 159.219L203.677 159.804C204.22 159.855 204.661 159.975 205 160.164C205.339 160.344 205.618 160.57 205.835 160.842C206.03 161.087 206.173 161.365 206.265 161.678C206.367 161.984 206.402 162.3 206.371 162.627C206.338 162.981 206.246 163.311 206.095 163.619C205.945 163.917 205.705 164.164 205.373 164.359C205.65 164.559 205.84 164.799 205.944 165.078C206.057 165.358 206.09 165.748 206.043 166.248L205.878 167.993C205.86 168.183 205.846 168.338 205.834 168.458C205.831 168.58 205.833 168.702 205.839 168.824L203.473 168.601C203.465 168.409 203.471 168.214 203.489 168.015L203.654 166.27C203.68 165.995 203.626 165.79 203.49 165.655C203.355 165.521 203.115 165.437 202.771 165.405L198.699 165.02L198.406 168.123ZM203.023 163.42C203.187 163.436 203.323 163.422 203.431 163.38C203.539 163.338 203.632 163.278 203.709 163.198C203.834 163.071 203.904 162.925 203.92 162.761C203.939 162.563 203.889 162.393 203.772 162.252C203.649 162.084 203.445 161.986 203.161 161.959L199.218 161.587C199.089 161.575 199.019 161.634 199.006 161.763L198.887 163.03L203.023 163.42ZM210.138 160.414L209.313 169.152L206.961 168.93L207.785 160.192L210.138 160.414ZM221.735 169.933C221.763 170.005 221.783 170.072 221.795 170.134C221.815 170.196 221.83 170.263 221.841 170.334L219.204 170.085C219.193 170.023 219.18 169.97 219.167 169.925C219.155 169.872 219.142 169.823 219.129 169.778L218.763 168.674L213.593 168.186L213.042 169.191C213.02 169.241 212.998 169.291 212.975 169.341C212.953 169.391 212.935 169.441 212.922 169.492L210.22 169.237C210.244 169.17 210.268 169.107 210.29 169.048C210.322 168.99 210.358 168.929 210.399 168.863L214.181 162.23C214.482 161.71 214.848 161.336 215.278 161.107C215.708 160.878 216.238 160.794 216.867 160.853C217.479 160.911 217.975 161.092 218.354 161.398C218.743 161.704 219.036 162.14 219.235 162.707L221.735 169.933ZM218.092 166.668L217.043 163.413C217.009 163.314 216.959 163.24 216.894 163.19C216.829 163.14 216.754 163.111 216.668 163.103C216.59 163.096 216.515 163.111 216.442 163.147C216.37 163.175 216.307 163.239 216.254 163.338L214.628 166.341L218.092 166.668Z" fill="white"/>
<path d="M93.8286 177.341L97.3216 171.28L97.9822 171.342L100.28 177.949L99.5743 177.883L97.4749 171.687L97.7464 171.713L94.5253 177.407L93.8286 177.341ZM95.1283 175.756L95.3786 175.232L99.0613 175.58L99.2091 176.141L95.1283 175.756ZM101.301 178.046L101.805 172.698C101.845 172.276 102.001 171.947 102.273 171.711C102.544 171.475 102.913 171.379 103.377 171.422C103.558 171.439 103.731 171.48 103.895 171.544C104.059 171.609 104.194 171.697 104.299 171.811L104.037 172.27C103.953 172.183 103.853 172.115 103.736 172.068C103.619 172.014 103.492 171.981 103.353 171.968C103.081 171.942 102.866 171.998 102.707 172.135C102.548 172.272 102.455 172.489 102.427 172.784L102.359 173.508L102.349 173.808L101.943 178.106L101.301 178.046ZM100.848 173.749L100.898 173.215L103.839 173.493L103.789 174.026L100.848 173.749ZM104.258 178.325L104.706 173.574L105.322 173.632L105.2 174.926L105.158 174.694C105.324 174.345 105.574 174.091 105.905 173.934C106.237 173.771 106.635 173.711 107.099 173.755L107.041 174.379C107.016 174.377 106.992 174.374 106.968 174.372C106.945 174.364 106.921 174.358 106.897 174.356C106.396 174.309 105.989 174.426 105.677 174.707C105.365 174.982 105.182 175.399 105.129 175.96L104.901 178.385L104.258 178.325ZM107.819 178.661L108.267 173.91L108.91 173.971L108.462 178.721L107.819 178.661ZM108.692 172.892C108.559 172.879 108.452 172.823 108.37 172.724C108.288 172.625 108.253 172.512 108.265 172.386C108.277 172.259 108.332 172.158 108.431 172.082C108.53 172 108.646 171.965 108.778 171.978C108.911 171.99 109.019 172.043 109.101 172.136C109.184 172.229 109.219 172.339 109.207 172.465C109.195 172.598 109.139 172.705 109.04 172.787C108.947 172.87 108.831 172.905 108.692 172.892ZM112.217 179.121C111.747 179.077 111.334 178.935 110.98 178.694C110.632 178.448 110.369 178.135 110.192 177.753C110.016 177.365 109.95 176.936 109.994 176.465C110.039 175.989 110.184 175.579 110.429 175.237C110.675 174.895 110.991 174.639 111.378 174.469C111.772 174.299 112.204 174.236 112.674 174.281C113.078 174.319 113.436 174.432 113.747 174.619C114.058 174.807 114.292 175.066 114.449 175.397L113.939 175.678C113.799 175.421 113.614 175.224 113.383 175.087C113.153 174.949 112.896 174.867 112.612 174.841C112.274 174.809 111.962 174.858 111.676 174.99C111.39 175.115 111.156 175.309 110.973 175.572C110.79 175.834 110.681 176.153 110.646 176.527C110.61 176.901 110.658 177.234 110.789 177.526C110.919 177.818 111.113 178.056 111.37 178.238C111.627 178.414 111.924 178.519 112.262 178.55C112.546 178.577 112.813 178.545 113.066 178.453C113.318 178.361 113.536 178.205 113.721 177.985L114.17 178.356C113.954 178.646 113.676 178.857 113.334 178.989C112.994 179.115 112.622 179.159 112.217 179.121ZM118.325 179.652L118.424 178.602L118.413 178.428L118.578 176.672C118.616 176.268 118.531 175.947 118.322 175.708C118.12 175.47 117.795 175.33 117.349 175.288C117.041 175.259 116.744 175.282 116.457 175.359C116.169 175.435 115.921 175.548 115.712 175.699L115.468 175.192C115.729 175.01 116.033 174.88 116.381 174.804C116.73 174.721 117.091 174.697 117.465 174.733C118.08 174.791 118.539 174.989 118.842 175.328C119.151 175.661 119.277 176.139 119.218 176.76L118.94 179.71L118.325 179.652ZM116.683 179.543C116.327 179.509 116.021 179.422 115.767 179.283C115.519 179.138 115.335 178.956 115.216 178.738C115.097 178.514 115.05 178.266 115.076 177.994C115.099 177.747 115.178 177.529 115.311 177.341C115.451 177.147 115.659 177.003 115.936 176.907C116.22 176.806 116.587 176.777 117.04 176.819L118.678 176.974L118.632 177.454L117.013 177.301C116.554 177.257 116.227 177.309 116.031 177.455C115.84 177.601 115.734 177.795 115.711 178.036C115.685 178.307 115.77 178.535 115.966 178.717C116.162 178.9 116.45 179.009 116.83 179.045C117.192 179.079 117.51 179.027 117.785 178.889C118.066 178.745 118.282 178.522 118.432 178.22L118.535 178.677C118.385 178.979 118.15 179.209 117.831 179.368C117.518 179.527 117.135 179.585 116.683 179.543ZM123.562 175.308C123.948 175.344 124.279 175.451 124.554 175.63C124.836 175.802 125.044 176.047 125.179 176.364C125.319 176.682 125.368 177.07 125.324 177.528L125.064 180.288L124.422 180.227L124.676 177.531C124.723 177.03 124.632 176.641 124.403 176.364C124.18 176.081 123.842 175.918 123.39 175.876C123.052 175.844 122.75 175.885 122.483 176C122.224 176.11 122.012 176.287 121.849 176.534C121.692 176.775 121.597 177.076 121.563 177.438L121.327 179.935L120.685 179.875L121.133 175.124L121.748 175.182L121.625 176.485L121.549 176.232C121.732 175.902 121.999 175.656 122.349 175.495C122.699 175.327 123.104 175.265 123.562 175.308ZM134.533 174.791L135.194 174.853L134.596 181.187L133.936 181.125L134.533 174.791ZM129.973 180.751L129.303 180.688L129.901 174.354L130.57 174.417L129.973 180.751ZM134.275 178.208L130.176 177.821L130.232 177.233L134.33 177.62L134.275 178.208ZM138.542 181.605C138.047 181.558 137.622 181.415 137.268 181.174C136.914 180.928 136.648 180.614 136.471 180.232C136.295 179.844 136.229 179.415 136.273 178.944C136.317 178.474 136.456 178.067 136.689 177.724C136.929 177.381 137.233 177.124 137.602 176.952C137.978 176.774 138.386 176.706 138.826 176.748C139.273 176.79 139.658 176.93 139.983 177.167C140.314 177.399 140.561 177.709 140.726 178.096C140.891 178.476 140.951 178.905 140.906 179.381C140.903 179.412 140.897 179.445 140.887 179.48C140.884 179.51 140.881 179.543 140.878 179.58L136.743 179.19L136.788 178.71L140.579 179.068L140.308 179.234C140.34 178.89 140.294 178.578 140.168 178.299C140.049 178.013 139.87 177.784 139.631 177.609C139.391 177.434 139.106 177.331 138.774 177.3C138.449 177.269 138.149 177.317 137.875 177.443C137.602 177.57 137.38 177.762 137.209 178.019C137.039 178.277 136.937 178.581 136.904 178.931L136.895 179.03C136.861 179.392 136.909 179.719 137.04 180.012C137.177 180.299 137.38 180.534 137.648 180.717C137.924 180.895 138.245 181.002 138.613 181.037C138.903 181.064 139.176 181.038 139.433 180.959C139.696 180.88 139.928 180.744 140.129 180.55L140.452 181C140.217 181.234 139.933 181.402 139.601 181.504C139.275 181.607 138.922 181.641 138.542 181.605ZM144.833 182.153L144.932 181.103L144.921 180.929L145.087 179.173C145.125 178.769 145.04 178.448 144.831 178.209C144.628 177.971 144.304 177.831 143.857 177.789C143.55 177.76 143.252 177.783 142.965 177.86C142.678 177.936 142.43 178.049 142.221 178.2L141.977 177.693C142.237 177.511 142.542 177.381 142.89 177.305C143.238 177.222 143.6 177.198 143.974 177.234C144.589 177.292 145.048 177.49 145.351 177.829C145.66 178.163 145.785 178.64 145.727 179.261L145.448 182.211L144.833 182.153ZM143.191 182.044C142.835 182.01 142.53 181.923 142.275 181.784C142.027 181.639 141.844 181.457 141.724 181.239C141.605 181.015 141.559 180.767 141.584 180.495C141.608 180.248 141.686 180.03 141.82 179.842C141.96 179.648 142.168 179.504 142.445 179.408C142.728 179.307 143.096 179.278 143.548 179.32L145.186 179.475L145.141 179.955L143.521 179.802C143.063 179.758 142.735 179.81 142.539 179.956C142.349 180.102 142.242 180.296 142.22 180.537C142.194 180.808 142.279 181.036 142.475 181.218C142.671 181.401 142.958 181.51 143.338 181.546C143.7 181.58 144.019 181.528 144.293 181.39C144.575 181.246 144.791 181.023 144.941 180.721L145.044 181.178C144.894 181.48 144.659 181.71 144.34 181.869C144.026 182.028 143.644 182.086 143.191 182.044ZM149.08 182.599C148.628 182.557 148.23 182.416 147.888 182.176C147.551 181.938 147.297 181.628 147.126 181.246C146.956 180.859 146.893 180.427 146.938 179.951C146.984 179.468 147.126 179.055 147.365 178.713C147.605 178.37 147.912 178.116 148.286 177.951C148.668 177.78 149.084 177.716 149.537 177.758C149.953 177.798 150.315 177.926 150.623 178.144C150.937 178.362 151.174 178.661 151.333 179.042C151.498 179.416 151.557 179.863 151.508 180.382C151.459 180.894 151.322 181.323 151.094 181.666C150.867 182.01 150.579 182.263 150.229 182.425C149.885 182.581 149.502 182.639 149.08 182.599ZM149.179 182.033C149.517 182.065 149.826 182.018 150.105 181.893C150.392 181.761 150.623 181.564 150.8 181.301C150.984 181.032 151.093 180.714 151.128 180.346C151.163 179.972 151.115 179.639 150.985 179.346C150.86 179.055 150.669 178.821 150.412 178.644C150.161 178.462 149.867 178.356 149.529 178.324C149.197 178.292 148.891 178.343 148.611 178.474C148.332 178.6 148.1 178.794 147.917 179.057C147.734 179.32 147.625 179.638 147.59 180.012C147.555 180.38 147.603 180.713 147.733 181.012C147.863 181.304 148.054 181.541 148.305 181.723C148.556 181.899 148.847 182.002 149.179 182.033ZM150.921 182.727L151.056 181.298L151.21 180.345L151.21 179.377L151.528 176.011L152.17 176.072L151.536 182.785L150.921 182.727ZM155.212 183.178C154.76 183.135 154.363 182.994 154.02 182.755C153.683 182.516 153.43 182.206 153.259 181.825C153.088 181.444 153.025 181.012 153.071 180.529C153.116 180.053 153.258 179.643 153.497 179.301C153.737 178.952 154.044 178.695 154.419 178.529C154.8 178.358 155.217 178.294 155.669 178.337C156.091 178.377 156.457 178.506 156.765 178.723C157.079 178.942 157.315 179.241 157.474 179.621C157.634 179.995 157.689 180.442 157.64 180.96C157.591 181.479 157.45 181.91 157.217 182.253C156.99 182.591 156.702 182.841 156.352 183.002C156.008 183.159 155.629 183.217 155.212 183.178ZM155.311 182.612C155.649 182.644 155.958 182.597 156.238 182.471C156.524 182.34 156.756 182.143 156.933 181.879C157.116 181.611 157.225 181.292 157.26 180.924C157.295 180.556 157.247 180.226 157.116 179.934C156.991 179.642 156.801 179.405 156.544 179.223C156.294 179.041 155.999 178.934 155.662 178.902C155.33 178.871 155.024 178.921 154.744 179.053C154.463 179.185 154.232 179.382 154.049 179.645C153.866 179.907 153.757 180.223 153.722 180.591C153.687 180.959 153.735 181.292 153.865 181.59C153.996 181.882 154.186 182.119 154.437 182.301C154.688 182.477 154.98 182.581 155.311 182.612ZM156.861 185.059L157.16 181.892L157.341 180.941L157.367 179.985L157.502 178.556L158.117 178.614L157.503 185.119L156.861 185.059ZM161.417 183.763C161.013 183.725 160.667 183.616 160.38 183.437C160.092 183.258 159.879 183.009 159.738 182.692C159.604 182.375 159.558 181.99 159.601 181.538L159.861 178.778L160.503 178.839L160.25 181.526C160.202 182.033 160.29 182.427 160.512 182.71C160.742 182.987 161.083 183.147 161.535 183.19C161.867 183.221 162.16 183.182 162.414 183.072C162.674 182.957 162.88 182.775 163.031 182.528C163.188 182.281 163.284 181.977 163.318 181.615L163.553 179.126L164.195 179.187L163.747 183.937L163.132 183.879L163.255 182.576L163.332 182.821C163.148 183.157 162.887 183.409 162.548 183.578C162.217 183.741 161.839 183.803 161.417 183.763ZM168.514 184.387L168.613 183.338L168.602 183.163L168.768 181.408C168.806 181.004 168.721 180.682 168.512 180.443C168.309 180.205 167.985 180.065 167.538 180.023C167.231 179.994 166.933 180.017 166.646 180.094C166.359 180.17 166.111 180.284 165.902 180.434L165.658 179.928C165.918 179.745 166.223 179.616 166.571 179.539C166.919 179.456 167.281 179.432 167.655 179.468C168.27 179.526 168.729 179.724 169.032 180.063C169.341 180.397 169.466 180.874 169.408 181.495L169.129 184.445L168.514 184.387ZM166.872 184.278C166.516 184.244 166.211 184.158 165.956 184.018C165.708 183.873 165.525 183.691 165.405 183.473C165.286 183.249 165.24 183.001 165.266 182.73C165.289 182.482 165.367 182.264 165.501 182.076C165.641 181.883 165.849 181.738 166.126 181.642C166.409 181.541 166.777 181.512 167.229 181.555L168.867 181.709L168.822 182.189L167.202 182.036C166.744 181.993 166.417 182.044 166.22 182.19C166.03 182.336 165.923 182.53 165.901 182.771C165.875 183.043 165.96 183.27 166.156 183.453C166.352 183.635 166.639 183.745 167.019 183.781C167.381 183.815 167.7 183.763 167.975 183.624C168.256 183.48 168.472 183.257 168.622 182.955L168.725 183.412C168.575 183.714 168.34 183.945 168.021 184.103C167.707 184.262 167.325 184.321 166.872 184.278ZM170.874 184.61L171.323 179.859L171.938 179.918L171.816 181.211L171.774 180.979C171.941 180.63 172.19 180.376 172.521 180.219C172.853 180.056 173.251 179.996 173.716 180.04L173.657 180.664C173.633 180.662 173.608 180.659 173.584 180.657C173.561 180.649 173.537 180.644 173.513 180.641C173.012 180.594 172.605 180.711 172.293 180.992C171.981 181.267 171.798 181.685 171.746 182.245L171.517 184.67L170.874 184.61ZM176.136 185.152C175.69 185.11 175.357 184.957 175.139 184.693C174.92 184.429 174.832 184.076 174.873 183.636L175.294 179.175L175.937 179.236L175.519 183.66C175.493 183.938 175.542 184.159 175.667 184.323C175.797 184.487 175.995 184.582 176.261 184.607C176.544 184.634 176.787 184.574 176.99 184.429L177.172 184.912C177.035 185.015 176.873 185.084 176.687 185.122C176.507 185.159 176.323 185.17 176.136 185.152ZM174.294 180.678L174.345 180.145L177.285 180.422L177.235 180.956L174.294 180.678ZM180.16 185.532C179.665 185.485 179.241 185.341 178.886 185.101C178.532 184.855 178.267 184.54 178.09 184.159C177.913 183.771 177.847 183.342 177.892 182.871C177.936 182.4 178.075 181.994 178.308 181.651C178.547 181.308 178.851 181.051 179.221 180.879C179.596 180.701 180.004 180.633 180.445 180.674C180.891 180.717 181.277 180.856 181.601 181.094C181.932 181.326 182.18 181.635 182.344 182.022C182.509 182.403 182.569 182.832 182.524 183.308C182.521 183.338 182.515 183.371 182.506 183.407C182.503 183.437 182.5 183.47 182.496 183.506L178.361 183.116L178.407 182.637L182.198 182.994L181.927 183.16C181.959 182.817 181.912 182.505 181.787 182.225C181.667 181.94 181.488 181.71 181.249 181.535C181.01 181.361 180.725 181.258 180.393 181.226C180.067 181.196 179.767 181.244 179.494 181.37C179.22 181.496 178.998 181.688 178.828 181.946C178.657 182.204 178.556 182.508 178.523 182.858L178.513 182.957C178.479 183.319 178.527 183.646 178.658 183.938C178.795 184.225 178.998 184.46 179.267 184.644C179.542 184.822 179.864 184.928 180.232 184.963C180.521 184.991 180.795 184.965 181.052 184.885C181.315 184.807 181.547 184.67 181.748 184.476L182.07 184.927C181.835 185.16 181.552 185.328 181.219 185.431C180.893 185.534 180.54 185.567 180.16 185.532ZM183.607 185.811L184.055 181.061L184.671 181.119L184.549 182.413L184.507 182.181C184.674 181.831 184.923 181.578 185.254 181.42C185.586 181.257 185.984 181.197 186.449 181.241L186.39 181.865C186.365 181.863 186.341 181.861 186.317 181.858C186.294 181.85 186.27 181.845 186.246 181.843C185.745 181.795 185.338 181.912 185.026 182.193C184.714 182.468 184.531 182.886 184.479 183.447L184.25 185.872L183.607 185.811ZM188.493 186.318C188.101 186.281 187.735 186.191 187.395 186.05C187.056 185.902 186.795 185.735 186.612 185.547L186.949 185.068C187.129 185.23 187.364 185.381 187.655 185.518C187.947 185.649 188.259 185.73 188.591 185.761C189.043 185.804 189.376 185.765 189.588 185.645C189.801 185.519 189.918 185.338 189.94 185.103C189.957 184.928 189.912 184.787 189.807 184.68C189.708 184.567 189.57 184.478 189.394 184.413C189.218 184.341 189.02 184.277 188.8 184.22C188.581 184.162 188.361 184.099 188.143 184.03C187.93 183.961 187.738 183.873 187.565 183.765C187.393 183.652 187.258 183.508 187.159 183.335C187.065 183.161 187.031 182.939 187.057 182.668C187.082 182.408 187.176 182.183 187.34 181.991C187.504 181.8 187.73 181.66 188.019 181.572C188.314 181.478 188.663 181.45 189.067 181.488C189.375 181.517 189.679 181.588 189.978 181.702C190.278 181.809 190.522 181.939 190.708 182.09L190.379 182.579C190.182 182.415 189.965 182.291 189.73 182.208C189.495 182.119 189.256 182.063 189.015 182.04C188.587 182 188.263 182.045 188.044 182.177C187.831 182.303 187.714 182.48 187.692 182.709C187.675 182.89 187.716 183.037 187.815 183.15C187.92 183.263 188.06 183.359 188.235 183.436C188.417 183.508 188.615 183.572 188.829 183.629C189.048 183.686 189.264 183.752 189.476 183.827C189.695 183.896 189.891 183.985 190.063 184.092C190.242 184.194 190.378 184.332 190.471 184.505C190.571 184.673 190.609 184.886 190.584 185.146C190.558 185.423 190.457 185.657 190.281 185.847C190.111 186.032 189.873 186.168 189.567 186.255C189.267 186.336 188.909 186.357 188.493 186.318Z" fill="white"/>
<path d="M96.8853 195.48C96.8403 195.28 96.7732 195.099 96.684 194.936C96.597 194.771 96.4877 194.627 96.356 194.504C96.2262 194.381 96.0749 194.283 95.9018 194.208C95.7288 194.134 95.5358 194.087 95.3228 194.067C94.9736 194.034 94.6476 194.094 94.3446 194.247C94.0417 194.401 93.7893 194.645 93.5873 194.98C93.3853 195.316 93.2602 195.738 93.2121 196.249C93.1639 196.759 93.2087 197.198 93.3463 197.565C93.484 197.932 93.6901 198.22 93.9647 198.428C94.2394 198.636 94.559 198.757 94.9235 198.791C95.2613 198.823 95.5655 198.779 95.8361 198.66C96.1089 198.538 96.3298 198.352 96.4987 198.101C96.6697 197.848 96.7722 197.541 96.8062 197.18L97.0206 197.247L95.2477 197.08L95.3074 196.446L97.5524 196.658L97.4926 197.291C97.4468 197.777 97.3034 198.189 97.0623 198.528C96.8231 198.868 96.5129 199.119 96.1316 199.283C95.7524 199.444 95.3287 199.503 94.8606 199.459C94.3386 199.41 93.8916 199.244 93.5195 198.961C93.1494 198.678 92.8753 198.3 92.6974 197.826C92.5214 197.353 92.4627 196.805 92.5213 196.184C92.5653 195.717 92.6672 195.304 92.8271 194.943C92.989 194.581 93.1975 194.28 93.4526 194.038C93.7076 193.797 93.9991 193.621 94.327 193.511C94.6549 193.401 95.0078 193.363 95.3858 193.399C95.6967 193.428 95.982 193.503 96.2417 193.622C96.5036 193.74 96.732 193.894 96.927 194.085C97.124 194.273 97.2824 194.493 97.4021 194.742C97.522 194.99 97.5953 195.259 97.6221 195.55L96.8853 195.48ZM98.4047 199.712L98.8218 195.291L99.478 195.353L99.415 196.021L99.4611 196.025C99.5623 195.814 99.7249 195.65 99.9488 195.534C100.173 195.418 100.417 195.372 100.682 195.397C100.732 195.402 100.794 195.409 100.869 195.418C100.943 195.427 101 195.435 101.038 195.442L100.972 196.133C100.95 196.125 100.898 196.111 100.817 196.092C100.737 196.071 100.653 196.056 100.562 196.048C100.347 196.028 100.151 196.055 99.974 196.129C99.7987 196.201 99.6547 196.312 99.542 196.46C99.4314 196.606 99.3667 196.779 99.3479 196.979L99.0839 199.776L98.4047 199.712ZM102.711 200.223C102.431 200.197 102.182 200.12 101.964 199.993C101.745 199.864 101.579 199.692 101.463 199.478C101.348 199.262 101.304 199.01 101.331 198.722C101.355 198.469 101.425 198.268 101.539 198.12C101.654 197.971 101.799 197.858 101.975 197.784C102.15 197.71 102.341 197.66 102.546 197.635C102.754 197.608 102.962 197.591 103.17 197.583C103.441 197.574 103.662 197.569 103.83 197.567C104.001 197.564 104.127 197.544 104.208 197.507C104.29 197.47 104.337 197.397 104.347 197.288L104.35 197.265C104.376 196.981 104.319 196.753 104.179 196.581C104.04 196.409 103.814 196.308 103.502 196.279C103.177 196.248 102.917 196.295 102.719 196.42C102.521 196.544 102.377 196.684 102.287 196.838L101.664 196.547C101.805 196.289 101.978 196.094 102.184 195.963C102.392 195.829 102.613 195.744 102.847 195.706C103.083 195.666 103.313 195.657 103.535 195.678C103.677 195.691 103.839 195.724 104.02 195.776C104.203 195.826 104.376 195.911 104.539 196.031C104.703 196.151 104.833 196.321 104.929 196.541C105.024 196.761 105.055 197.047 105.022 197.398L104.747 200.311L104.068 200.246L104.125 199.648L104.09 199.645C104.035 199.736 103.949 199.832 103.831 199.931C103.713 200.03 103.561 200.11 103.376 200.169C103.19 200.229 102.969 200.247 102.711 200.223ZM102.873 199.623C103.141 199.648 103.373 199.616 103.567 199.528C103.763 199.44 103.916 199.317 104.026 199.159C104.137 199.001 104.202 198.83 104.219 198.646L104.278 198.024C104.246 198.056 104.179 198.082 104.079 198.102C103.98 198.119 103.867 198.133 103.738 198.142C103.612 198.149 103.488 198.155 103.368 198.159C103.25 198.162 103.153 198.164 103.08 198.167C102.901 198.173 102.732 198.195 102.574 198.233C102.418 198.268 102.288 198.332 102.184 198.425C102.083 198.516 102.024 198.648 102.007 198.821C101.985 199.057 102.056 199.243 102.219 199.381C102.384 199.516 102.602 199.597 102.873 199.623ZM107.775 200.689C107.36 200.65 107.012 200.518 106.732 200.294C106.451 200.07 106.246 199.779 106.117 199.421C105.988 199.062 105.945 198.662 105.986 198.221C106.029 197.772 106.149 197.383 106.346 197.055C106.546 196.726 106.803 196.478 107.119 196.312C107.437 196.145 107.795 196.08 108.194 196.117C108.505 196.147 108.78 196.231 109.018 196.369C109.257 196.508 109.446 196.689 109.586 196.911C109.725 197.133 109.801 197.384 109.814 197.664L109.135 197.6C109.102 197.394 109.003 197.204 108.84 197.032C108.678 196.858 108.447 196.757 108.148 196.729C107.883 196.704 107.645 196.751 107.432 196.87C107.222 196.988 107.049 197.166 106.914 197.405C106.781 197.642 106.699 197.928 106.668 198.262C106.636 198.603 106.661 198.906 106.745 199.169C106.83 199.433 106.965 199.644 107.15 199.802C107.336 199.961 107.563 200.054 107.832 200.079C108.009 200.096 108.172 200.08 108.321 200.032C108.471 199.984 108.601 199.908 108.712 199.802C108.823 199.696 108.907 199.565 108.964 199.407L109.643 199.472C109.58 199.729 109.463 199.955 109.292 200.15C109.123 200.343 108.908 200.489 108.649 200.589C108.392 200.686 108.101 200.72 107.775 200.689ZM112.359 201.122C111.933 201.081 111.575 200.953 111.284 200.736C110.995 200.517 110.783 200.229 110.648 199.874C110.515 199.517 110.47 199.112 110.513 198.659C110.555 198.206 110.676 197.815 110.873 197.485C111.073 197.154 111.331 196.905 111.646 196.739C111.964 196.572 112.322 196.507 112.722 196.545C112.952 196.566 113.176 196.626 113.393 196.724C113.61 196.822 113.803 196.966 113.971 197.156C114.139 197.344 114.264 197.584 114.347 197.877C114.43 198.169 114.452 198.522 114.413 198.934L114.385 199.222L110.978 198.901L111.033 198.313L113.75 198.57C113.774 198.32 113.745 198.093 113.663 197.888C113.584 197.683 113.459 197.515 113.287 197.385C113.117 197.255 112.91 197.178 112.664 197.155C112.393 197.129 112.153 197.174 111.943 197.29C111.735 197.404 111.568 197.562 111.442 197.765C111.316 197.968 111.242 198.192 111.219 198.435L111.182 198.827C111.151 199.161 111.181 199.449 111.275 199.692C111.37 199.934 111.516 200.124 111.711 200.265C111.907 200.403 112.143 200.486 112.417 200.511C112.595 200.528 112.759 200.519 112.908 200.482C113.058 200.444 113.191 200.379 113.306 200.288C113.422 200.194 113.515 200.073 113.587 199.925L114.226 200.171C114.136 200.387 114.002 200.572 113.823 200.725C113.644 200.877 113.43 200.988 113.181 201.06C112.933 201.129 112.659 201.15 112.359 201.122ZM117.603 201.523L118.16 195.629L120.22 195.823C120.631 195.862 120.963 195.965 121.216 196.132C121.47 196.297 121.651 196.505 121.759 196.755C121.867 197.004 121.907 197.272 121.88 197.56C121.856 197.813 121.791 198.018 121.686 198.174C121.582 198.331 121.452 198.45 121.298 198.533C121.145 198.615 120.982 198.671 120.808 198.701L120.803 198.759C120.982 198.787 121.158 198.868 121.329 199C121.5 199.133 121.637 199.312 121.74 199.538C121.842 199.765 121.879 200.034 121.85 200.344C121.822 200.64 121.73 200.899 121.573 201.123C121.416 201.346 121.187 201.513 120.884 201.624C120.581 201.735 120.198 201.768 119.733 201.724L117.603 201.523ZM118.377 200.958L119.793 201.091C120.259 201.135 120.599 201.076 120.812 200.914C121.026 200.751 121.146 200.539 121.17 200.28C121.189 200.081 121.156 199.892 121.07 199.713C120.984 199.533 120.852 199.383 120.674 199.264C120.496 199.142 120.278 199.069 120.021 199.045L118.57 198.908L118.377 200.958ZM118.629 198.287L119.953 198.412C120.168 198.432 120.366 198.408 120.546 198.34C120.729 198.272 120.878 198.166 120.994 198.022C121.113 197.878 121.181 197.703 121.201 197.496C121.225 197.237 121.156 197.008 120.993 196.811C120.829 196.612 120.552 196.494 120.161 196.457L118.814 196.33L118.629 198.287ZM124.628 202.279C124.202 202.239 123.843 202.11 123.552 201.893C123.263 201.674 123.051 201.387 122.916 201.032C122.783 200.674 122.738 200.269 122.781 199.817C122.824 199.364 122.944 198.972 123.141 198.643C123.341 198.311 123.599 198.062 123.914 197.897C124.232 197.729 124.591 197.664 124.99 197.702C125.22 197.724 125.444 197.784 125.661 197.882C125.878 197.979 126.071 198.123 126.239 198.314C126.407 198.502 126.532 198.742 126.615 199.034C126.698 199.327 126.72 199.679 126.681 200.092L126.654 200.379L123.246 200.058L123.301 199.471L126.018 199.727C126.042 199.478 126.013 199.25 125.932 199.045C125.852 198.84 125.727 198.673 125.555 198.542C125.385 198.412 125.178 198.335 124.932 198.312C124.662 198.287 124.421 198.332 124.211 198.447C124.003 198.561 123.836 198.72 123.71 198.923C123.585 199.126 123.51 199.349 123.487 199.593L123.45 199.984C123.419 200.318 123.45 200.607 123.543 200.85C123.638 201.091 123.784 201.282 123.98 201.422C124.176 201.561 124.411 201.643 124.685 201.669C124.864 201.686 125.027 201.676 125.176 201.64C125.326 201.602 125.459 201.537 125.575 201.445C125.69 201.351 125.783 201.23 125.856 201.082L126.494 201.329C126.404 201.545 126.27 201.729 126.091 201.883C125.912 202.034 125.698 202.146 125.449 202.217C125.201 202.287 124.927 202.307 124.628 202.279ZM129.84 198.218L129.785 198.793L127.494 198.577L127.549 198.002L129.84 198.218ZM128.316 197.005L128.996 197.069L128.598 201.283C128.58 201.475 128.594 201.621 128.641 201.723C128.69 201.822 128.756 201.892 128.842 201.933C128.929 201.972 129.022 201.997 129.122 202.006C129.197 202.013 129.259 202.015 129.308 202.012C129.356 202.007 129.396 202.003 129.425 202L129.505 202.623C129.458 202.636 129.392 202.647 129.308 202.657C129.223 202.668 129.118 202.668 128.991 202.656C128.799 202.638 128.615 202.579 128.439 202.479C128.264 202.379 128.125 202.239 128.02 202.059C127.917 201.879 127.877 201.66 127.901 201.403L128.316 197.005ZM132.784 198.495L132.73 199.071L130.439 198.855L130.493 198.279L132.784 198.495ZM131.261 197.283L131.94 197.347L131.542 201.561C131.524 201.753 131.539 201.899 131.585 202C131.634 202.1 131.701 202.17 131.786 202.211C131.873 202.25 131.967 202.275 132.067 202.284C132.141 202.291 132.203 202.293 132.252 202.29C132.301 202.285 132.34 202.281 132.369 202.278L132.45 202.901C132.402 202.914 132.336 202.925 132.252 202.935C132.168 202.946 132.062 202.946 131.936 202.934C131.744 202.916 131.56 202.857 131.383 202.757C131.209 202.657 131.069 202.517 130.964 202.337C130.861 202.157 130.822 201.938 130.846 201.681L131.261 197.283ZM133.67 204.712C133.555 204.701 133.453 204.682 133.365 204.654C133.276 204.628 133.215 204.605 133.182 204.585L133.412 204.002C133.573 204.06 133.717 204.089 133.845 204.09C133.972 204.09 134.09 204.044 134.197 203.951C134.307 203.861 134.413 203.708 134.517 203.491L134.676 203.157L133.46 198.559L134.197 198.629L135.085 202.267L135.131 202.271L136.684 198.863L137.421 198.933L135.066 203.821C134.96 204.042 134.838 204.221 134.699 204.359C134.56 204.499 134.405 204.597 134.233 204.655C134.063 204.712 133.875 204.731 133.67 204.712ZM144.696 198.133L145.41 198.2L145.042 202.103C145.004 202.506 144.875 202.857 144.655 203.155C144.437 203.452 144.148 203.676 143.788 203.825C143.427 203.973 143.016 204.026 142.553 203.982C142.091 203.938 141.696 203.81 141.37 203.597C141.044 203.383 140.8 203.109 140.64 202.776C140.482 202.442 140.422 202.073 140.46 201.67L140.828 197.768L141.542 197.835L141.179 201.68C141.152 201.968 141.191 202.23 141.296 202.467C141.402 202.701 141.566 202.894 141.788 203.044C142.012 203.193 142.288 203.283 142.616 203.314C142.944 203.345 143.232 203.308 143.48 203.204C143.728 203.098 143.925 202.939 144.071 202.728C144.219 202.516 144.306 202.266 144.333 201.978L144.696 198.133ZM147.848 204.47C147.479 204.435 147.163 204.311 146.899 204.099C146.634 203.884 146.439 203.598 146.312 203.242C146.185 202.883 146.143 202.47 146.187 202.002C146.231 201.537 146.349 201.142 146.54 200.815C146.732 200.489 146.978 200.246 147.28 200.087C147.581 199.927 147.918 199.865 148.291 199.9C148.578 199.928 148.801 199.997 148.959 200.109C149.119 200.219 149.238 200.338 149.314 200.467C149.393 200.595 149.454 200.699 149.497 200.781L149.554 200.786L149.76 198.61L150.439 198.674L149.883 204.569L149.227 204.507L149.291 203.828L149.21 203.82C149.153 203.896 149.072 203.991 148.968 204.105C148.865 204.217 148.723 204.313 148.543 204.393C148.364 204.471 148.132 204.497 147.848 204.47ZM147.998 203.868C148.27 203.894 148.507 203.845 148.708 203.721C148.91 203.594 149.072 203.409 149.193 203.165C149.315 202.919 149.392 202.629 149.424 202.295C149.455 201.965 149.434 201.672 149.361 201.416C149.289 201.157 149.165 200.95 148.99 200.794C148.816 200.636 148.59 200.544 148.314 200.518C148.026 200.491 147.779 200.542 147.573 200.672C147.369 200.8 147.208 200.985 147.088 201.227C146.971 201.468 146.897 201.744 146.868 202.054C146.838 202.369 146.859 202.659 146.931 202.926C147.005 203.19 147.129 203.407 147.305 203.577C147.483 203.744 147.714 203.842 147.998 203.868ZM153.008 204.957C152.609 204.919 152.268 204.791 151.985 204.573C151.703 204.354 151.494 204.067 151.358 203.709C151.223 203.352 151.177 202.945 151.22 202.488C151.264 202.028 151.385 201.634 151.584 201.306C151.786 200.978 152.045 200.734 152.362 200.572C152.681 200.41 153.041 200.349 153.44 200.386C153.839 200.424 154.179 200.552 154.46 200.77C154.744 200.988 154.953 201.277 155.087 201.636C155.224 201.996 155.27 202.406 155.227 202.866C155.184 203.323 155.062 203.714 154.86 204.04C154.661 204.365 154.402 204.609 154.083 204.771C153.766 204.932 153.408 204.994 153.008 204.957ZM153.066 204.347C153.369 204.375 153.626 204.321 153.836 204.184C154.047 204.047 154.211 203.856 154.329 203.612C154.447 203.368 154.52 203.098 154.547 202.802C154.575 202.507 154.554 202.227 154.484 201.963C154.414 201.699 154.289 201.479 154.108 201.303C153.927 201.127 153.685 201.025 153.382 200.996C153.079 200.968 152.822 201.023 152.611 201.162C152.401 201.301 152.237 201.493 152.119 201.74C152 201.986 151.927 202.257 151.9 202.552C151.872 202.848 151.893 203.127 151.963 203.389C152.033 203.651 152.159 203.869 152.34 204.043C152.521 204.217 152.763 204.318 153.066 204.347ZM156.842 203.599L156.91 202.758L157.048 202.771L159.168 200.985L160.009 201.064L157.751 202.953L157.694 202.948L156.842 203.599ZM156.057 205.151L156.613 199.257L157.293 199.321L156.736 205.216L156.057 205.151ZM158.866 205.416L157.346 203.066L157.874 202.64L159.73 205.498L158.866 205.416ZM161.467 205.662L160.538 201.114L161.251 201.181L161.888 204.656L161.934 204.661L163.197 201.365L163.922 201.433L164.537 204.894L164.583 204.899L165.856 201.616L166.57 201.683L164.806 205.977L164.138 205.914L163.492 202.426L163.423 202.42L162.135 205.725L161.467 205.662ZM168.746 206.441C168.32 206.401 167.961 206.273 167.67 206.055C167.381 205.836 167.169 205.549 167.034 205.194C166.901 204.837 166.856 204.432 166.899 203.979C166.941 203.526 167.062 203.135 167.259 202.805C167.459 202.474 167.717 202.225 168.032 202.059C168.35 201.892 168.709 201.827 169.108 201.864C169.338 201.886 169.562 201.946 169.779 202.044C169.996 202.142 170.189 202.286 170.357 202.476C170.525 202.664 170.65 202.904 170.733 203.197C170.816 203.489 170.838 203.842 170.799 204.254L170.772 204.542L167.364 204.22L167.419 203.633L170.136 203.89C170.16 203.64 170.131 203.413 170.05 203.208C169.97 203.003 169.845 202.835 169.673 202.705C169.503 202.574 169.296 202.498 169.05 202.475C168.78 202.449 168.539 202.494 168.329 202.61C168.121 202.724 167.954 202.882 167.828 203.085C167.702 203.288 167.628 203.512 167.605 203.755L167.568 204.147C167.537 204.481 167.568 204.769 167.661 205.012C167.756 205.253 167.902 205.444 168.098 205.585C168.294 205.723 168.529 205.805 168.803 205.831C168.982 205.848 169.145 205.838 169.294 205.802C169.444 205.764 169.577 205.699 169.692 205.607C169.808 205.514 169.901 205.393 169.973 205.245L170.612 205.491C170.522 205.707 170.388 205.892 170.209 206.045C170.03 206.197 169.816 206.308 169.567 206.38C169.319 206.449 169.045 206.47 168.746 206.441ZM177.63 202.727C177.623 202.432 177.504 202.192 177.274 202.008C177.044 201.823 176.75 201.714 176.393 201.681C176.132 201.656 175.9 201.677 175.696 201.743C175.494 201.809 175.332 201.911 175.209 202.048C175.087 202.186 175.018 202.348 175 202.536C174.985 202.694 175.01 202.833 175.074 202.953C175.14 203.071 175.229 203.174 175.341 203.26C175.453 203.344 175.572 203.416 175.698 203.476C175.824 203.535 175.941 203.584 176.047 203.623L176.631 203.84C176.78 203.895 176.946 203.967 177.127 204.056C177.311 204.144 177.483 204.258 177.644 204.398C177.807 204.535 177.936 204.704 178.032 204.905C178.127 205.105 178.162 205.344 178.135 205.62C178.105 205.938 177.995 206.218 177.804 206.46C177.614 206.701 177.353 206.883 177.02 207.004C176.69 207.126 176.298 207.166 175.845 207.123C175.423 207.083 175.064 206.98 174.768 206.815C174.473 206.65 174.25 206.437 174.096 206.177C173.944 205.917 173.872 205.624 173.88 205.3L174.616 205.369C174.615 205.594 174.672 205.785 174.789 205.943C174.908 206.099 175.064 206.223 175.259 206.313C175.456 206.401 175.672 206.456 175.906 206.478C176.178 206.504 176.427 206.483 176.652 206.415C176.877 206.345 177.061 206.237 177.203 206.089C177.344 205.94 177.426 205.758 177.446 205.543C177.464 205.348 177.425 205.183 177.327 205.05C177.229 204.917 177.095 204.804 176.923 204.71C176.752 204.616 176.566 204.531 176.364 204.454L175.658 204.178C175.21 204.002 174.863 203.779 174.618 203.508C174.372 203.237 174.268 202.903 174.306 202.506C174.337 202.176 174.453 201.896 174.655 201.668C174.859 201.437 175.119 201.268 175.435 201.16C175.753 201.051 176.1 201.014 176.476 201.05C176.856 201.085 177.187 201.185 177.47 201.35C177.753 201.512 177.969 201.718 178.12 201.968C178.272 202.219 178.339 202.493 178.321 202.792L177.63 202.727ZM181.406 203.083L181.351 203.658L179.06 203.442L179.115 202.867L181.406 203.083ZM179.882 201.87L180.562 201.935L180.164 206.148C180.146 206.34 180.16 206.487 180.207 206.588C180.255 206.687 180.322 206.757 180.408 206.798C180.495 206.838 180.588 206.862 180.688 206.871C180.763 206.878 180.825 206.88 180.873 206.877C180.922 206.872 180.961 206.868 180.991 206.865L181.071 207.488C181.024 207.501 180.958 207.512 180.874 207.522C180.789 207.533 180.684 207.533 180.557 207.521C180.365 207.503 180.181 207.444 180.005 207.344C179.83 207.244 179.69 207.104 179.586 206.924C179.483 206.744 179.443 206.525 179.467 206.268L179.882 201.87ZM182.01 207.6L182.427 203.179L183.084 203.241L183.021 203.909L183.067 203.913C183.168 203.702 183.33 203.538 183.554 203.422C183.778 203.306 184.023 203.26 184.287 203.285C184.337 203.29 184.4 203.297 184.474 203.306C184.549 203.314 184.605 203.323 184.643 203.33L184.578 204.021C184.556 204.013 184.504 203.999 184.422 203.98C184.343 203.959 184.258 203.944 184.168 203.936C183.953 203.916 183.757 203.942 183.58 204.017C183.404 204.089 183.26 204.2 183.148 204.348C183.037 204.494 182.972 204.667 182.953 204.867L182.69 207.664L182.01 207.6ZM186.736 208.139C186.31 208.099 185.952 207.97 185.66 207.753C185.371 207.534 185.159 207.247 185.025 206.891C184.892 206.534 184.847 206.129 184.889 205.676C184.932 205.224 185.052 204.832 185.25 204.502C185.45 204.171 185.707 203.922 186.023 203.757C186.341 203.589 186.699 203.524 187.098 203.562C187.329 203.584 187.552 203.643 187.77 203.741C187.987 203.839 188.179 203.983 188.347 204.173C188.515 204.361 188.641 204.602 188.724 204.894C188.806 205.186 188.828 205.539 188.789 205.951L188.762 206.239L185.354 205.918L185.41 205.331L188.127 205.587C188.15 205.338 188.122 205.11 188.04 204.905C187.961 204.7 187.835 204.532 187.664 204.402C187.494 204.272 187.286 204.195 187.041 204.172C186.77 204.146 186.53 204.192 186.319 204.307C186.111 204.421 185.944 204.58 185.819 204.783C185.693 204.986 185.619 205.209 185.596 205.453L185.559 205.844C185.527 206.178 185.558 206.466 185.651 206.709C185.747 206.951 185.892 207.142 186.088 207.282C186.284 207.421 186.519 207.503 186.794 207.529C186.972 207.546 187.136 207.536 187.284 207.499C187.435 207.461 187.568 207.397 187.683 207.305C187.798 207.211 187.892 207.09 187.964 206.942L188.603 207.188C188.513 207.404 188.378 207.589 188.199 207.743C188.02 207.894 187.807 208.006 187.558 208.077C187.309 208.146 187.036 208.167 186.736 208.139ZM191.454 208.584C191.028 208.544 190.669 208.415 190.378 208.198C190.089 207.979 189.877 207.692 189.742 207.336C189.609 206.979 189.564 206.574 189.607 206.121C189.649 205.669 189.77 205.277 189.967 204.948C190.167 204.616 190.425 204.367 190.74 204.202C191.058 204.034 191.417 203.969 191.816 204.007C192.046 204.029 192.27 204.088 192.487 204.186C192.704 204.284 192.897 204.428 193.065 204.618C193.233 204.807 193.358 205.047 193.441 205.339C193.524 205.632 193.546 205.984 193.507 206.397L193.48 206.684L190.072 206.363L190.127 205.776L192.844 206.032C192.868 205.783 192.839 205.555 192.758 205.35C192.678 205.145 192.553 204.978 192.381 204.847C192.211 204.717 192.004 204.64 191.758 204.617C191.488 204.592 191.247 204.637 191.037 204.752C190.829 204.866 190.662 205.025 190.536 205.228C190.41 205.431 190.336 205.654 190.313 205.898L190.276 206.289C190.245 206.623 190.276 206.912 190.369 207.155C190.464 207.396 190.61 207.587 190.805 207.727C191.001 207.866 191.237 207.948 191.511 207.974C191.69 207.991 191.853 207.981 192.002 207.945C192.152 207.906 192.285 207.842 192.4 207.75C192.516 207.656 192.609 207.535 192.681 207.387L193.32 207.633C193.23 207.849 193.096 208.034 192.917 208.188C192.738 208.339 192.524 208.451 192.275 208.522C192.027 208.592 191.753 208.612 191.454 208.584ZM196.666 204.523L196.611 205.098L194.32 204.882L194.375 204.306L196.666 204.523ZM195.142 203.31L195.822 203.374L195.424 207.588C195.406 207.78 195.42 207.926 195.467 208.028C195.515 208.127 195.582 208.197 195.668 208.238C195.755 208.277 195.848 208.302 195.948 208.311C196.023 208.318 196.085 208.32 196.133 208.317C196.182 208.312 196.221 208.308 196.251 208.305L196.331 208.928C196.284 208.941 196.218 208.952 196.134 208.962C196.049 208.973 195.944 208.973 195.817 208.961C195.625 208.943 195.441 208.884 195.265 208.784C195.09 208.684 194.951 208.544 194.846 208.364C194.743 208.184 194.703 207.965 194.727 207.708L195.142 203.31ZM91.0646 214.086L91.6207 208.192L92.3345 208.259L91.8381 213.52L94.5781 213.779L94.5184 214.412L91.0646 214.086ZM97.3763 214.775C96.9504 214.734 96.5918 214.606 96.3006 214.389C96.0115 214.17 95.7995 213.882 95.6646 213.527C95.5319 213.17 95.4868 212.765 95.5295 212.312C95.5723 211.859 95.6924 211.468 95.89 211.138C96.0897 210.807 96.3474 210.558 96.6631 210.392C96.9809 210.225 97.3394 210.16 97.7385 210.198C97.9687 210.219 98.1925 210.279 98.4097 210.377C98.627 210.475 98.8196 210.619 98.9875 210.809C99.1556 210.997 99.281 211.237 99.3638 211.53C99.4465 211.822 99.4684 212.175 99.4295 212.587L99.4024 212.875L95.9946 212.554L96.05 211.966L98.767 212.223C98.7905 211.973 98.7616 211.746 98.6803 211.541C98.6009 211.336 98.4754 211.168 98.3038 211.038C98.1341 210.908 97.9265 210.831 97.6809 210.808C97.4104 210.782 97.1699 210.827 96.9596 210.943C96.7514 211.057 96.5845 211.215 96.4589 211.418C96.3332 211.621 96.2589 211.845 96.2359 212.088L96.199 212.48C96.1675 212.814 96.1984 213.102 96.2916 213.345C96.3869 213.587 96.5325 213.777 96.7283 213.918C96.9243 214.056 97.1595 214.139 97.4339 214.164C97.6123 214.181 97.7759 214.172 97.9245 214.135C98.0752 214.097 98.2081 214.032 98.3233 213.941C98.4386 213.847 98.5322 213.726 98.6043 213.578L99.2431 213.824C99.153 214.04 99.0185 214.225 98.8395 214.378C98.6606 214.53 98.4468 214.641 98.1981 214.713C97.9496 214.782 97.6757 214.803 97.3763 214.775ZM101.034 213.401L101.102 212.559L101.24 212.572L103.36 210.786L104.2 210.865L101.943 212.755L101.885 212.749L101.034 213.401ZM100.249 214.953L100.805 209.058L101.484 209.122L100.928 215.017L100.249 214.953ZM103.058 215.218L101.537 212.867L102.065 212.441L103.921 215.299L103.058 215.218ZM105.443 213.817L105.51 212.975L105.649 212.988L107.768 211.202L108.609 211.281L106.352 213.171L106.294 213.165L105.443 213.817ZM104.657 215.369L105.214 209.474L105.893 209.538L105.337 215.433L104.657 215.369ZM107.467 215.634L105.946 213.283L106.474 212.857L108.33 215.715L107.467 215.634ZM109.066 215.785L109.483 211.364L110.162 211.428L109.745 215.849L109.066 215.785ZM109.898 210.659C109.766 210.647 109.656 210.591 109.568 210.492C109.483 210.393 109.446 210.28 109.458 210.153C109.47 210.027 109.527 209.923 109.63 209.841C109.734 209.76 109.853 209.726 109.985 209.738C110.117 209.751 110.226 209.807 110.312 209.906C110.399 210.005 110.437 210.118 110.425 210.245C110.413 210.371 110.355 210.475 110.25 210.556C110.148 210.638 110.03 210.672 109.898 210.659ZM89.5617 230.015L90.1178 224.121L90.8316 224.188L90.3352 229.45L93.0752 229.708L93.0155 230.341L89.5617 230.015ZM95.3198 230.663C95.0396 230.637 94.7904 230.56 94.572 230.433C94.3538 230.304 94.187 230.132 94.0717 229.918C93.9566 229.702 93.9126 229.45 93.9398 229.162C93.9637 228.909 94.0329 228.709 94.1475 228.561C94.2623 228.411 94.4075 228.299 94.5829 228.224C94.7583 228.15 94.9489 228.1 95.1545 228.075C95.3623 228.048 95.57 228.031 95.7779 228.023C96.0498 228.014 96.27 228.009 96.4386 228.007C96.6092 228.004 96.735 227.984 96.8159 227.947C96.8988 227.91 96.9453 227.837 96.9557 227.728L96.9578 227.705C96.9846 227.421 96.9277 227.193 96.7872 227.021C96.6485 226.849 96.4228 226.748 96.11 226.719C95.7858 226.688 95.5248 226.735 95.3272 226.86C95.1296 226.985 94.9858 227.124 94.8958 227.278L94.2728 226.987C94.4133 226.729 94.5865 226.535 94.7925 226.403C95.0006 226.27 95.2216 226.184 95.4555 226.146C95.6916 226.106 95.9209 226.097 96.1435 226.118C96.2855 226.132 96.4469 226.164 96.6279 226.216C96.8109 226.266 96.9839 226.351 97.1468 226.471C97.3117 226.591 97.4418 226.761 97.5372 226.981C97.6326 227.201 97.6637 227.487 97.6306 227.838L97.3558 230.751L96.6765 230.687L96.733 230.088L96.6985 230.085C96.6434 230.176 96.5569 230.272 96.4391 230.371C96.3214 230.47 96.1696 230.55 95.984 230.61C95.7983 230.67 95.5769 230.687 95.3198 230.663ZM95.4809 230.063C95.7496 230.088 95.981 230.057 96.1751 229.969C96.3712 229.881 96.5241 229.758 96.6339 229.6C96.7456 229.442 96.8101 229.271 96.8275 229.086L96.8861 228.465C96.8541 228.497 96.7878 228.522 96.6872 228.542C96.5888 228.56 96.4752 228.573 96.3466 228.582C96.22 228.59 96.0966 228.595 95.9762 228.6C95.8578 228.602 95.7618 228.605 95.688 228.607C95.5093 228.614 95.3407 228.635 95.1823 228.673C95.026 228.708 94.8961 228.773 94.7925 228.865C94.691 228.956 94.632 229.088 94.6158 229.261C94.5935 229.497 94.664 229.684 94.8272 229.821C94.9925 229.957 95.2104 230.037 95.4809 230.063ZM100.215 232.786C99.8868 232.755 99.6087 232.686 99.3807 232.58C99.1524 232.475 98.9661 232.347 98.8216 232.196C98.6788 232.047 98.5687 231.891 98.491 231.729L99.068 231.4C99.1218 231.487 99.1908 231.586 99.275 231.698C99.3591 231.813 99.4791 231.916 99.6349 232.008C99.7925 232.103 100.005 232.162 100.271 232.187C100.628 232.221 100.931 232.162 101.179 232.012C101.428 231.861 101.569 231.601 101.604 231.233L101.689 230.335L101.631 230.33C101.574 230.405 101.493 230.498 101.39 230.609C101.289 230.717 101.149 230.81 100.969 230.886C100.792 230.96 100.559 230.983 100.271 230.956C99.9145 230.923 99.602 230.808 99.334 230.612C99.0678 230.417 98.8675 230.15 98.7329 229.812C98.6002 229.474 98.5556 229.075 98.599 228.615C98.6417 228.162 98.7586 227.775 98.9495 227.454C99.1406 227.132 99.3869 226.892 99.6882 226.734C99.9898 226.575 100.327 226.513 100.699 226.548C100.987 226.575 101.211 226.645 101.37 226.756C101.532 226.867 101.653 226.986 101.731 227.116C101.812 227.243 101.874 227.348 101.917 227.429L101.986 227.436L102.052 226.734L102.708 226.796L102.279 231.343C102.243 231.723 102.128 232.024 101.933 232.245C101.739 232.469 101.492 232.623 101.192 232.707C100.894 232.793 100.568 232.819 100.215 232.786ZM100.421 230.355C100.694 230.38 100.93 230.34 101.129 230.233C101.329 230.126 101.489 229.96 101.609 229.735C101.729 229.51 101.804 229.235 101.835 228.908C101.865 228.59 101.844 228.304 101.771 228.052C101.698 227.799 101.574 227.595 101.399 227.439C101.224 227.283 100.998 227.192 100.722 227.166C100.434 227.139 100.187 227.189 99.9817 227.317C99.778 227.444 99.6166 227.627 99.4975 227.863C99.3803 228.1 99.3076 228.368 99.2793 228.667C99.2504 228.974 99.2727 229.25 99.3464 229.495C99.4222 229.739 99.5487 229.937 99.726 230.089C99.9054 230.239 100.137 230.328 100.421 230.355ZM105.322 231.595C104.923 231.558 104.581 231.43 104.298 231.211C104.017 230.993 103.808 230.705 103.671 230.348C103.536 229.99 103.491 229.583 103.534 229.127C103.577 228.666 103.698 228.272 103.898 227.944C104.099 227.617 104.358 227.372 104.676 227.211C104.995 227.049 105.354 226.987 105.753 227.025C106.152 227.062 106.492 227.19 106.774 227.409C107.057 227.627 107.266 227.916 107.401 228.275C107.537 228.634 107.583 229.044 107.54 229.505C107.497 229.961 107.375 230.353 107.174 230.678C106.975 231.004 106.715 231.248 106.396 231.409C106.079 231.571 105.721 231.633 105.322 231.595ZM105.379 230.985C105.682 231.014 105.939 230.96 106.15 230.823C106.36 230.686 106.524 230.495 106.642 230.251C106.76 230.006 106.833 229.736 106.861 229.441C106.889 229.145 106.868 228.865 106.798 228.601C106.728 228.337 106.602 228.117 106.421 227.942C106.241 227.766 105.999 227.664 105.695 227.635C105.392 227.606 105.135 227.661 104.925 227.8C104.714 227.939 104.55 228.132 104.432 228.378C104.314 228.624 104.241 228.895 104.213 229.191C104.185 229.486 104.206 229.765 104.276 230.027C104.346 230.289 104.472 230.507 104.653 230.681C104.834 230.855 105.076 230.957 105.379 230.985ZM111.826 228.655L111.199 228.77C111.17 228.664 111.123 228.56 111.057 228.457C110.994 228.353 110.901 228.263 110.781 228.187C110.66 228.112 110.501 228.065 110.303 228.046C110.033 228.021 109.801 228.062 109.609 228.17C109.419 228.276 109.315 228.424 109.297 228.614C109.281 228.782 109.33 228.922 109.444 229.031C109.557 229.14 109.742 229.24 109.996 229.33L110.637 229.553C111.024 229.686 111.304 229.861 111.479 230.077C111.655 230.291 111.728 230.552 111.699 230.861C111.675 231.114 111.581 231.334 111.416 231.52C111.253 231.706 111.037 231.844 110.767 231.935C110.497 232.025 110.19 232.055 109.847 232.022C109.396 231.98 109.032 231.847 108.755 231.623C108.478 231.399 108.318 231.096 108.275 230.712L108.935 230.612C108.974 230.856 109.073 231.045 109.232 231.18C109.394 231.315 109.614 231.396 109.892 231.422C110.208 231.452 110.466 231.409 110.665 231.292C110.866 231.174 110.975 231.019 110.993 230.829C111.008 230.676 110.966 230.542 110.868 230.429C110.771 230.313 110.613 230.219 110.396 230.146L109.675 229.904C109.279 229.77 108.996 229.593 108.825 229.373C108.656 229.152 108.586 228.889 108.615 228.584C108.638 228.335 108.729 228.121 108.887 227.942C109.048 227.763 109.255 227.631 109.509 227.545C109.765 227.458 110.048 227.43 110.359 227.459C110.796 227.501 111.131 227.629 111.362 227.844C111.595 228.06 111.75 228.33 111.826 228.655ZM113.694 231.479L113.619 231.786C113.565 232.001 113.494 232.231 113.403 232.474C113.314 232.717 113.224 232.946 113.132 233.16C113.04 233.374 112.965 233.544 112.907 233.67L112.389 233.621C112.425 233.501 112.473 233.341 112.532 233.144C112.592 232.946 112.653 232.724 112.717 232.479C112.783 232.235 112.841 231.985 112.892 231.729L112.957 231.41L113.694 231.479ZM122.478 227.174L121.922 233.069L121.232 233.003L118.456 228.072L118.399 228.067L117.962 232.695L117.248 232.628L117.804 226.733L118.495 226.798L121.281 231.742L121.338 231.747L121.776 227.108L122.478 227.174ZM123.259 233.195L123.676 228.774L124.355 228.838L123.938 233.259L123.259 233.195ZM124.09 228.07C123.958 228.057 123.848 228.001 123.761 227.902C123.675 227.803 123.638 227.69 123.65 227.563C123.662 227.437 123.72 227.333 123.822 227.252C123.927 227.17 124.045 227.136 124.177 227.149C124.31 227.161 124.419 227.217 124.504 227.316C124.592 227.415 124.629 227.528 124.617 227.655C124.606 227.781 124.547 227.885 124.443 227.966C124.34 228.048 124.223 228.082 124.09 228.07ZM126.801 235.294C126.473 235.263 126.195 235.195 125.967 235.088C125.739 234.983 125.552 234.855 125.408 234.704C125.265 234.555 125.155 234.4 125.077 234.237L125.654 233.909C125.708 233.995 125.777 234.094 125.861 234.207C125.945 234.321 126.065 234.424 126.221 234.517C126.379 234.611 126.591 234.671 126.858 234.696C127.215 234.729 127.517 234.671 127.766 234.52C128.014 234.369 128.156 234.11 128.191 233.741L128.275 232.843L128.218 232.838C128.16 232.914 128.08 233.007 127.976 233.117C127.875 233.226 127.735 233.318 127.555 233.394C127.378 233.468 127.146 233.492 126.858 233.465C126.501 233.431 126.188 233.316 125.92 233.121C125.654 232.925 125.454 232.658 125.319 232.32C125.187 231.983 125.142 231.584 125.185 231.123C125.228 230.67 125.345 230.283 125.536 229.963C125.727 229.64 125.973 229.4 126.275 229.243C126.576 229.083 126.913 229.021 127.285 229.056C127.573 229.083 127.797 229.153 127.957 229.265C128.119 229.375 128.239 229.495 128.318 229.624C128.399 229.752 128.46 229.856 128.503 229.938L128.572 229.944L128.638 229.242L129.294 229.304L128.865 233.851C128.83 234.231 128.714 234.532 128.519 234.754C128.326 234.977 128.079 235.131 127.779 235.215C127.48 235.301 127.154 235.328 126.801 235.294ZM127.007 232.863C127.28 232.889 127.516 232.848 127.716 232.741C127.916 232.634 128.075 232.468 128.195 232.243C128.315 232.019 128.391 231.743 128.421 231.417C128.452 231.098 128.43 230.813 128.357 230.56C128.284 230.307 128.16 230.103 127.985 229.947C127.81 229.791 127.585 229.7 127.308 229.674C127.02 229.647 126.774 229.697 126.568 229.825C126.364 229.953 126.203 230.135 126.084 230.372C125.967 230.608 125.894 230.876 125.866 231.176C125.837 231.483 125.859 231.759 125.933 232.004C126.008 232.247 126.135 232.445 126.312 232.597C126.492 232.748 126.723 232.836 127.007 232.863ZM131.966 234.109C131.54 234.069 131.181 233.94 130.89 233.723C130.601 233.504 130.389 233.217 130.254 232.862C130.121 232.504 130.076 232.099 130.119 231.647C130.162 231.194 130.282 230.802 130.479 230.473C130.679 230.141 130.937 229.892 131.252 229.727C131.57 229.559 131.929 229.494 132.328 229.532C132.558 229.554 132.782 229.614 132.999 229.711C133.216 229.809 133.409 229.953 133.577 230.143C133.745 230.332 133.87 230.572 133.953 230.864C134.036 231.157 134.058 231.509 134.019 231.922L133.992 232.209L130.584 231.888L130.639 231.301L133.356 231.557C133.38 231.308 133.351 231.08 133.27 230.875C133.19 230.67 133.065 230.503 132.893 230.372C132.723 230.242 132.516 230.165 132.27 230.142C132 230.117 131.759 230.162 131.549 230.277C131.341 230.391 131.174 230.55 131.048 230.753C130.923 230.956 130.848 231.179 130.825 231.423L130.788 231.814C130.757 232.148 130.788 232.437 130.881 232.68C130.976 232.921 131.122 233.112 131.318 233.252C131.514 233.391 131.749 233.473 132.023 233.499C132.202 233.516 132.365 233.506 132.514 233.47C132.664 233.432 132.797 233.367 132.913 233.275C133.028 233.181 133.122 233.06 133.194 232.912L133.832 233.159C133.742 233.375 133.608 233.559 133.429 233.713C133.25 233.864 133.036 233.976 132.787 234.047C132.539 234.117 132.265 234.137 131.966 234.109ZM134.838 234.287L135.255 229.866L135.911 229.928L135.848 230.596L135.894 230.6C135.996 230.389 136.158 230.225 136.382 230.109C136.606 229.993 136.85 229.947 137.115 229.972C137.165 229.977 137.227 229.984 137.302 229.993C137.377 230.002 137.433 230.01 137.471 230.017L137.406 230.708C137.383 230.7 137.331 230.686 137.25 230.667C137.171 230.646 137.086 230.631 136.996 230.623C136.781 230.603 136.585 230.63 136.407 230.704C136.232 230.776 136.088 230.887 135.975 231.035C135.865 231.181 135.8 231.354 135.781 231.554L135.517 234.351L134.838 234.287ZM137.854 234.572L138.271 230.151L138.95 230.215L138.533 234.636L137.854 234.572ZM138.686 229.447C138.553 229.434 138.443 229.378 138.356 229.279C138.27 229.18 138.234 229.067 138.246 228.94C138.258 228.814 138.315 228.71 138.417 228.629C138.522 228.547 138.64 228.513 138.773 228.526C138.905 228.538 139.014 228.594 139.099 228.693C139.187 228.792 139.225 228.905 139.213 229.032C139.201 229.158 139.142 229.262 139.038 229.343C138.936 229.425 138.818 229.459 138.686 229.447ZM141.068 234.979C140.788 234.953 140.539 234.876 140.32 234.749C140.102 234.62 139.935 234.449 139.82 234.235C139.705 234.018 139.661 233.767 139.688 233.479C139.712 233.225 139.781 233.025 139.896 232.877C140.011 232.727 140.156 232.615 140.331 232.54C140.507 232.466 140.697 232.416 140.903 232.391C141.111 232.364 141.318 232.347 141.526 232.34C141.798 232.33 142.018 232.325 142.187 232.324C142.358 232.32 142.483 232.3 142.564 232.263C142.647 232.227 142.694 232.154 142.704 232.044L142.706 232.021C142.733 231.737 142.676 231.509 142.536 231.337C142.397 231.165 142.171 231.065 141.858 231.035C141.534 231.005 141.273 231.052 141.076 231.176C140.878 231.301 140.734 231.44 140.644 231.594L140.021 231.303C140.162 231.045 140.335 230.851 140.541 230.719C140.749 230.586 140.97 230.5 141.204 230.462C141.44 230.423 141.669 230.413 141.892 230.434C142.034 230.448 142.195 230.48 142.376 230.532C142.559 230.583 142.732 230.668 142.895 230.787C143.06 230.908 143.19 231.078 143.286 231.298C143.381 231.518 143.412 231.803 143.379 232.154L143.104 235.067L142.425 235.003L142.481 234.404L142.447 234.401C142.392 234.493 142.305 234.588 142.188 234.687C142.07 234.786 141.918 234.866 141.732 234.926C141.547 234.986 141.325 235.004 141.068 234.979ZM141.229 234.379C141.498 234.404 141.729 234.373 141.924 234.285C142.12 234.197 142.273 234.074 142.382 233.916C142.494 233.758 142.559 233.587 142.576 233.403L142.635 232.781C142.603 232.813 142.536 232.839 142.436 232.858C142.337 232.876 142.224 232.889 142.095 232.899C141.968 232.906 141.845 232.912 141.725 232.916C141.606 232.918 141.51 232.921 141.436 232.923C141.258 232.93 141.089 232.952 140.931 232.989C140.774 233.025 140.644 233.089 140.541 233.182C140.439 233.273 140.38 233.405 140.364 233.577C140.342 233.813 140.412 234 140.576 234.137C140.741 234.273 140.959 234.354 141.229 234.379Z" fill="white"/>
<foreignObject x="81.4423" y="250.517" width="170.072" height="53.8859"><div xmlns="http://www.w3.org/1999/xhtml" style="backdrop-filter:blur(1.14px);clip-path:url(#bgblur_3_1_4755_clip_path);height:100%;width:100%"></div></foreignObject><g data-figma-bg-blur-radius="2.28817">
<rect x="87.2717" y="252.893" width="162.853" height="31.4223" rx="15.7111" transform="rotate(6.31095 87.2717 252.893)" stroke="white" stroke-width="0.159504"/>
<path d="M123.314 276.207C122.761 276.146 122.291 276.005 121.904 275.784C121.517 275.557 121.198 275.272 120.947 274.931C120.728 274.63 120.568 274.296 120.468 273.928C120.367 273.561 120.339 273.173 120.384 272.766C120.434 272.317 120.568 271.908 120.787 271.539C121.006 271.169 121.286 270.859 121.628 270.608C121.929 270.383 122.273 270.221 122.659 270.123C123.051 270.019 123.497 269.994 123.995 270.049L127.32 270.417L127.139 272.047L123.814 271.68C123.535 271.649 123.3 271.66 123.11 271.713C122.92 271.765 122.751 271.845 122.604 271.952C122.45 272.07 122.32 272.215 122.215 272.388C122.115 272.561 122.055 272.751 122.032 272.958C122.011 273.146 122.024 273.329 122.072 273.506C122.121 273.678 122.199 273.834 122.306 273.975C122.424 274.135 122.578 274.275 122.767 274.395C122.958 274.508 123.198 274.581 123.49 274.613L125.066 274.787C125.145 274.796 125.189 274.758 125.198 274.673L125.381 273.024L127.02 273.205L126.691 276.184C126.662 276.445 126.517 276.561 126.256 276.532L123.314 276.207ZM134.677 271.231L134.496 272.861L129.814 272.343C129.717 272.333 129.663 272.379 129.651 272.482L129.574 273.183L134.374 273.714L134.243 274.899L129.443 274.368L129.36 275.115C129.348 275.224 129.39 275.284 129.488 275.295L134.17 275.813L133.995 277.388L128.384 276.768C127.807 276.704 127.55 276.387 127.614 275.816L128.108 271.343C128.169 270.791 128.491 270.547 129.074 270.611L134.677 271.231ZM142.236 272.067L142.056 273.697L139.36 273.399L138.859 277.926L137.201 277.743L137.702 273.216L134.996 272.916L135.177 271.286L142.236 272.067ZM150.287 272.957C150.784 273.012 151.211 273.133 151.565 273.32C151.926 273.501 152.229 273.734 152.474 274.02C152.752 274.339 152.958 274.703 153.091 275.111C153.224 275.519 153.266 275.948 153.216 276.398C153.171 276.804 153.059 277.176 152.881 277.513C152.702 277.85 152.473 278.141 152.194 278.387C151.874 278.665 151.501 278.873 151.074 279.01C150.648 279.141 150.158 279.176 149.606 279.115L146.281 278.747C146.013 278.718 145.894 278.572 145.923 278.311L146.519 272.927C146.547 272.672 146.694 272.56 146.962 272.589L150.287 272.957ZM148.148 274.371C148.069 274.362 148.025 274.4 148.015 274.485L147.722 277.136C147.713 277.221 147.747 277.268 147.826 277.277L149.785 277.493C150.076 277.526 150.327 277.51 150.537 277.447C150.747 277.385 150.926 277.288 151.076 277.157C151.212 277.043 151.322 276.907 151.407 276.751C151.492 276.588 151.546 276.413 151.566 276.224C151.589 276.018 151.568 275.819 151.503 275.627C151.445 275.436 151.353 275.266 151.228 275.117C151.108 274.981 150.961 274.866 150.786 274.773C150.612 274.68 150.386 274.618 150.106 274.587L148.148 274.371ZM156.02 273.591L155.339 279.749L153.682 279.566L154.363 273.408L156.02 273.591ZM157.91 280.033L156.261 279.851L156.9 274.076C156.928 273.821 157.079 273.708 157.352 273.738L161.725 274.222C162.107 274.264 162.417 274.354 162.654 274.491C162.891 274.621 163.085 274.784 163.236 274.979C163.37 275.154 163.468 275.352 163.53 275.574C163.598 275.791 163.619 276.014 163.594 276.245C163.566 276.494 163.498 276.726 163.388 276.942C163.279 277.151 163.106 277.322 162.87 277.456C163.063 277.6 163.195 277.772 163.265 277.97C163.341 278.169 163.36 278.444 163.321 278.797L163.185 280.026C163.17 280.16 163.158 280.269 163.149 280.354C163.145 280.44 163.145 280.526 163.148 280.612L161.481 280.428C161.477 280.292 161.483 280.155 161.499 280.015L161.635 278.785C161.656 278.591 161.62 278.446 161.526 278.349C161.432 278.253 161.264 278.191 161.021 278.164L158.152 277.847L157.91 280.033ZM161.222 276.767C161.337 276.779 161.433 276.771 161.51 276.743C161.587 276.715 161.653 276.673 161.709 276.618C161.798 276.529 161.849 276.427 161.862 276.312C161.878 276.172 161.845 276.052 161.764 275.951C161.679 275.83 161.536 275.759 161.336 275.737L158.557 275.43C158.466 275.42 158.416 275.46 158.406 275.551L158.307 276.444L161.222 276.767ZM171.078 275.256L170.898 276.887L166.215 276.369C166.118 276.358 166.064 276.405 166.052 276.508L165.975 277.209L170.775 277.74L170.645 278.924L165.844 278.393L165.761 279.14C165.749 279.25 165.792 279.31 165.889 279.32L170.571 279.838L170.397 281.414L164.786 280.794C164.209 280.73 163.952 280.412 164.015 279.842L164.51 275.369C164.571 274.816 164.893 274.572 165.476 274.637L171.078 275.256ZM177.529 282.203L174.304 281.846C173.751 281.785 173.281 281.644 172.894 281.423C172.507 281.196 172.188 280.912 171.937 280.57C171.718 280.269 171.559 279.935 171.458 279.568C171.357 279.2 171.329 278.813 171.374 278.406C171.424 277.956 171.558 277.547 171.777 277.178C171.997 276.809 172.277 276.498 172.618 276.247C172.92 276.022 173.263 275.861 173.649 275.762C174.042 275.658 174.487 275.633 174.985 275.688L178.21 276.045L178.029 277.676L174.805 277.319C174.525 277.288 174.291 277.299 174.1 277.352C173.91 277.404 173.741 277.484 173.594 277.591C173.44 277.709 173.31 277.854 173.205 278.027C173.106 278.201 173.045 278.391 173.022 278.597C173.001 278.785 173.015 278.968 173.063 279.146C173.111 279.317 173.189 279.473 173.297 279.614C173.414 279.775 173.569 279.909 173.76 280.016C173.951 280.123 174.192 280.193 174.483 280.225L177.708 280.581L177.529 282.203ZM185.923 276.898L185.743 278.529L183.047 278.231L182.546 282.758L180.888 282.574L181.389 278.047L178.683 277.748L178.864 276.117L185.923 276.898ZM188.241 277.154L187.56 283.312L185.902 283.129L186.583 276.971L188.241 277.154ZM191.615 283.761C191.062 283.7 190.592 283.559 190.205 283.337C189.818 283.11 189.499 282.826 189.248 282.485C189.029 282.184 188.87 281.85 188.769 281.482C188.668 281.114 188.64 280.727 188.685 280.32C188.735 279.871 188.869 279.462 189.089 279.092C189.308 278.723 189.588 278.413 189.929 278.162C190.231 277.937 190.574 277.775 190.96 277.677C191.353 277.572 191.798 277.548 192.296 277.603L193.59 277.746C194.088 277.801 194.514 277.922 194.868 278.109C195.229 278.29 195.532 278.523 195.777 278.809C196.055 279.128 196.261 279.492 196.394 279.9C196.527 280.308 196.569 280.737 196.519 281.187C196.474 281.593 196.362 281.965 196.184 282.302C196.005 282.639 195.776 282.93 195.497 283.176C195.177 283.454 194.804 283.662 194.377 283.799C193.951 283.93 193.461 283.965 192.909 283.904L191.615 283.761ZM192.116 279.234C191.836 279.203 191.602 279.214 191.411 279.266C191.221 279.319 191.052 279.399 190.905 279.505C190.751 279.624 190.621 279.769 190.516 279.942C190.417 280.115 190.356 280.305 190.333 280.512C190.312 280.7 190.326 280.883 190.374 281.06C190.423 281.232 190.501 281.388 190.608 281.529C190.725 281.689 190.88 281.823 191.071 281.93C191.262 282.037 191.503 282.107 191.794 282.139L193.088 282.282C193.379 282.315 193.63 282.299 193.84 282.236C194.05 282.174 194.229 282.077 194.379 281.946C194.515 281.832 194.625 281.696 194.71 281.54C194.795 281.377 194.849 281.202 194.87 281.013C194.892 280.807 194.871 280.608 194.806 280.416C194.748 280.225 194.656 280.055 194.531 279.906C194.411 279.77 194.264 279.655 194.089 279.562C193.915 279.469 193.689 279.407 193.409 279.377L192.116 279.234ZM204.743 284.005C204.717 284.236 204.662 284.432 204.576 284.595C204.497 284.752 204.397 284.879 204.276 284.977C204.161 285.068 204.031 285.131 203.886 285.164C203.74 285.203 203.592 285.214 203.44 285.198C203.179 285.169 202.952 285.104 202.76 285.003C202.574 284.908 202.418 284.768 202.291 284.582L199.343 280.3C199.301 280.24 199.255 280.208 199.207 280.202C199.164 280.197 199.126 280.209 199.092 280.236C199.059 280.263 199.039 280.303 199.033 280.358L198.571 284.53L196.95 284.351L197.487 279.496C197.516 279.234 197.574 279.016 197.66 278.842C197.754 278.668 197.87 278.53 198.01 278.429C198.151 278.327 198.312 278.262 198.493 278.233C198.675 278.198 198.87 278.192 199.076 278.214C199.368 278.247 199.608 278.319 199.799 278.433C199.989 278.546 200.169 278.726 200.339 278.972L202.947 282.902C202.968 282.936 202.99 282.959 203.012 282.974C203.036 282.983 203.063 282.989 203.093 282.992C203.178 283.002 203.227 282.952 203.239 282.843L203.679 278.862L205.292 279.04L204.743 284.005ZM212.467 281.484L208.04 280.995C207.936 280.983 207.853 280.986 207.79 281.004C207.733 281.016 207.684 281.038 207.644 281.071C207.549 281.146 207.495 281.248 207.481 281.375C207.466 281.509 207.506 281.624 207.6 281.72C207.633 281.755 207.673 281.784 207.719 281.807C207.772 281.826 207.848 281.84 207.945 281.851L210.65 282.15C210.996 282.188 211.282 282.272 211.508 282.402C211.74 282.526 211.928 282.682 212.074 282.87C212.219 283.058 212.325 283.267 212.392 283.495C212.465 283.725 212.488 283.961 212.461 284.204C212.436 284.428 212.37 284.639 212.262 284.836C212.16 285.034 212.03 285.207 211.872 285.356C211.681 285.531 211.451 285.663 211.183 285.75C210.922 285.838 210.609 285.861 210.244 285.821L205.471 285.293L205.645 283.717L210.127 284.213C210.255 284.227 210.353 284.226 210.423 284.209C210.499 284.186 210.561 284.153 210.609 284.109C210.684 284.038 210.728 283.947 210.74 283.838C210.755 283.705 210.725 283.591 210.649 283.496C210.612 283.443 210.561 283.403 210.496 283.378C210.438 283.347 210.348 283.325 210.227 283.311L207.722 283.034C207.309 282.988 206.98 282.903 206.736 282.778C206.498 282.647 206.307 282.487 206.162 282.299C206.017 282.111 205.91 281.906 205.843 281.683C205.776 281.454 205.756 281.212 205.785 280.957C205.812 280.708 205.884 280.48 205.999 280.271C206.12 280.063 206.272 279.883 206.455 279.731C206.638 279.579 206.859 279.469 207.119 279.399C207.379 279.323 207.716 279.308 208.129 279.354L212.647 279.854L212.467 281.484Z" fill="url(#paint4_linear_1_4755)"/>
</g>
</g>
<rect x="95.1484" y="94.7446" width="175.797" height="202.009" rx="15.5153" transform="rotate(5.38974 95.1484 94.7446)" stroke="#A21919" stroke-width="0.129835"/>
<g filter="url(#filter3_d_1_4755)">
<circle cx="183.998" cy="64.5912" r="16.2294" transform="rotate(5.38974 183.998 64.5912)" fill="#1D0909"/>
<circle cx="183.998" cy="64.5912" r="13.9753" transform="rotate(5.38974 183.998 64.5912)" stroke="#A21919" stroke-width="4.50816"/>
</g>
</g>
</g>
<defs>
<filter id="filter0_d_1_4755" x="27.9998" y="18.8163" width="293.965" height="356.944" filterUnits="userSpaceOnUse" color-interpolation-filters="sRGB">
<feFlood flood-opacity="0" result="BackgroundImageFix"/>
<feColorMatrix in="SourceAlpha" type="matrix" values="0 0 0 0 0 0 0 0 0 0 0 0 0 0 0 0 0 0 127 0" result="hardAlpha"/>
<feOffset dy="15.5802"/>
<feGaussianBlur stdDeviation="15.5802"/>
<feComposite in2="hardAlpha" operator="out"/>
<feColorMatrix type="matrix" values="0 0 0 0 0 0 0 0 0 0 0 0 0 0 0 0 0 0 0.25 0"/>
<feBlend mode="normal" in2="BackgroundImageFix" result="effect1_dropShadow_1_4755"/>
<feBlend mode="normal" in="SourceGraphic" in2="effect1_dropShadow_1_4755" result="shape"/>
</filter>
<filter id="filter1_f_1_4755" x="-18.6661" y="24.3768" width="379.914" height="375.911" filterUnits="userSpaceOnUse" color-interpolation-filters="sRGB">
<feFlood flood-opacity="0" result="BackgroundImageFix"/>
<feBlend mode="normal" in="SourceGraphic" in2="BackgroundImageFix" result="shape"/>
<feGaussianBlur stdDeviation="70.1837" result="effect1_foregroundBlur_1_4755"/>
</filter>
<clipPath id="bgblur_3_1_4755_clip_path" transform="translate(-81.4423 -250.517)"><rect x="87.2717" y="252.893" width="162.853" height="31.4223" rx="15.7111" transform="rotate(6.31095 87.2717 252.893)"/>
</clipPath><filter id="filter3_d_1_4755" x="167.768" y="48.3604" width="32.4609" height="40.5756" filterUnits="userSpaceOnUse" color-interpolation-filters="sRGB">
<feFlood flood-opacity="0" result="BackgroundImageFix"/>
<feColorMatrix in="SourceAlpha" type="matrix" values="0 0 0 0 0 0 0 0 0 0 0 0 0 0 0 0 0 0 127 0" result="hardAlpha"/>
<feMorphology radius="36.9669" operator="erode" in="SourceAlpha" result="effect1_dropShadow_1_4755"/>
<feOffset dx="-1.80326" dy="18.0326"/>
<feGaussianBlur stdDeviation="13.5245"/>
<feComposite in2="hardAlpha" operator="out"/>
<feColorMatrix type="matrix" values="0 0 0 0 0 0 0 0 0 0 0 0 0 0 0 0 0 0 0.5 0"/>
<feBlend mode="normal" in2="BackgroundImageFix" result="effect1_dropShadow_1_4755"/>
<feBlend mode="normal" in="SourceGraphic" in2="effect1_dropShadow_1_4755" result="shape"/>
</filter>
<linearGradient id="paint0_linear_1_4755" x1="28.8203" y1="23.0625" x2="329.863" y2="23.0625" gradientUnits="userSpaceOnUse">
<stop stop-color="white" stop-opacity="0.3"/>
<stop offset="1" stop-color="#999999" stop-opacity="0.3"/>
</linearGradient>
<linearGradient id="paint1_linear_1_4755" x1="30.9102" y1="47.9229" x2="331.952" y2="47.9229" gradientUnits="userSpaceOnUse">
<stop stop-color="white" stop-opacity="0.3"/>
<stop offset="1" stop-color="#999999" stop-opacity="0.3"/>
</linearGradient>
<linearGradient id="paint2_linear_1_4755" x1="32.998" y1="72.7832" x2="334.04" y2="72.7832" gradientUnits="userSpaceOnUse">
<stop stop-color="white" stop-opacity="0.3"/>
<stop offset="1" stop-color="#999999" stop-opacity="0.3"/>
</linearGradient>
<linearGradient id="paint3_linear_1_4755" x1="35.0879" y1="97.6445" x2="336.13" y2="97.6445" gradientUnits="userSpaceOnUse">
<stop stop-color="white" stop-opacity="0.3"/>
<stop offset="1" stop-color="#999999" stop-opacity="0.3"/>
</linearGradient>
<linearGradient id="paint4_linear_1_4755" x1="170.793" y1="274.881" x2="170.159" y2="280.618" gradientUnits="userSpaceOnUse">
<stop stop-color="white"/>
<stop offset="1" stop-color="#D9D9D9"/>
</linearGradient>
<clipPath id="clip0_1_4755">
<rect width="17.7575" height="17.7575" fill="white" transform="translate(137.654 22.5625)"/>
</clipPath>
<clipPath id="clip1_1_4755">
<rect x="85.127" y="34.3965" width="206.591" height="276.44" rx="8.41796" transform="rotate(5.38974 85.127 34.3965)" fill="white"/>
</clipPath>
<clipPath id="clip2_1_4755">
<rect x="95.0898" y="94.6738" width="175.926" height="202.138" rx="15.5802" transform="rotate(5.38974 95.0898 94.6738)" fill="white"/>
</clipPath>
</defs>
</svg>
