<svg width="32" height="32" viewBox="0 0 32 32" fill="none" xmlns="http://www.w3.org/2000/svg">
<path d="M7.48804 26.6668C6.87382 26.6668 6.36137 26.4615 5.95071 26.0508C5.54004 25.6402 5.33426 25.1273 5.33337 24.5122V7.48816C5.33337 6.87394 5.53915 6.3615 5.95071 5.95083C6.36226 5.54016 6.87471 5.33438 7.48804 5.3335H15.3587C15.5489 5.3335 15.7076 5.39705 15.8347 5.52416C15.9618 5.65127 16.0254 5.80994 16.0254 6.00016C16.0254 6.19038 15.9618 6.34905 15.8347 6.47616C15.7076 6.60327 15.5489 6.66683 15.3587 6.66683H7.48804C7.28271 6.66683 7.09426 6.75216 6.92271 6.92283C6.75115 7.0935 6.66582 7.28194 6.66671 7.48816V24.5135C6.66671 24.7179 6.75204 24.9059 6.92271 25.0775C7.09337 25.2491 7.28137 25.3344 7.48671 25.3335H15.3587C15.5489 25.3335 15.7076 25.3971 15.8347 25.5242C15.9618 25.6513 16.0254 25.8099 16.0254 26.0002C16.0254 26.1904 15.9618 26.3491 15.8347 26.4762C15.7076 26.6033 15.5489 26.6668 15.3587 26.6668H7.48804ZM24.08 16.6668H12.9227C12.7334 16.6668 12.5752 16.6033 12.448 16.4762C12.3209 16.3491 12.2569 16.1904 12.256 16.0002C12.2552 15.8099 12.3187 15.6513 12.4467 15.5242C12.5747 15.3971 12.7334 15.3335 12.9227 15.3335H24.08L21.452 12.7055C21.3267 12.5811 21.26 12.4308 21.252 12.2548C21.2432 12.0779 21.3098 11.9162 21.452 11.7695C21.5934 11.6228 21.7503 11.5482 21.9227 11.5455C22.096 11.5428 22.256 11.6148 22.4027 11.7615L25.888 15.2455C26.1032 15.4615 26.2107 15.7131 26.2107 16.0002C26.2107 16.2873 26.1027 16.5388 25.8867 16.7548L22.4027 20.2388C22.2729 20.3686 22.1187 20.4366 21.94 20.4428C21.7614 20.4491 21.5987 20.3784 21.452 20.2308C21.3098 20.0842 21.24 19.9255 21.2427 19.7548C21.2454 19.5842 21.3174 19.4286 21.4587 19.2882L24.08 16.6668Z" fill="#C30100"/>
</svg>
