<svg width="32" height="32" viewBox="0 0 32 32" fill="none" xmlns="http://www.w3.org/2000/svg">
<path d="M26.6547 2.66943C26.3011 2.66943 25.9619 2.80991 25.7119 3.05996C25.4618 3.31001 25.3214 3.64914 25.3214 4.00277V4.8521C24.1966 6.24603 22.7752 7.37175 21.1607 8.1474C19.5462 8.92305 17.7792 9.32913 15.988 9.3361H7.98804C6.9275 9.33716 5.9107 9.75893 5.16078 10.5088C4.41086 11.2588 3.9891 12.2756 3.98804 13.3361V16.0028C3.9891 17.0633 4.41086 18.0801 5.16078 18.83C5.9107 19.5799 6.9275 20.0017 7.98804 20.0028H8.63337L5.42937 27.4774C5.34239 27.6803 5.30715 27.9016 5.32682 28.1215C5.34648 28.3414 5.42043 28.553 5.54202 28.7372C5.66362 28.9214 5.82906 29.0726 6.0235 29.1771C6.21794 29.2817 6.43528 29.3363 6.65604 29.3361H11.9894C12.25 29.3358 12.5049 29.2591 12.7224 29.1155C12.94 28.9719 13.1107 28.7677 13.2134 28.5281L16.8454 20.0534C18.4861 20.1741 20.0847 20.6297 21.5425 21.3922C23.0003 22.1547 24.2864 23.2079 25.3214 24.4868V25.3361C25.3214 25.6897 25.4618 26.0289 25.7119 26.2789C25.9619 26.529 26.3011 26.6694 26.6547 26.6694C27.0083 26.6694 27.3475 26.529 27.5975 26.2789C27.8476 26.0289 27.988 25.6897 27.988 25.3361V4.00277C27.988 3.64914 27.8476 3.31001 27.5975 3.05996C27.3475 2.80991 27.0083 2.66943 26.6547 2.66943ZM7.98804 17.3361C7.63442 17.3361 7.29528 17.1956 7.04523 16.9456C6.79518 16.6955 6.6547 16.3564 6.6547 16.0028V13.3361C6.6547 12.9825 6.79518 12.6433 7.04523 12.3933C7.29528 12.1432 7.63442 12.0028 7.98804 12.0028H9.32137V17.3361H7.98804ZM11.1094 26.6694H8.67737L11.5334 20.0028H13.9667L11.1094 26.6694ZM25.3227 20.6988C22.6939 18.5327 19.3957 17.3444 15.9894 17.3361H11.9894V12.0028H15.9894C19.3957 11.9945 22.6939 10.8062 25.3227 8.6401V20.6988Z" fill="white"/>
</svg>
