<svg width="297" height="60" viewBox="0 0 297 60" fill="none" xmlns="http://www.w3.org/2000/svg">
<path d="M64.6493 0C57.2631 0 51.4891 5.55173 46.2624 12.6041C39.0798 3.47761 33.0729 0 25.8845 0C11.229 0 0 19.0335 0 39.1793C0 51.7859 6.11149 59.7371 16.3481 59.7371C23.7158 59.7371 29.0146 56.2708 38.4346 39.8385C38.4346 39.8385 42.3613 32.9185 45.0626 28.1516C46.0092 29.6768 47.0062 31.3203 48.0535 33.082L52.4708 40.4977C61.0756 54.8673 65.8699 59.7371 74.5573 59.7371C84.5298 59.7371 90.0797 51.6772 90.0797 38.8085C90.0797 17.7151 78.5975 0 64.6493 0ZM31.2513 35.3891C23.6139 47.3365 20.9718 50.0144 16.7197 50.0144C12.3436 50.0144 9.74281 46.1806 9.74281 39.3441C9.74281 24.7188 17.0499 9.76393 25.7607 9.76393C30.4777 9.76393 34.4197 12.4826 40.4577 21.1088C34.7244 29.8848 31.2513 35.3891 31.2513 35.3891ZM60.0758 33.885L54.7943 25.0948C53.3651 22.7751 51.9915 20.6399 50.6736 18.6892C55.4338 11.3574 59.3602 7.70405 64.0301 7.70405C73.7316 7.70405 81.4929 21.9586 81.4929 39.4677C81.4929 46.1418 79.3023 50.0144 74.7637 50.0144C70.4136 50.0144 68.3355 47.1474 60.0758 33.885Z" fill="#38342D"/>
<path d="M108.98 1.93848H120.239L139.382 36.4957L158.525 1.93851H169.54V58.7225H160.354V15.2018L143.568 45.3379H134.952L118.166 15.2018V58.7225H108.98V1.93848Z" fill="#38342D"/>
<path d="M199.167 59.7366C194.913 59.7366 191.173 58.797 187.949 56.9177C184.725 55.0384 182.211 52.4358 180.41 49.1099C178.608 45.7838 177.707 41.9712 177.707 37.672C177.707 33.3188 178.588 29.4655 180.349 26.1123C182.11 22.7599 184.555 20.1369 187.685 18.2434C190.815 16.3512 194.412 15.4048 198.476 15.4043C202.513 15.4043 205.988 16.3574 208.901 18.2636C211.813 20.1704 214.056 22.8407 215.628 26.2745C217.199 29.7088 217.985 33.7378 217.985 38.3615V40.8758H186.811C187.38 44.3376 188.783 47.0619 191.018 49.0488C193.253 51.0363 196.078 52.03 199.492 52.0298C202.229 52.0298 204.586 51.6243 206.564 50.8131C208.542 50.0019 210.398 48.7716 212.132 47.1223L217.01 53.0845C212.159 57.5196 206.211 59.737 199.167 59.7366ZM205.873 26.0512C203.949 24.0911 201.429 23.1109 198.313 23.1105C195.278 23.1105 192.738 24.1111 190.693 26.1123C188.647 28.1134 187.353 30.8038 186.811 34.1838H209.165C208.894 30.7225 207.797 28.0117 205.873 26.0512Z" fill="#38342D"/>
<path d="M229.124 23.9228H220.67V16.4191H229.124V4.00781H237.984V16.4191H250.828V23.9228H237.984V42.9452C237.984 46.1086 238.526 48.3664 239.61 49.7186C240.693 51.0711 242.549 51.747 245.178 51.7465C246.343 51.7465 247.332 51.6992 248.145 51.6046C248.958 51.5103 249.852 51.3819 250.828 51.2192V58.6416C249.715 58.9629 248.581 59.207 247.434 59.372C246.122 59.5646 244.797 59.6595 243.471 59.6558C233.906 59.6558 229.124 54.4372 229.124 43.9999V23.9228Z" fill="#38342D"/>
<path d="M297 58.7224H288.302V52.8006C286.758 55.0182 284.793 56.7284 282.409 57.9314C280.024 59.1342 277.315 59.7359 274.28 59.7366C270.541 59.7366 267.229 58.7834 264.343 56.8768C261.457 54.9706 259.188 52.3477 257.535 49.0084C255.882 45.6689 255.056 41.8495 255.056 37.5503C255.056 33.224 255.896 29.3977 257.576 26.0714C259.255 22.7459 261.579 20.1366 264.546 18.2434C267.513 16.3512 270.92 15.4048 274.768 15.4043C277.667 15.4043 280.268 15.9655 282.571 17.0878C284.844 18.1846 286.811 19.821 288.302 21.8534V16.4185H297V58.7224ZM288.14 31.2229C287.191 28.8163 285.694 26.9166 283.649 25.5239C281.602 24.1315 279.238 23.4353 276.556 23.4353C272.762 23.4353 269.741 24.7061 267.493 27.2478C265.243 29.7896 264.119 33.2237 264.119 37.5502C264.119 41.904 265.203 45.3516 267.371 47.8931C269.538 50.4349 272.478 51.7058 276.191 51.7056C278.927 51.7056 281.365 51.0025 283.506 49.5963C285.646 48.1909 287.191 46.2982 288.14 43.918V31.2229Z" fill="#38342D"/>
</svg>
