<svg width="299" height="63" viewBox="0 0 299 63" fill="none" xmlns="http://www.w3.org/2000/svg">
<path d="M216.714 28.6961V41.2868H210.78V29.9631C210.78 27.7458 209.909 26.0829 207.456 26.0829C205.083 26.0829 203.817 27.6666 203.817 29.9631V41.2868H197.962V30.0422C197.962 27.825 197.092 26.0829 194.639 26.0829C192.186 26.0829 191.078 27.7458 191.078 30.0422V41.2868H185.144V21.015H190.92V22.8363H190.999C192.344 21.4109 194.243 20.619 196.379 20.619C198.832 20.619 200.889 21.4109 201.918 22.9946C203.105 21.4109 205.399 20.619 207.852 20.619C212.995 20.619 216.714 23.7073 216.714 28.6961ZM252.002 14.7592H246.147V21.0941H242.112V26.2413H246.068V34.16C246.068 37.4858 247.096 41.5243 253.347 41.5243C254.059 41.5243 255.483 41.5243 256.828 41.0492V36.2188C255.8 36.298 255.641 36.3772 254.771 36.3772C252.793 36.3772 251.923 35.3478 251.923 33.764V26.0829H256.907V20.9358H251.923V14.7592H252.002ZM234.437 21.015H240.292V41.2868H234.437V39.7822C232.696 41.5243 229.215 41.6827 228.265 41.6827C222.41 41.6827 218.692 36.6147 218.692 31.1509C218.692 26.0037 222.569 20.6982 228.345 20.6982C230.243 20.6982 232.854 21.0941 234.437 22.5987V21.015ZM234.595 31.1509C234.595 28.1418 232.38 26.0037 229.611 26.0037C226.841 26.0037 224.626 28.0626 224.626 31.1509C224.626 34.2391 226.841 36.298 229.611 36.298C232.38 36.298 234.595 34.16 234.595 31.1509ZM268.301 36.298C265.373 36.298 263.395 34.16 263.395 31.1509C263.395 27.9042 265.611 26.0037 268.222 26.0037C270.754 26.0037 272.336 27.5875 272.732 29.092L278.112 27.4291C277.083 22.8363 272.494 20.5398 268.301 20.5398C262.129 20.5398 257.303 25.1327 257.303 31.1509C257.303 37.1691 261.813 41.6827 268.143 41.6827C272.494 41.6827 276.925 39.3863 278.27 34.7143L272.89 33.0513C272.336 34.7143 270.833 36.298 268.301 36.298ZM291.563 20.6982C290.534 20.6982 287.686 21.015 286.024 23.4697V10.4831H280.09V41.2868H286.024V29.9631C286.024 28.0626 287.132 26.0829 289.664 26.0829C292.116 26.0829 293.145 27.825 293.145 30.0422V41.2868H299V28.6961C299 24.4992 296.626 20.6982 291.563 20.6982ZM155.553 41.2868H161.487V21.015H155.553V41.2868ZM183.641 21.015H177.153L173.434 26.7164L169.795 21.015H163.148L170.19 31.0717L162.911 41.2868H169.478L173.355 35.3478L177.232 41.2868H183.878L176.599 30.9925L183.641 21.015ZM145.742 28.5377C143.605 28.3001 142.577 27.9834 142.577 26.7956C142.577 25.9245 143.447 25.1327 144.871 25.1327C146.612 25.1327 147.482 26.1621 147.799 27.5083L152.942 26.2413C152.546 23.9449 150.252 20.619 144.951 20.619C140.678 20.619 136.959 23.3906 136.959 27.1123C136.959 31.7052 140.441 32.9722 144.238 33.5265C146.375 33.8432 147.482 34.2391 147.482 35.5061C147.482 36.298 146.77 37.2482 145.03 37.2482C143.052 37.2482 141.944 35.9813 141.627 34.4767L136.485 35.8229C136.801 37.9609 139.096 41.8411 145.03 41.8411C150.568 41.8411 153.258 38.5944 153.258 35.1102C153.337 30.359 149.698 29.0128 145.742 28.5377ZM158.48 10.3247C156.502 10.3247 154.841 11.9877 154.841 13.9673C154.841 15.947 156.502 17.6099 158.48 17.6099C160.537 17.6099 162.199 15.947 162.199 13.9673C162.12 11.9877 160.537 10.3247 158.48 10.3247ZM129.126 32.3387C129.126 34.5559 128.019 36.2188 125.566 36.2188C123.113 36.2188 122.005 34.5559 122.005 32.3387V21.015H116.071V32.2595C116.071 38.3569 120.502 41.6035 125.566 41.6035C130.63 41.6035 135.06 38.3569 135.06 32.2595V21.015H129.126V32.3387ZM105.152 20.619C102.621 20.619 100.405 21.4109 99.2183 22.9946C98.1106 21.4109 96.0535 20.619 93.6798 20.619C91.5435 20.619 89.6446 21.4109 88.2996 22.8363H88.2204V21.015H82.4446V41.2868H88.3787V30.0422C88.3787 27.7458 89.5655 26.0829 91.9391 26.0829C94.3128 26.0829 95.2622 27.825 95.2622 30.0422V41.2868H101.117V29.9631C101.117 27.6666 102.383 26.0829 104.757 26.0829C107.21 26.0829 108.08 27.7458 108.08 29.9631V41.2868H114.014V28.6961C113.856 23.7073 110.137 20.619 105.152 20.619ZM67.5697 10.3247V51.977C67.5697 55.9363 65.3543 59.4205 61.873 61.1626C60.4488 61.8753 58.8664 62.2713 57.3631 62.2713C55.1477 62.2713 53.0114 61.5586 51.1916 60.1332L33.7849 46.8298L16.3781 60.1332C14.5584 61.5586 12.3429 62.2713 10.2067 62.2713C8.70336 62.2713 7.12093 61.9545 5.69675 61.1626C2.13628 59.4205 0 55.9363 0 51.977V10.3247C0 6.44459 2.13628 2.88118 5.69675 1.13908C9.17809 -0.603034 13.2924 -0.2071 16.4573 2.08932L33.864 15.2343L51.2707 2.08932C54.3564 -0.286286 58.4708 -0.682221 62.0312 1.13908C65.4334 2.88118 67.5697 6.3654 67.5697 10.3247ZM5.77587 17.6891L18.1979 27.2707L28.8793 18.9561L12.7386 6.84052C11.9473 6.28622 11.077 5.96947 10.1275 5.96947C9.49458 5.96947 8.78248 6.12784 8.14951 6.44459C6.6462 7.23646 5.77587 8.66182 5.77587 10.3247V17.6891ZM5.77587 36.8523L13.3715 30.9925L5.77587 25.1327V36.8523ZM28.8793 43.0289L27.4551 41.9203L18.1979 34.7143L5.77587 44.3751V51.8978C5.77587 53.5607 6.6462 55.0653 8.22863 55.778C9.73194 56.4906 11.4726 56.3323 12.8177 55.3028L28.8793 43.0289ZM34.4178 38.832L44.5454 30.9925L33.7849 22.6779L23.0243 30.9925L32.8354 38.5944L33.7849 39.3071L34.4178 38.832ZM61.7147 44.3751L49.2927 34.7143L39.8772 41.9995L38.6113 43.0289L54.7521 55.382C56.0971 56.4114 57.8378 56.5698 59.3411 55.8571C60.8444 55.1445 61.7939 53.6399 61.7939 51.977V44.3751H61.7147ZM61.7147 25.2119L54.1191 30.9925L61.7147 36.8523V25.2119ZM61.7147 10.3247C61.7147 8.66182 60.8444 7.15727 59.3411 6.44459C57.8378 5.73191 56.0971 5.8111 54.7521 6.84052L38.6113 18.9561L49.2927 27.2707L61.7147 17.6891V10.3247Z" fill="#37332C"/>
</svg>
