<svg width="388" height="273" viewBox="0 0 388 273" fill="none" xmlns="http://www.w3.org/2000/svg">
<path d="M362.73 1.91895H24.9503C12.231 1.91895 1.91992 12.23 1.91992 24.9494V247.577C1.91992 260.296 12.231 270.607 24.9503 270.607H362.73C375.449 270.607 385.76 260.296 385.76 247.577V24.9494C385.76 12.23 375.449 1.91895 362.73 1.91895Z" stroke="url(#paint0_linear_1_1901)" stroke-width="3.8384"/>
<path d="M40.3045 46.0601C43.4843 46.0601 46.0621 43.4824 46.0621 40.3025C46.0621 37.1227 43.4843 34.5449 40.3045 34.5449C37.1246 34.5449 34.5469 37.1227 34.5469 40.3025C34.5469 43.4824 37.1246 46.0601 40.3045 46.0601Z" fill="#C30100"/>
<path d="M59.4978 46.0601C62.6777 46.0601 65.2554 43.4824 65.2554 40.3025C65.2554 37.1227 62.6777 34.5449 59.4978 34.5449C56.318 34.5449 53.7402 37.1227 53.7402 40.3025C53.7402 43.4824 56.318 46.0601 59.4978 46.0601Z" fill="#C30100"/>
<path d="M78.6853 46.0601C81.8652 46.0601 84.4429 43.4824 84.4429 40.3025C84.4429 37.1227 81.8652 34.5449 78.6853 34.5449C75.5055 34.5449 72.9277 37.1227 72.9277 40.3025C72.9277 43.4824 75.5055 46.0601 78.6853 46.0601Z" fill="#C30100"/>
<path d="M343.537 71.0107H44.1411C42.0212 71.0107 40.3027 72.7293 40.3027 74.8491C40.3027 76.969 42.0212 78.6875 44.1411 78.6875H343.537C345.656 78.6875 347.375 76.969 347.375 74.8491C347.375 72.7293 345.656 71.0107 343.537 71.0107Z" fill="#C30100"/>
<path d="M266.768 101.717H44.1411C42.0212 101.717 40.3027 103.435 40.3027 105.555C40.3027 107.675 42.0212 109.394 44.1411 109.394H266.768C268.888 109.394 270.607 107.675 270.607 105.555C270.607 103.435 268.888 101.717 266.768 101.717Z" fill="#C30100"/>
<path d="M305.152 132.425H44.1411C42.0212 132.425 40.3027 134.143 40.3027 136.263C40.3027 138.383 42.0212 140.102 44.1411 140.102H305.152C307.272 140.102 308.991 138.383 308.991 136.263C308.991 134.143 307.272 132.425 305.152 132.425Z" fill="#C30100"/>
<path d="M228.384 163.132H44.1411C42.0212 163.132 40.3027 164.85 40.3027 166.97C40.3027 169.09 42.0212 170.809 44.1411 170.809H228.384C230.504 170.809 232.223 169.09 232.223 166.97C232.223 164.85 230.504 163.132 228.384 163.132Z" fill="#C30100"/>
<path d="M324.345 193.84H44.1411C42.0212 193.84 40.3027 195.558 40.3027 197.678C40.3027 199.798 42.0212 201.517 44.1411 201.517H324.345C326.464 201.517 328.183 199.798 328.183 197.678C328.183 195.558 326.464 193.84 324.345 193.84Z" fill="#C30100"/>
<defs>
<linearGradient id="paint0_linear_1_1901" x1="1.91992" y1="1.91895" x2="254.379" y2="362.574" gradientUnits="userSpaceOnUse">
<stop stop-color="#FF4D4D"/>
<stop offset="1" stop-color="#8B0000"/>
</linearGradient>
</defs>
</svg>
