<svg width="66" height="68" viewBox="0 0 66 68" fill="none" xmlns="http://www.w3.org/2000/svg">
<g filter="url(#filter0_d_910_13378)">
<rect x="19.2969" width="43.0635" height="43.0635" rx="9.53174" transform="rotate(18.8641 19.2969 0)" fill="black" fill-opacity="0.01" shape-rendering="crispEdges"/>
<rect x="19.4206" y="0.252117" width="42.6663" height="42.6663" rx="9.33317" transform="rotate(18.8641 19.4206 0.252117)" stroke="#C30100" stroke-opacity="0.5" stroke-width="0.397156" shape-rendering="crispEdges"/>
<g clip-path="url(#clip0_910_13378)">
<path fill-rule="evenodd" clip-rule="evenodd" d="M26.1147 21.121L27.5696 16.8627L31.8279 18.3177L30.373 22.576L26.1147 21.121ZM25.683 15.4255C25.8116 15.0491 26.0845 14.7391 26.4417 14.5639C26.7988 14.3887 27.2109 14.3625 27.5874 14.4911L33.2651 16.431C33.6416 16.5597 33.9515 16.8326 34.1268 17.1897C34.302 17.5469 34.3282 17.959 34.1996 18.3355L32.2596 24.0132C32.131 24.3896 31.8581 24.6996 31.5009 24.8748C31.1438 25.0501 30.7317 25.0763 30.3552 24.9476L24.6775 23.0077C24.301 22.8791 23.9911 22.6062 23.8158 22.249C23.6406 21.8919 23.6144 21.4797 23.743 21.1033L25.683 15.4255ZM36.9172 19.6603C37.0137 19.378 37.2183 19.1455 37.4862 19.0141C37.7541 18.8826 38.0632 18.863 38.3455 18.9595L44.7329 21.1419C45.0153 21.2384 45.2477 21.4431 45.3792 21.7109C45.5106 21.9788 45.5303 22.2879 45.4338 22.5702C45.3373 22.8526 45.1326 23.085 44.8648 23.2164C44.5969 23.3479 44.2878 23.3675 44.0055 23.2711L37.618 21.0886C37.3357 20.9921 37.1032 20.7875 36.9718 20.5196C36.8404 20.2517 36.8207 19.9426 36.9172 19.6603ZM36.648 23.9275C36.3657 23.831 36.0566 23.8506 35.7887 23.9821C35.5209 24.1135 35.3162 24.346 35.2197 24.6283C35.1233 24.9106 35.1429 25.2197 35.2743 25.4876C35.4058 25.7555 35.6382 25.9601 35.9206 26.0566L42.308 28.2391C42.5904 28.3355 42.8995 28.3159 43.1673 28.1845C43.4352 28.053 43.6399 27.8206 43.7363 27.5382C43.8328 27.2559 43.8132 26.9468 43.6817 26.6789C43.5503 26.4111 43.3178 26.2064 43.0355 26.1099L36.648 23.9275ZM23.6897 28.2182L22.2348 32.4765L26.4931 33.9314L27.948 29.6732L23.6897 28.2182ZM23.7075 25.8465C23.331 25.7179 22.9189 25.7441 22.5618 25.9194C22.2046 26.0946 21.9317 26.4045 21.8031 26.781L19.8631 32.4587C19.7345 32.8352 19.7607 33.2473 19.9359 33.6045C20.1112 33.9616 20.4211 34.2345 20.7976 34.3631L26.4753 36.3031C26.8518 36.4317 27.2639 36.4055 27.621 36.2303C27.9782 36.055 28.2511 35.7451 28.3797 35.3686L30.3197 29.6909C30.4483 29.3145 30.4221 28.9023 30.2469 28.5452C30.0716 28.188 29.7617 27.9151 29.3852 27.7865L23.7075 25.8465ZM34.4656 30.3149C34.1833 30.2184 33.8742 30.2381 33.6063 30.3695C33.3384 30.501 33.1338 30.7334 33.0373 31.0157C32.9408 31.2981 32.9605 31.6072 33.0919 31.8751C33.2233 32.1429 33.4558 32.3476 33.7381 32.4441L40.1256 34.6265C40.4079 34.723 40.717 34.7033 40.9849 34.5719C41.2527 34.4405 41.4574 34.208 41.5539 33.9257C41.6504 33.6433 41.6307 33.3342 41.4993 33.0664C41.3678 32.7985 41.1354 32.5938 40.853 32.4974L34.4656 30.3149ZM32.7681 35.2829C32.4858 35.1865 32.1767 35.2061 31.9088 35.3375C31.641 35.469 31.4363 35.7014 31.3398 35.9838C31.2434 36.2661 31.263 36.5752 31.3944 36.8431C31.5259 37.1109 31.7583 37.3156 32.0407 37.4121L38.4281 39.5945C38.7105 39.691 39.0196 39.6713 39.2874 39.5399C39.5553 39.4085 39.76 39.176 39.8564 38.8937C39.9529 38.6113 39.9333 38.3022 39.8018 38.0344C39.6704 37.7665 39.4379 37.5618 39.1556 37.4654L32.7681 35.2829Z" fill="white"/>
</g>
</g>
<defs>
<filter id="filter0_d_910_13378" x="-2.56812" y="0" width="70.5581" height="70.5603" filterUnits="userSpaceOnUse" color-interpolation-filters="sRGB">
<feFlood flood-opacity="0" result="BackgroundImageFix"/>
<feColorMatrix in="SourceAlpha" type="matrix" values="0 0 0 0 0 0 0 0 0 0 0 0 0 0 0 0 0 0 127 0" result="hardAlpha"/>
<feOffset dy="7.94312"/>
<feGaussianBlur stdDeviation="3.97156"/>
<feComposite in2="hardAlpha" operator="out"/>
<feColorMatrix type="matrix" values="0 0 0 0 0 0 0 0 0 0 0 0 0 0 0 0 0 0 0.25 0"/>
<feBlend mode="normal" in2="BackgroundImageFix" result="effect1_dropShadow_910_13378"/>
<feBlend mode="normal" in="BackgroundImageFix" in2="effect1_dropShadow_910_13378" result="BackgroundImageFix"/>
<feBlend mode="normal" in="SourceGraphic" in2="BackgroundImageFix" result="shape"/>
</filter>
<clipPath id="clip0_910_13378">
<rect width="24" height="24" fill="white" transform="translate(25.2344 12.1016) rotate(18.8641)"/>
</clipPath>
</defs>
</svg>
