<svg width="32" height="32" viewBox="0 0 32 32" fill="none" xmlns="http://www.w3.org/2000/svg">
<path d="M14.6667 18.6665H4M14.6667 23.9998H4" stroke="white" stroke-width="1.5" stroke-linecap="round"/>
<path d="M25.1666 18.824C27.372 20.0973 28.4733 20.7346 28.636 21.652C28.6765 21.8817 28.6765 22.1168 28.636 22.3466C28.4746 23.2666 27.372 23.9026 25.1666 25.1746C22.9613 26.448 21.86 27.0853 20.9826 26.7666C20.7634 26.6866 20.5599 26.5688 20.3813 26.4186C19.6666 25.8186 19.6666 24.5466 19.6666 22C19.6666 19.4533 19.6666 18.18 20.3813 17.5813C20.56 17.4316 20.7635 17.3143 20.9826 17.2346C21.8586 16.9146 22.9613 17.552 25.1666 18.824Z" stroke="white" stroke-width="1.5"/>
<path d="M4 8H18M26.6667 8H23.6667M26.6667 13.3333H12.6667M4 13.3333H7" stroke="white" stroke-width="1.5" stroke-linecap="round"/>
</svg>
