<svg width="63" height="65" viewBox="0 0 63 65" fill="none" xmlns="http://www.w3.org/2000/svg">
<g filter="url(#filter0_d_910_13349)">
<g clip-path="url(#clip0_910_13349)">
<rect x="18.1055" width="42.2455" height="42.2455" rx="7.88249" transform="rotate(18.8641 18.1055 0)" fill="black" fill-opacity="0.01" shape-rendering="crispEdges"/>
<g clip-path="url(#clip1_910_13349)">
<path d="M27.5102 17.2911C27.6067 17.488 27.621 17.7152 27.5501 17.9227C27.4792 18.1302 27.3289 18.3011 27.1321 18.3978C26.0263 18.9403 25.0383 19.6953 24.2244 20.6197C23.4105 21.5441 22.7866 22.6197 22.3884 23.7852C21.9902 24.9506 21.8254 26.1831 21.9035 27.4123C21.9816 28.6414 22.3011 29.8432 22.8436 30.9489C22.9357 31.1453 22.947 31.3701 22.8749 31.5748C22.8029 31.7795 22.6534 31.9477 22.4585 32.0431C22.2637 32.1386 22.0391 32.1538 21.8332 32.0853C21.6273 32.0168 21.4566 31.8702 21.3577 31.6771C18.6736 26.2068 20.9322 19.5967 26.4024 16.9126C26.5993 16.8161 26.8265 16.8017 27.034 16.8726C27.2415 16.9435 27.4135 17.0943 27.5102 17.2911ZM41.1669 21.9573C43.851 27.4275 41.5921 34.0387 36.1219 36.7228C35.9262 36.8104 35.7041 36.8187 35.5025 36.7458C35.3008 36.6729 35.1353 36.5245 35.0409 36.3321C34.9464 36.1396 34.9304 35.9179 34.9961 35.7138C35.0619 35.5097 35.2042 35.3391 35.3933 35.2379C36.4992 34.6955 37.4873 33.9404 38.3014 33.016C39.1154 32.0916 39.7394 31.0159 40.1377 29.8503C40.5359 28.6847 40.7007 27.452 40.6225 26.2227C40.5443 24.9935 40.2247 23.7916 39.682 22.6859C39.6296 22.5879 39.5974 22.4804 39.5875 22.3697C39.5775 22.259 39.5899 22.1474 39.624 22.0417C39.658 21.9359 39.7131 21.8381 39.7858 21.754C39.8585 21.67 39.9473 21.6014 40.0471 21.5525C40.1469 21.5035 40.2555 21.4751 40.3664 21.4691C40.4774 21.463 40.5885 21.4794 40.693 21.5171C40.7975 21.5549 40.8933 21.6134 40.9747 21.689C41.0562 21.7646 41.1215 21.8558 41.1669 21.9573ZM29.454 21.2526C29.5505 21.4496 29.5649 21.6767 29.494 21.8843C29.4231 22.0918 29.2727 22.2627 29.0759 22.3594C28.4904 22.6466 27.9671 23.0463 27.5361 23.5357C27.1051 24.0251 26.7747 24.5947 26.5639 25.2118C26.353 25.829 26.2658 26.4816 26.3072 27.1324C26.3486 27.7833 26.5178 28.4196 26.8052 29.005C26.8928 29.2007 26.901 29.4228 26.8281 29.6244C26.7552 29.8261 26.6069 29.9916 26.4144 30.086C26.2219 30.1805 26.0003 30.1965 25.7962 30.1308C25.5921 30.065 25.4215 29.9227 25.3203 29.7336C24.547 28.1574 24.4314 26.3386 24.9991 24.6772C25.5668 23.0158 26.7711 21.6479 28.3473 20.8745C28.5442 20.778 28.7714 20.7637 28.9789 20.8346C29.1864 20.9055 29.3573 21.0558 29.454 21.2526ZM37.2064 23.9015C37.9797 25.4777 38.0953 27.2965 37.5276 28.9579C36.96 30.6193 35.7556 31.9871 34.1795 32.7606C34.0817 32.8107 33.9749 32.8409 33.8654 32.8494C33.7558 32.8578 33.6457 32.8444 33.5414 32.8098C33.4371 32.7752 33.3407 32.7202 33.2579 32.648C33.1751 32.5758 33.1074 32.4878 33.059 32.3892C33.0106 32.2905 32.9822 32.1833 32.9757 32.0736C32.9691 31.9639 32.9845 31.854 33.0209 31.7503C33.0573 31.6466 33.1139 31.5512 33.1876 31.4697C33.2612 31.3881 33.3504 31.3221 33.4498 31.2753C34.0352 30.9881 34.5582 30.5884 34.9891 30.0991C35.42 29.6097 35.7503 29.0402 35.9611 28.4232C36.1719 27.8062 36.2592 27.1537 36.2178 26.503C36.1765 25.8523 36.0074 25.2161 35.7201 24.6307C35.6325 24.435 35.6243 24.213 35.6972 24.0113C35.7701 23.8097 35.9184 23.6442 36.1109 23.5497C36.3034 23.4553 36.525 23.4392 36.7291 23.505C36.9332 23.5707 37.1038 23.7131 37.205 23.9021M31.7978 25.2517C32.2131 25.3937 32.5551 25.6948 32.7485 26.0888C32.9418 26.4829 32.9707 26.9376 32.8288 27.353C32.6869 27.7684 32.3858 28.1103 31.9917 28.3037C31.5977 28.497 31.1429 28.5259 30.7276 28.384C30.3122 28.2421 29.9702 27.941 29.7769 27.5469C29.5835 27.1529 29.5546 26.6981 29.6965 26.2828C29.8385 25.8674 30.1396 25.5254 30.5336 25.3321C30.9277 25.1387 31.3824 25.1098 31.7978 25.2517Z" fill="white"/>
</g>
</g>
<rect x="18.2078" y="0.208494" width="41.9171" height="41.9171" rx="7.71827" transform="rotate(18.8641 18.2078 0.208494)" stroke="white" stroke-width="0.328437" shape-rendering="crispEdges"/>
</g>
<defs>
<filter id="filter0_d_910_13349" x="-2.12343" y="0" width="66.7742" height="66.7729" filterUnits="userSpaceOnUse" color-interpolation-filters="sRGB">
<feFlood flood-opacity="0" result="BackgroundImageFix"/>
<feColorMatrix in="SourceAlpha" type="matrix" values="0 0 0 0 0 0 0 0 0 0 0 0 0 0 0 0 0 0 127 0" result="hardAlpha"/>
<feOffset dy="6.56874"/>
<feGaussianBlur stdDeviation="3.28437"/>
<feComposite in2="hardAlpha" operator="out"/>
<feColorMatrix type="matrix" values="0 0 0 0 0 0 0 0 0 0 0 0 0 0 0 0 0 0 0.25 0"/>
<feBlend mode="normal" in2="BackgroundImageFix" result="effect1_dropShadow_910_13349"/>
<feBlend mode="normal" in="BackgroundImageFix" in2="effect1_dropShadow_910_13349" result="BackgroundImageFix"/>
<feBlend mode="normal" in="SourceGraphic" in2="BackgroundImageFix" result="shape"/>
</filter>
<clipPath id="clip0_910_13349">
<rect x="18.1055" width="42.2455" height="42.2455" rx="7.88249" transform="rotate(18.8641 18.1055 0)" fill="white"/>
</clipPath>
<clipPath id="clip1_910_13349">
<rect width="26.4805" height="26.4805" fill="white" transform="translate(23.0156 10.0077) rotate(18.8641)"/>
</clipPath>
</defs>
</svg>
