<svg width="57" height="59" viewBox="0 0 57 59" fill="none" xmlns="http://www.w3.org/2000/svg">
<g filter="url(#filter0_d_842_3138)">
<g clip-path="url(#clip0_842_3138)">
<rect x="16.4102" width="38.2882" height="38.2882" rx="7.1441" transform="rotate(18.8641 16.4102 0)" fill="black" fill-opacity="0.01" shape-rendering="crispEdges"/>
<g clip-path="url(#clip1_842_3138)">
<path d="M35.6232 18.8761C33.6961 18.2763 32.0393 18.2888 30.4274 18.2976C28.7038 18.3062 27.0771 18.314 25.0552 17.6461C23.7016 17.2074 22.4327 16.5139 21.2643 15.6027L20.4343 14.9561L16.292 27.0794L16.7072 27.4091C17.7923 28.2673 18.9681 28.9504 20.2039 29.4392C20.3998 29.5168 20.5936 29.5883 20.7853 29.6537C22.9236 30.3844 24.7549 30.376 26.5298 30.3706C28.4012 30.3633 30.1665 30.3554 32.2858 31.1928C33.4074 31.6418 34.4572 32.2525 35.4018 33.0057L36.2341 33.6642L40.3781 21.5358L39.9693 21.2059C38.9118 20.3537 37.7304 19.6678 36.466 19.172C36.1886 19.0635 35.9075 18.9648 35.6232 18.8761ZM35.1799 20.2987C35.4233 20.3734 35.6712 20.4591 35.9234 20.5559C36.185 20.6579 36.4422 20.7727 36.6962 20.8944C36.652 21.3766 36.7965 21.8572 37.0993 22.2351C37.402 22.613 37.8395 22.8588 38.3197 22.9209L36.1125 29.3808C35.8962 29.254 35.6566 29.172 35.408 29.1397C35.1593 29.1073 34.9068 29.1253 34.6652 29.1924C34.4236 29.2596 34.198 29.3746 34.0018 29.5307C33.8056 29.6867 33.6427 29.8807 33.5228 30.1009C33.296 29.9965 33.0662 29.8985 32.8339 29.8068C30.4466 28.8723 28.4512 28.8713 26.5191 28.8801C24.6451 28.8881 22.87 28.8943 20.7524 28.0566C20.4892 27.9508 20.2297 27.8357 19.9747 27.7116C20.0175 27.2303 19.8725 26.7511 19.57 26.3743C19.2675 25.9975 18.831 25.7523 18.3519 25.6901L20.559 19.2302C20.7767 19.3577 21.0178 19.4399 21.268 19.4718C21.5182 19.5036 21.7723 19.4846 22.0149 19.4157C22.2576 19.3468 22.4838 19.2295 22.6799 19.0709C22.876 18.9123 23.0381 18.7157 23.1562 18.4928C23.6251 18.7093 24.1014 18.9046 24.5888 19.0624C26.8428 19.8072 28.6701 19.7966 30.4383 19.7874C31.9957 19.7782 33.4778 19.7757 35.1799 20.2987ZM29.5483 20.7569C27.9826 20.222 26.1655 21.3788 25.4969 23.3355C24.8284 25.2922 25.5577 27.3191 27.1233 27.8541C28.6889 28.389 30.5061 27.2322 31.1746 25.2755C31.8432 23.3188 31.1139 21.2919 29.5483 20.7569ZM29.0633 22.1763C29.8326 22.4392 30.1495 23.6365 29.7552 24.7905C29.3609 25.9445 28.3776 26.6975 27.6083 26.4346C26.839 26.1718 26.5221 24.9745 26.9164 23.8205C27.3106 22.6665 28.2939 21.9135 29.0633 22.1763ZM34.3861 23.9951C34.1038 23.8986 33.7947 23.9182 33.5268 24.0497C33.259 24.1811 33.0543 24.4135 32.9578 24.6959C32.8613 24.9782 32.881 25.2873 33.0124 25.5552C33.1439 25.823 33.3763 26.0277 33.6587 26.1242C33.941 26.2207 34.2501 26.201 34.518 26.0696C34.7858 25.9382 34.9905 25.7057 35.087 25.4234C35.1834 25.141 35.1638 24.8319 35.0324 24.5641C34.9009 24.2962 34.6685 24.0915 34.3861 23.9951ZM23.0129 22.4868C22.7306 22.3903 22.4215 22.41 22.1536 22.5414C21.8857 22.6728 21.6811 22.9053 21.5846 23.1876C21.4881 23.47 21.5078 23.7791 21.6392 24.0469C21.7706 24.3148 22.0031 24.5195 22.2854 24.6159C22.5678 24.7124 22.8769 24.6928 23.1447 24.5613C23.4126 24.4299 23.6173 24.1974 23.7137 23.9151C23.8102 23.6328 23.7906 23.3237 23.6591 23.0558C23.5277 22.7879 23.2953 22.5833 23.0129 22.4868Z" fill="white"/>
</g>
</g>
<rect x="16.5029" y="0.188963" width="37.9905" height="37.9905" rx="6.99526" transform="rotate(18.8641 16.5029 0.188963)" stroke="white" stroke-width="0.297671" shape-rendering="crispEdges"/>
</g>
<defs>
<filter id="filter0_d_842_3138" x="-1.92217" y="0" width="60.5162" height="60.518" filterUnits="userSpaceOnUse" color-interpolation-filters="sRGB">
<feFlood flood-opacity="0" result="BackgroundImageFix"/>
<feColorMatrix in="SourceAlpha" type="matrix" values="0 0 0 0 0 0 0 0 0 0 0 0 0 0 0 0 0 0 127 0" result="hardAlpha"/>
<feOffset dy="5.95342"/>
<feGaussianBlur stdDeviation="2.97671"/>
<feComposite in2="hardAlpha" operator="out"/>
<feColorMatrix type="matrix" values="0 0 0 0 0 0 0 0 0 0 0 0 0 0 0 0 0 0 0.25 0"/>
<feBlend mode="normal" in2="BackgroundImageFix" result="effect1_dropShadow_842_3138"/>
<feBlend mode="normal" in="BackgroundImageFix" in2="effect1_dropShadow_842_3138" result="BackgroundImageFix"/>
<feBlend mode="normal" in="SourceGraphic" in2="BackgroundImageFix" result="shape"/>
</filter>
<clipPath id="clip0_842_3138">
<rect x="16.4102" width="38.2882" height="38.2882" rx="7.1441" transform="rotate(18.8641 16.4102 0)" fill="white"/>
</clipPath>
<clipPath id="clip1_842_3138">
<rect width="24" height="24" fill="white" transform="translate(20.8594 9.07019) rotate(18.8641)"/>
</clipPath>
</defs>
</svg>
