<svg width="300" height="83" viewBox="0 0 300 83" fill="none" xmlns="http://www.w3.org/2000/svg">
<path d="M43.8124 0.875205C44.4988 0.871337 45.1853 0.86747 45.8925 0.863486C50.3585 0.871936 54.5931 1.27437 58.9999 2.0002C58.9999 2.6602 58.9999 3.3202 58.9999 4.0002C59.9487 4.12395 60.8974 4.2477 61.8749 4.3752C64.9999 5.0002 64.9999 5.0002 66.9999 7.0002C67.9899 7.6602 68.9799 8.3202 69.9999 9.0002C80.312 19.3123 84.644 28.1462 84.9999 43.0002C84.4659 51.3932 82.7136 58.9297 77.9999 66.0002C77.0099 66.4952 77.0099 66.4952 75.9999 67.0002C75.1749 67.9902 74.3499 68.9802 73.4999 70.0002C70.9999 73.0002 70.9999 73.0002 68.9999 74.0002C68.278 74.6396 67.5562 75.279 66.8124 75.9377C63.5898 78.301 60.8678 79.086 56.9999 80.0002C56.0231 80.2687 56.0231 80.2687 55.0265 80.5427C51.6215 81.3114 48.1606 81.1432 44.6874 81.1252C43.9533 81.1291 43.2192 81.1329 42.4628 81.1369C33.8738 81.1217 27.0886 80.0912 19.9999 75.0002C18.2459 73.1977 16.6974 71.3681 15.1913 69.3557C14.7982 68.9084 14.405 68.4611 13.9999 68.0002C13.3399 68.0002 12.6799 68.0002 11.9999 68.0002C3.65494 57.8926 3.23343 46.4932 3.99992 34.0002C4.43837 29.8284 4.96587 26.4002 6.93742 22.6877C7.27644 22.0316 7.61547 21.3754 7.96476 20.6994C9.45809 18.2481 11.4836 16.5401 13.5624 14.5627C16.1768 12.1775 16.1768 12.1775 16.9999 9.0002C17.598 8.85583 18.1962 8.71145 18.8124 8.5627C21.171 8.16499 21.171 8.16499 22.8124 6.0627C25.6613 3.37665 28.2235 2.87687 31.9999 2.0002C32.571 1.82102 33.142 1.64185 33.7304 1.45724C37.0792 0.782864 40.4118 0.856364 43.8124 0.875205ZM18.1249 26.4377C16.8052 27.9498 16.8052 27.9498 16.9999 30.0002C17.6599 30.0002 18.3199 30.0002 18.9999 30.0002C18.9999 30.6602 18.9999 31.3202 18.9999 32.0002C20.2091 31.9048 21.4182 31.8094 22.664 31.7111C34.5181 30.8715 45.1629 31.1614 56.7499 34.1877C59.8621 35.3403 59.8621 35.3403 61.9999 34.0002C62.4949 34.9902 62.4949 34.9902 62.9999 36.0002C65.9347 37.3486 68.8504 38.3003 71.9999 39.0002C71.9999 38.0102 71.9999 37.0202 71.9999 36.0002C72.6599 35.6702 73.3199 35.3402 73.9999 35.0002C72.7511 33.4169 72.7511 33.4169 70.9999 32.0002C69.6799 32.0002 68.3599 32.0002 66.9999 32.0002C66.5049 31.0102 66.5049 31.0102 65.9999 30.0002C65.3399 29.6702 64.6799 29.3402 63.9999 29.0002C63.3399 29.3302 62.6799 29.6602 61.9999 30.0002C61.5049 29.0102 61.5049 29.0102 60.9999 28.0002C59.1276 27.121 59.1276 27.121 56.8749 26.4377C56.1298 26.1889 55.3848 25.9401 54.6171 25.6838C48.2379 24.0176 41.9813 23.8444 35.4374 23.8752C34.2009 23.8694 34.2009 23.8694 32.9394 23.8635C25.097 23.5838 25.097 23.5838 18.1249 26.4377ZM20.9999 39.0002C20.6699 39.9902 20.3399 40.9802 19.9999 42.0002C21.7777 44.2034 21.7777 44.2034 24.0878 44.1955C24.9354 44.1723 25.7829 44.1491 26.6562 44.1252C27.5972 44.1097 28.5382 44.0943 29.5077 44.0783C31.4713 44.0271 33.4348 43.975 35.3984 43.9221C41.1977 43.8278 46.3802 44.2716 52.0214 45.6604C54.068 46.2129 54.068 46.2129 55.9999 45.0002C56.4949 45.9902 56.4949 45.9902 56.9999 47.0002C57.6599 46.6702 58.3199 46.3402 58.9999 46.0002C59.4949 46.9902 59.4949 46.9902 59.9999 48.0002C62.3618 49.2617 62.3618 49.2617 64.9999 50.0002C65.9899 49.6702 66.9799 49.3402 67.9999 49.0002C67.9999 48.3402 67.9999 47.6802 67.9999 47.0002C65.0451 44.2565 64.2252 44.0002 59.9999 44.0002C59.9999 43.3402 59.9999 42.6802 59.9999 42.0002C58.6054 41.5171 57.2093 41.039 55.8124 40.5627C55.0351 40.2959 54.2578 40.029 53.457 39.7541C49.2967 38.4776 45.4088 37.8733 41.0585 37.8674C40.1452 37.8661 39.2319 37.8648 38.2909 37.8635C37.3493 37.8674 36.4076 37.8712 35.4374 37.8752C34.4919 37.8713 33.5464 37.8675 32.5722 37.8635C31.6602 37.8648 30.7482 37.8661 29.8085 37.8674C28.568 37.8691 28.568 37.8691 27.3024 37.8708C25.0181 37.9992 23.1381 38.176 20.9999 39.0002ZM22.9999 51.0002C23.3299 52.3202 23.6599 53.6402 23.9999 55.0002C25.9741 54.948 25.9741 54.948 27.9882 54.8947C44.776 54.5864 44.776 54.5864 52.789 57.2658C55.8408 58.2795 58.8119 58.646 61.9999 59.0002C58.7175 54.0765 53.4959 52.2316 47.8749 50.7502C39.7375 49.151 31.1142 49.4611 22.9999 51.0002Z" fill="#37332C"/>
<path d="M249.25 17.75C253.299 17.8209 255.977 18.0714 259 21C259.812 24.6875 259.812 24.6875 260 28C257.69 27.67 255.38 27.34 253 27C252.01 28.32 251.02 29.64 250 31C254.29 31 258.58 31 263 31C265.621 35.9807 267.636 40.5429 269 46C269.276 45.447 269.552 44.894 269.836 44.3242C270.65 42.6998 271.468 41.0775 272.289 39.457C272.73 38.5843 273.171 37.7116 273.625 36.8125C274.294 35.4919 274.294 35.4919 274.977 34.1445C276.072 32.2456 276.072 32.2456 276 31C282.27 31 288.54 31 295 31C296.065 34.1964 296.074 36.6575 296 40C292.804 41.0655 290.343 41.0743 287 41C286.67 39.35 286.34 37.7 286 36C284.365 38.527 283.06 40.8172 282.125 43.6875C281.117 46.657 279.927 49.2175 278.5 52C276.652 55.6157 275.208 59.1162 274 63C271.44 69.7801 271.44 69.7801 269 71C267.296 71.2262 265.587 71.4089 263.875 71.5625C262.965 71.6463 262.055 71.7301 261.117 71.8164C260.419 71.877 259.72 71.9376 259 72C259.417 68.5001 259.868 66.2116 261.75 63.1875C263.348 59.1118 262.646 57.3518 261.105 53.3828C259.58 50.0939 257.848 46.9585 255.988 43.8477C255 42 255 42 255 40C253.35 39.67 251.7 39.34 250 39C250 46.59 250 54.18 250 62C246.7 62 243.4 62 240 62C240 54.74 240 47.48 240 40C238.35 39.67 236.7 39.34 235 39C235 36.69 235 34.38 235 32C236.65 31.67 238.3 31.34 240 31C240.155 29.4222 240.155 29.4222 240.312 27.8125C241.401 21.7757 242.974 17.8747 249.25 17.75ZM285 33C285.33 33.66 285.66 34.32 286 35C286.33 34.34 286.66 33.68 287 33C286.34 33 285.68 33 285 33ZM288 34C289 38 289 38 289 38L288 34Z" fill="#37332C"/>
<path d="M212 23C212.99 23.33 213.98 23.66 215 24C215 26.31 215 28.62 215 31C215.969 30.9794 216.939 30.9587 217.938 30.9375C221 31 221 31 222 32C222.041 34.333 222.042 36.6671 222 39C219.36 39 216.72 39 214 39C214 43.29 214 47.58 214 52C216.97 52.33 219.94 52.66 223 53C223.098 59.1523 223.098 59.1523 223 61C222 62 222 62 219.059 62.0977C217.864 62.0861 216.669 62.0745 215.438 62.0625C213.641 62.049 213.641 62.049 211.809 62.0352C210.882 62.0236 209.955 62.012 209 62C208.67 61.01 208.34 60.02 208 59C207.01 58.67 206.02 58.34 205 58C205 51.73 205 45.46 205 39C203.35 39.33 201.7 39.66 200 40C200.023 40.9874 200.046 41.9748 200.07 42.9922C200.088 44.2735 200.106 45.5548 200.125 46.875C200.148 48.1512 200.171 49.4273 200.195 50.7422C200 54 200 54 198 56C197.01 57.2684 197.01 57.2684 196 58.5625C194 61 194 61 192 62C189.212 62.2039 186.478 62.3237 183.688 62.375C182.548 62.4311 182.548 62.4311 181.385 62.4883C177.194 62.5538 175.531 62.4225 172.145 59.7266C171.437 58.8268 170.729 57.927 170 57C169.41 56.3709 168.819 55.7419 168.211 55.0938C166.519 52.1676 166.602 49.8577 166.625 46.5C166.617 45.3759 166.61 44.2519 166.602 43.0938C167.244 38.1016 170.159 35.7972 173.633 32.4062C176.965 30.4265 180.108 30.4862 183.875 30.5C184.917 30.4575 184.917 30.4575 185.98 30.4141C191.766 30.3923 194.074 32.1109 198 36C198.413 35.4019 198.825 34.8038 199.25 34.1875C201.007 31.9916 202.729 30.6322 205 29C205.536 28.4637 206.072 27.9275 206.625 27.375C208 26 208 26 210 25C210.66 24.34 211.32 23.68 212 23ZM178.688 40.75C176.53 43.595 176.53 43.595 176 47C177.641 50.4456 178.785 51.8568 182 54C185.298 54.5073 186.558 54.3106 189.312 52.375C191.43 49.3954 191.325 47.5776 191 44C190.34 44 189.68 44 189 44C188.34 42.35 187.68 40.7 187 39C183.404 38.6731 181.624 38.5281 178.688 40.75Z" fill="#37332C"/>
<path d="M116.375 19.7505C117.238 19.7299 118.102 19.7092 118.992 19.688C122.596 19.6657 125.284 19.6708 128.586 21.1919C130.493 23.6312 130.409 25.1273 130.25 28.188C130.214 29.089 130.178 29.9901 130.14 30.9184C130.071 31.949 130.071 31.949 130 33.0005C125.25 32.1255 125.25 32.1255 123 31.0005C123 30.3405 123 29.6805 123 29.0005C119.7 28.6705 116.4 28.3405 113 28.0005C113 28.6605 113 29.3205 113 30.0005C111.68 30.3305 110.36 30.6605 109 31.0005C109.66 31.6605 110.32 32.3205 111 33.0005C111.33 33.6605 111.66 34.3205 112 35.0005C113.86 35.318 113.86 35.318 116.062 35.3755C120.997 35.8398 124.976 37.0437 129 40.0005C131.664 43.6635 132.773 47.3137 132.508 51.8989C131.642 55.4795 130.132 57.84 127.594 60.4927C121.166 64.229 112.044 62.7185 105.125 61.0864C102 60.0005 102 60.0005 99.9998 58.0005C99.8045 55.3989 99.8045 55.3989 99.8748 52.3755C99.8928 51.3726 99.9109 50.3697 99.9295 49.3364C99.9527 48.5656 99.9759 47.7947 99.9998 47.0005C102.524 47.8418 104.648 48.7891 107 50.0005C107.742 50.3717 108.485 50.743 109.25 51.1255C109.827 51.4142 110.405 51.703 111 52.0005C111 52.6605 111 53.3205 111 54.0005C112.258 53.8561 113.516 53.7117 114.812 53.563C115.52 53.4818 116.228 53.4006 116.957 53.3169C119.194 53.0288 119.194 53.0288 122 52.0005C122 50.6805 122 49.3605 122 48.0005C120.35 47.6705 118.7 47.3405 117 47.0005C117 46.3405 117 45.6805 117 45.0005C116.396 44.9515 115.793 44.9025 115.172 44.852C114.372 44.7773 113.573 44.7025 112.75 44.6255C111.961 44.5559 111.172 44.4863 110.359 44.4145C106.748 43.7809 104.583 42.5841 102 40.0005C99.4948 35.775 99.1599 31.8066 99.9998 27.0005C104.077 19.6952 108.835 19.7951 116.375 19.7505Z" fill="#37332C"/>
<path d="M137.438 30.7503C138.613 30.8328 139.789 30.9153 141 31.0003C141.66 31.9903 142.32 32.9803 143 34.0003C143.364 33.5156 143.727 33.0309 144.102 32.5315C147.547 29.7521 151.638 30.4839 155.887 30.5784C159 31.0003 159 31.0003 162.188 33.2503C165.392 38.1117 166.294 41.0597 166.313 47.0003C166.329 48.2171 166.346 49.434 166.363 50.6878C165.866 55.2206 164.117 56.8833 161 60.0003C157.753 62.0317 155.174 62.2707 151.375 62.2503C150.413 62.2554 149.452 62.2606 148.461 62.2659C146 62.0003 146 62.0003 144 60.0003C143.67 59.3403 143.34 58.6803 143 58.0003C142.67 62.2903 142.34 66.5803 142 71.0003C139.03 71.0003 136.06 71.0003 133 71.0003C132.975 65.4644 132.957 59.9285 132.945 54.3926C132.94 52.5078 132.933 50.623 132.925 48.7383C132.912 46.0352 132.907 43.3322 132.902 40.6292C132.897 39.7812 132.892 38.9333 132.887 38.0597C132.887 36.0395 132.938 34.0195 133 32.0003C134 31.0003 134 31.0003 137.438 30.7503ZM148 39.0003C148 39.6603 148 40.3203 148 41.0003C147.196 41.2271 146.391 41.454 145.563 41.6878C142.791 42.7565 142.791 42.7565 142 45.4378C141.732 48.0161 141.732 48.0161 143.313 49.6253C143.869 50.079 144.426 50.5328 145 51.0003C145.99 52.4853 145.99 52.4853 147 54.0003C150.135 54.4004 152.122 54.5756 154.813 52.8128C156.717 49.9065 157.154 47.3075 156.75 43.8753C155.825 41.5628 155.034 40.4533 153 39.0003C150.374 38.7496 150.374 38.7496 148 39.0003Z" fill="#37332C"/>
<path d="M222 31C223.646 30.9731 225.292 30.9537 226.938 30.9375C227.854 30.9259 228.771 30.9143 229.715 30.9023C232 31 232 31 233 32C233.159 34.2169 233.251 36.4386 233.316 38.6602C233.337 39.3246 233.358 39.9891 233.379 40.6737C233.445 42.8032 233.504 44.9328 233.562 47.0625C233.606 48.5033 233.649 49.944 233.693 51.3848C233.801 54.923 233.902 58.4615 234 62C230.37 62 226.74 62 223 62C223.33 52.1 223.66 42.2 224 32C223.34 31.67 222.68 31.34 222 31Z" fill="#37332C"/>
<path d="M226.031 17.8672C226.846 17.8698 227.661 17.8723 228.5 17.875C229.315 17.8724 230.129 17.8698 230.969 17.8672C233 18 233 18 234 19C234.371 24.8411 234.371 24.8411 234 27C230.15 29.5669 228.414 28.8329 224 28C222.928 24.7842 222.854 22.3663 223 19C224 18 224 18 226.031 17.8672Z" fill="#37332C"/>
<path d="M233 31C235 32 235 32 235 32L233 31Z" fill="#37332C"/>
</svg>
