<svg width="103" height="106" viewBox="0 0 103 106" fill="none" xmlns="http://www.w3.org/2000/svg">
<g filter="url(#filter0_d_910_13321)">
<g clip-path="url(#clip0_910_13321)">
<rect x="29.5391" width="68.9269" height="68.9269" rx="12.8609" transform="rotate(18.8641 29.5391 0)" fill="black" fill-opacity="0.01" shape-rendering="crispEdges"/>
<g clip-path="url(#clip1_910_13321)">
<path d="M47.6273 31.3762L67.0063 35.9049L60.6037 54.6436C60.1406 55.999 59.158 57.1149 57.8722 57.7459C56.5863 58.3768 55.1024 58.4711 53.747 58.008C52.3916 57.5449 51.2757 56.5623 50.6447 55.2764C50.0138 53.9906 49.9195 52.5067 50.3826 51.1513C50.8457 49.7959 51.8283 48.68 53.1142 48.049C54.4001 47.4181 55.8839 47.3238 57.2393 47.7869C58.551 48.2351 59.5747 49.1365 60.204 50.2457L62.9513 42.2051L47.0376 38.6701L42.9865 50.5266C42.5234 51.882 41.5408 52.9979 40.2549 53.6289C38.969 54.2598 37.4852 54.3541 36.1298 53.891C34.7743 53.4279 33.6584 52.4453 33.0275 51.1594C32.3965 49.8735 32.3022 48.3897 32.7654 47.0343C33.2285 45.6789 34.211 44.5629 35.4969 43.932C36.7828 43.3011 38.2667 43.2068 39.6221 43.6699C40.9338 44.1181 41.9575 45.0195 42.5868 46.1287L47.6273 31.3762ZM48.807 33.4914L47.6254 36.9495L63.5334 40.5015L64.6684 37.1797L48.807 33.4914ZM41.283 49.9445C41.5917 49.0409 41.5288 48.0517 41.1082 47.1944C40.6876 46.3372 39.9436 45.6821 39.04 45.3734C38.1364 45.0647 37.1472 45.1275 36.2899 45.5481C35.4327 45.9688 34.7776 46.7127 34.4689 47.6163C34.1601 48.5199 34.223 49.5092 34.6436 50.3664C35.0643 51.2237 35.8082 51.8787 36.7118 52.1875C37.6154 52.4962 38.6047 52.4334 39.4619 52.0127C40.3192 51.5921 40.9742 50.8481 41.283 49.9445ZM58.9002 54.0616C59.2089 53.158 59.1461 52.1687 58.7255 51.3115C58.3048 50.4542 57.5609 49.7992 56.6573 49.4904C55.7537 49.1817 54.7644 49.2445 53.9072 49.6652C53.0499 50.0858 52.3949 50.8297 52.0861 51.7333C51.7774 52.6369 51.8402 53.6262 52.2609 54.4834C52.6815 55.3407 53.4255 55.9958 54.3291 56.3045C55.2327 56.6132 56.2219 56.5504 57.0792 56.1297C57.9364 55.7091 58.5915 54.9652 58.9002 54.0616Z" fill="white"/>
</g>
</g>
<rect x="29.706" y="0.340174" width="68.391" height="68.391" rx="12.593" transform="rotate(18.8641 29.706 0.340174)" stroke="#C30100" stroke-opacity="0.5" stroke-width="0.535871" shape-rendering="crispEdges"/>
</g>
<defs>
<filter id="filter0_d_910_13321" x="-3.46351" y="0" width="108.947" height="108.945" filterUnits="userSpaceOnUse" color-interpolation-filters="sRGB">
<feFlood flood-opacity="0" result="BackgroundImageFix"/>
<feColorMatrix in="SourceAlpha" type="matrix" values="0 0 0 0 0 0 0 0 0 0 0 0 0 0 0 0 0 0 127 0" result="hardAlpha"/>
<feOffset dy="10.7174"/>
<feGaussianBlur stdDeviation="5.35871"/>
<feComposite in2="hardAlpha" operator="out"/>
<feColorMatrix type="matrix" values="0 0 0 0 0 0 0 0 0 0 0 0 0 0 0 0 0 0 0.25 0"/>
<feBlend mode="normal" in2="BackgroundImageFix" result="effect1_dropShadow_910_13321"/>
<feBlend mode="normal" in="BackgroundImageFix" in2="effect1_dropShadow_910_13321" result="BackgroundImageFix"/>
<feBlend mode="normal" in="SourceGraphic" in2="BackgroundImageFix" result="shape"/>
</filter>
<clipPath id="clip0_910_13321">
<rect x="29.5391" width="68.9269" height="68.9269" rx="12.8609" transform="rotate(18.8641 29.5391 0)" fill="white"/>
</clipPath>
<clipPath id="clip1_910_13321">
<rect width="43.2051" height="43.2051" fill="white" transform="translate(37.5508 16.3284) rotate(18.8641)"/>
</clipPath>
</defs>
</svg>
