<svg width="384" height="277" viewBox="0 0 384 277" fill="none" xmlns="http://www.w3.org/2000/svg">
<path d="M191.885 175.687C220.527 175.687 243.746 158.951 243.746 138.307C243.746 117.662 220.527 100.926 191.885 100.926C163.243 100.926 140.024 117.662 140.024 138.307C140.024 158.951 163.243 175.687 191.885 175.687Z" fill="url(#paint0_linear_368_143)"/>
<path d="M25.9305 37.3803C40.2515 37.3803 51.861 29.0125 51.861 18.6902C51.861 8.36787 40.2515 0 25.9305 0C11.6095 0 0 8.36787 0 18.6902C0 29.0125 11.6095 37.3803 25.9305 37.3803Z" fill="#C30100"/>
<path d="M357.842 37.3803C372.163 37.3803 383.772 29.0125 383.772 18.6902C383.772 8.36787 372.163 0 357.842 0C343.521 0 331.911 8.36787 331.911 18.6902C331.911 29.0125 343.521 37.3803 357.842 37.3803Z" fill="#C30100"/>
<path d="M25.9305 276.614C40.2515 276.614 51.861 268.247 51.861 257.924C51.861 247.602 40.2515 239.234 25.9305 239.234C11.6095 239.234 0 247.602 0 257.924C0 268.247 11.6095 276.614 25.9305 276.614Z" fill="#C30100"/>
<path d="M357.842 276.614C372.163 276.614 383.772 268.247 383.772 257.924C383.772 247.602 372.163 239.234 357.842 239.234C343.521 239.234 331.911 247.602 331.911 257.924C331.911 268.247 343.521 276.614 357.842 276.614Z" fill="#C30100"/>
<path d="M191.886 138.308L25.9307 18.6904" stroke="#C30100" stroke-width="3.73803"/>
<path d="M191.886 138.308L357.841 18.6904" stroke="#C30100" stroke-width="3.73803"/>
<path d="M191.886 138.307L25.9307 257.924" stroke="#C30100" stroke-width="3.73803"/>
<path d="M191.886 138.307L357.841 257.924" stroke="#C30100" stroke-width="3.73803"/>
<path d="M183.748 131.765L177.362 138.151L183.748 144.537M199.713 131.765L206.098 138.151L199.713 144.537M194.923 125.38L188.537 150.923" stroke="white" stroke-width="3.1929" stroke-linecap="round" stroke-linejoin="round"/>
<defs>
<linearGradient id="paint0_linear_368_143" x1="140.024" y1="100.926" x2="210.949" y2="199.326" gradientUnits="userSpaceOnUse">
<stop stop-color="#FF4D4D"/>
<stop offset="1" stop-color="#8B0000"/>
</linearGradient>
</defs>
</svg>
