<svg width="20" height="23" viewBox="0 0 20 23" fill="none" xmlns="http://www.w3.org/2000/svg">
<g clip-path="url(#clip0_1099_6563)">
<path d="M14.8204 8.28169C16.2796 9.34009 18.0673 9.96283 19.998 9.96283V6.19321C19.6325 6.19336 19.2681 6.15465 18.9106 6.07773V9.04497C16.9801 9.04497 15.1927 8.42231 13.7331 7.36399V15.0568C13.7331 18.9052 10.6584 22.0246 6.86594 22.0246C5.45086 22.0246 4.13555 21.5905 3.04297 20.846C4.29 22.1398 6.02906 22.9424 7.95297 22.9424C11.7458 22.9424 14.8205 19.8229 14.8205 15.9744V8.28169H14.8204ZM16.1618 4.4786C15.416 3.65195 14.9263 2.58364 14.8204 1.40255V0.917725H13.79C14.0494 2.41883 14.9341 3.70128 16.1618 4.4786ZM5.44172 17.893C5.02503 17.3388 4.7998 16.6606 4.80086 15.9634C4.80086 14.2033 6.20719 12.7762 7.94227 12.7762C8.26556 12.776 8.58696 12.8264 8.89516 12.9255V9.07162C8.535 9.02158 8.17156 9.00024 7.80828 9.00809V12.0078C7.49993 11.9086 7.17837 11.8583 6.85492 11.8585C5.11992 11.8585 3.71367 13.2855 3.71367 15.0458C3.71367 16.2904 4.41656 17.368 5.44172 17.893Z" fill="#FF004F"/>
<path d="M13.7333 7.36391C15.1929 8.42223 16.9802 9.04489 18.9108 9.04489V6.07766C17.8331 5.84472 16.8791 5.27337 16.1619 4.4786C14.9341 3.7012 14.0495 2.41875 13.7902 0.917725H11.0837V15.9742C11.0775 17.7295 9.67359 19.1508 7.94227 19.1508C6.92211 19.1508 6.0157 18.6574 5.44172 17.8929C4.41672 17.368 3.71375 16.2904 3.71375 15.0458C3.71375 13.2857 5.12 11.8586 6.855 11.8586C7.18742 11.8586 7.50781 11.9111 7.80836 12.0078V9.00817C4.08242 9.08629 1.08594 12.1753 1.08594 15.9743C1.08594 17.8708 1.83211 19.59 3.0432 20.8462C4.13578 21.5905 5.45102 22.0247 6.86617 22.0247C10.6588 22.0247 13.7334 18.9051 13.7334 15.0568L13.7333 7.36391Z" fill="black"/>
<path d="M18.9121 6.07755V5.27541C17.9403 5.27684 16.9877 5.00071 16.1632 4.47858C16.893 5.2893 17.8541 5.84837 18.9121 6.07771M13.7914 0.917621C13.7667 0.774194 13.7477 0.62981 13.7345 0.484824V0H9.9975V15.0567C9.99156 16.8118 8.58766 18.2331 6.85625 18.2331C6.36541 18.2338 5.88128 18.1173 5.44297 17.893C6.01695 18.6574 6.92336 19.1507 7.94352 19.1507C9.67477 19.1507 11.0788 17.7296 11.0849 15.9743V0.9177L13.7914 0.917621ZM7.80984 9.00807V8.15398C7.49757 8.1107 7.18275 8.08902 6.86758 8.0891C3.07461 8.0891 0 11.2087 0 15.0567C0 17.4692 1.20836 19.5954 3.04461 20.846C1.83352 19.5899 1.08734 17.8706 1.08734 15.9742C1.08734 12.1752 4.08375 9.08619 7.80984 9.00807Z" fill="#00F2EA"/>
</g>
<defs>
<clipPath id="clip0_1099_6563">
<rect width="20" height="23" fill="white"/>
</clipPath>
</defs>
</svg>
