<svg width="55" height="56" viewBox="0 0 55 56" fill="none" xmlns="http://www.w3.org/2000/svg">
<g filter="url(#filter0_d_976_8487)">
<rect x="14.9844" width="38.9459" height="38.9459" rx="4.23759" transform="rotate(18.8641 14.9844 0)" fill="black" fill-opacity="0.01" shape-rendering="crispEdges"/>
<rect x="15.0394" y="0.112085" width="38.7693" height="38.7693" rx="4.14931" transform="rotate(18.8641 15.0394 0.112085)" stroke="#C30100" stroke-opacity="0.5" stroke-width="0.176566" shape-rendering="crispEdges"/>
<path d="M30.8456 16.6072C32.2796 15.1672 34.3776 15.1372 35.5386 16.3032C36.7026 17.4712 36.6716 19.5832 35.2356 21.0232L32.8126 23.4562C32.6762 23.5978 32.6009 23.7874 32.6029 23.984C32.6048 24.1807 32.684 24.3687 32.8232 24.5075C32.9625 24.6464 33.1507 24.725 33.3474 24.7264C33.544 24.7279 33.7334 24.652 33.8746 24.5152L36.2986 22.0822C38.2096 20.1632 38.4496 17.1002 36.6016 15.2442C34.7516 13.3872 31.6946 13.6292 29.7816 15.5482L24.9356 20.4152C23.0246 22.3342 22.7846 25.3972 24.6326 27.2522C24.7017 27.3239 24.7843 27.3813 24.8757 27.4208C24.9671 27.4603 25.0655 27.4812 25.165 27.4823C25.2646 27.4834 25.3634 27.4646 25.4556 27.4271C25.5479 27.3896 25.6318 27.3341 25.7023 27.2639C25.7729 27.1936 25.8288 27.11 25.8667 27.018C25.9047 26.9259 25.9239 26.8272 25.9232 26.7276C25.9226 26.628 25.9022 26.5296 25.8631 26.438C25.824 26.3464 25.7671 26.2635 25.6956 26.1942C24.5316 25.0262 24.5636 22.9142 25.9986 21.4742L30.8456 16.6072Z" fill="white"/>
<path d="M29.6026 22.1931C29.4621 22.0522 29.2713 21.9728 29.0722 21.9725C28.8731 21.9723 28.6821 22.0511 28.5411 22.1916C28.4002 22.3322 28.3208 22.523 28.3206 22.7221C28.3203 22.9211 28.3991 23.1122 28.5396 23.2531C29.7036 24.4211 29.6726 26.5321 28.2366 27.9731L23.3896 32.8391C21.9546 34.2791 19.8566 34.3091 18.6956 33.1431C17.5316 31.9751 17.5636 29.8631 18.9986 28.4231L21.4226 25.9901C21.4922 25.9203 21.5473 25.8375 21.5848 25.7464C21.6224 25.6553 21.6416 25.5577 21.6414 25.4592C21.6412 25.3607 21.6216 25.2632 21.5837 25.1722C21.5459 25.0813 21.4904 24.9987 21.4206 24.9291C21.3508 24.8596 21.268 24.8045 21.1769 24.767C21.0859 24.7294 20.9883 24.7102 20.8897 24.7104C20.7912 24.7106 20.6937 24.7302 20.6027 24.768C20.5118 24.8059 20.4292 24.8613 20.3596 24.9311L17.9356 27.3641C16.0246 29.2841 15.7846 32.3461 17.6326 34.2021C19.4826 36.0601 22.5396 35.8171 24.4526 33.8981L29.2996 29.0311C31.2106 27.1131 31.4506 24.0481 29.6026 22.1931Z" fill="white"/>
</g>
<defs>
<filter id="filter0_d_976_8487" x="-1.1407" y="0" width="56.508" height="56.5088" filterUnits="userSpaceOnUse" color-interpolation-filters="sRGB">
<feFlood flood-opacity="0" result="BackgroundImageFix"/>
<feColorMatrix in="SourceAlpha" type="matrix" values="0 0 0 0 0 0 0 0 0 0 0 0 0 0 0 0 0 0 127 0" result="hardAlpha"/>
<feOffset dy="3.53132"/>
<feGaussianBlur stdDeviation="1.76566"/>
<feComposite in2="hardAlpha" operator="out"/>
<feColorMatrix type="matrix" values="0 0 0 0 0 0 0 0 0 0 0 0 0 0 0 0 0 0 0.25 0"/>
<feBlend mode="normal" in2="BackgroundImageFix" result="effect1_dropShadow_976_8487"/>
<feBlend mode="normal" in="BackgroundImageFix" in2="effect1_dropShadow_976_8487" result="BackgroundImageFix"/>
<feBlend mode="normal" in="SourceGraphic" in2="BackgroundImageFix" result="shape"/>
</filter>
</defs>
</svg>
