<svg width="50" height="52" viewBox="0 0 50 52" fill="none" xmlns="http://www.w3.org/2000/svg">
<g filter="url(#filter0_d_973_4440)">
<g clip-path="url(#clip0_973_4440)">
<rect x="14.5156" width="33.2973" height="33.2973" rx="6.64866" transform="rotate(18.8641 14.5156 0)" fill="black" fill-opacity="0.01" shape-rendering="crispEdges"/>
<g clip-path="url(#clip1_973_4440)">
<path d="M27.1436 14.4997C27.7025 14.6907 28.1627 15.0959 28.4229 15.6261C28.683 16.1564 28.7219 16.7682 28.531 17.3272C28.34 17.8861 27.9348 18.3462 27.4046 18.6064C26.8743 18.8666 26.2624 18.9055 25.7035 18.7145C25.1445 18.5235 24.6842 18.1182 24.424 17.5879C24.1638 17.0575 24.1249 16.4455 24.3159 15.8864C24.5069 15.3274 24.9122 14.8671 25.4425 14.6069C25.9729 14.3467 26.5846 14.3087 27.1436 14.4997ZM26.8206 15.4451C26.6681 15.393 26.5069 15.3714 26.3461 15.3816C26.1853 15.3918 26.0281 15.4336 25.8834 15.5046C25.7387 15.5756 25.6095 15.6744 25.503 15.7953C25.3965 15.9162 25.3149 16.057 25.2628 16.2094C25.2107 16.3619 25.1891 16.5232 25.1994 16.684C25.2096 16.8448 25.2514 17.002 25.3224 17.1467C25.3933 17.2913 25.4921 17.4206 25.613 17.5271C25.734 17.6335 25.8747 17.7152 26.0272 17.7673C26.3352 17.8725 26.6725 17.8511 26.9648 17.7077C27.257 17.5643 27.4804 17.3106 27.5856 17.0026C27.6909 16.6945 27.6695 16.3572 27.526 16.065C27.3826 15.7727 27.129 15.5494 26.8209 15.4441M17.7955 20.2987C17.7527 20.4242 17.6617 20.5275 17.5427 20.586C17.4236 20.6444 17.2862 20.6531 17.1607 20.6102C17.0353 20.5673 16.9319 20.4764 16.8735 20.3573C16.8151 20.2383 16.8064 20.1009 16.8493 19.9754L17.653 17.6229C17.7323 17.3912 17.8938 17.1965 18.107 17.076C18.3202 16.9554 18.5702 16.9172 18.8097 16.9688L18.9227 17L21.5316 17.8914C21.313 18.0822 21.1386 18.3183 21.0204 18.5833L20.9546 18.751L18.5984 17.9459L17.7955 20.2987ZM31.3305 25.4517C31.4559 25.4946 31.5933 25.4858 31.7124 25.4274C31.8314 25.369 31.9224 25.2657 31.9653 25.1402L32.769 22.7877L32.7999 22.6757C32.8517 22.4362 32.8138 22.1859 32.6932 21.9725C32.5727 21.7591 32.378 21.5974 32.1461 21.5181L29.5116 20.618C29.568 20.9046 29.5632 21.2094 29.4844 21.508L29.4406 21.6515L31.8224 22.4654L31.019 24.8169C30.9761 24.9424 30.9848 25.0797 31.0432 25.1988C31.1017 25.3178 31.205 25.4088 31.3305 25.4517ZM27.8726 20.058C28.1046 20.1373 28.2993 20.299 28.4198 20.5124C28.5403 20.7258 28.5783 20.976 28.5265 21.2156L28.4947 21.3273L27.6909 23.6797C27.648 23.8052 27.557 23.9085 27.438 23.967C27.3189 24.0254 27.1816 24.0341 27.0561 23.9912C26.9306 23.9484 26.8273 23.8574 26.7689 23.7383C26.7104 23.6193 26.7017 23.4819 26.7446 23.3564L27.5484 21.0039L22.8482 19.398L22.0444 21.7505C22.0015 21.876 21.9105 21.9793 21.7915 22.0377C21.6724 22.0961 21.5351 22.1048 21.4096 22.0619C21.2841 22.0191 21.1808 21.9281 21.1224 21.8091C21.0639 21.69 21.0552 21.5526 21.0981 21.4271L21.9019 19.0747C21.9811 18.8429 22.1426 18.6483 22.3558 18.5277C22.569 18.4071 22.8191 18.369 23.0585 18.4205L23.1715 18.4517L27.8726 20.058ZM32.8524 19.1355C33.0165 18.6553 32.9831 18.1295 32.7595 17.6739C32.536 17.2183 32.1406 16.8702 31.6603 16.7061C31.1801 16.542 30.6544 16.5754 30.1988 16.799C29.7432 17.0225 29.395 17.4179 29.2309 17.8981C29.0669 18.3784 29.1003 18.9041 29.3238 19.3597C29.5474 19.8153 29.9427 20.1635 30.423 20.3275C30.9032 20.4916 31.429 20.4582 31.8846 20.2347C32.3402 20.0111 32.6883 19.6157 32.8524 19.1355ZM30.1772 18.2215C30.2556 17.9922 30.4218 17.8035 30.6393 17.6967C30.8568 17.59 31.1078 17.5741 31.337 17.6524C31.5663 17.7307 31.755 17.8969 31.8618 18.1144C31.9685 18.3319 31.9844 18.5829 31.9061 18.8122C31.8278 19.0414 31.6616 19.2302 31.4441 19.3369C31.2266 19.4436 30.9756 19.4596 30.7463 19.3813C30.517 19.3029 30.3283 19.1367 30.2216 18.9192C30.1148 18.7017 30.0989 18.4507 30.1772 18.2215ZM22.2369 13.4858C22.7171 13.6499 23.1125 13.998 23.3361 14.4536C23.5596 14.9092 23.593 15.435 23.4289 15.9152C23.2648 16.3954 22.9167 16.7908 22.4611 17.0144C22.0055 17.2379 21.4798 17.2713 20.9995 17.1072C20.5193 16.9432 20.1239 16.595 19.9004 16.1394C19.6768 15.6838 19.6434 15.1581 19.8075 14.6778C19.9716 14.1976 20.3197 13.8022 20.7753 13.5787C21.2309 13.3551 21.7567 13.3217 22.2369 13.4858ZM21.9136 14.4321C21.6843 14.3538 21.4333 14.3697 21.2158 14.4764C20.9983 14.5831 20.8321 14.7719 20.7538 15.0012C20.6754 15.2304 20.6914 15.4814 20.7981 15.6989C20.9048 15.9164 21.0936 16.0826 21.3229 16.161C21.5521 16.2393 21.8031 16.2233 22.0206 16.1166C22.2381 16.0099 22.4043 15.8211 22.4826 15.5919C22.561 15.3626 22.545 15.1116 22.4383 14.8941C22.3316 14.6766 22.1428 14.5104 21.9136 14.4321ZM16.8223 21.5513C16.6968 21.5085 16.5594 21.5172 16.4404 21.5756C16.3213 21.634 16.2303 21.7373 16.1875 21.8628L15.8641 22.8091C15.6498 23.4365 15.6934 24.1234 15.9855 24.7187C16.2776 25.3139 16.7941 25.7688 17.4216 25.9831L27.8307 29.5397C28.4581 29.7541 29.145 29.7104 29.7403 29.4184C30.3355 29.1263 30.7904 28.6097 31.0048 27.9823L31.3281 27.036C31.371 26.9105 31.3622 26.7732 31.3038 26.6541C31.2454 26.5351 31.1421 26.4441 31.0166 26.4012L16.8223 21.5513ZM16.8104 23.1324L16.9721 22.6593L30.2201 27.1858L30.0585 27.659C29.9298 28.0354 29.6569 28.3454 29.2998 28.5206C28.9426 28.6959 28.5305 28.722 28.154 28.5934L17.7449 25.0368C17.3684 24.9082 17.0585 24.6353 16.8832 24.2782C16.708 23.921 16.6818 23.5089 16.8104 23.1324Z" fill="white"/>
</g>
</g>
<rect x="14.6019" y="0.175859" width="33.0203" height="33.0203" rx="6.51015" transform="rotate(18.8641 14.6019 0.175859)" stroke="#C30100" stroke-opacity="0.5" stroke-width="0.277028" shape-rendering="crispEdges"/>
</g>
<defs>
<filter id="filter0_d_973_4440" x="-1.79055" y="0" width="53.3545" height="53.3558" filterUnits="userSpaceOnUse" color-interpolation-filters="sRGB">
<feFlood flood-opacity="0" result="BackgroundImageFix"/>
<feColorMatrix in="SourceAlpha" type="matrix" values="0 0 0 0 0 0 0 0 0 0 0 0 0 0 0 0 0 0 127 0" result="hardAlpha"/>
<feOffset dy="5.54055"/>
<feGaussianBlur stdDeviation="2.77028"/>
<feComposite in2="hardAlpha" operator="out"/>
<feColorMatrix type="matrix" values="0 0 0 0 0 0 0 0 0 0 0 0 0 0 0 0 0 0 0.25 0"/>
<feBlend mode="normal" in2="BackgroundImageFix" result="effect1_dropShadow_973_4440"/>
<feBlend mode="normal" in="BackgroundImageFix" in2="effect1_dropShadow_973_4440" result="BackgroundImageFix"/>
<feBlend mode="normal" in="SourceGraphic" in2="BackgroundImageFix" result="shape"/>
</filter>
<clipPath id="clip0_973_4440">
<rect x="14.5156" width="33.2973" height="33.2973" rx="6.64866" transform="rotate(18.8641 14.5156 0)" fill="white"/>
</clipPath>
<clipPath id="clip1_973_4440">
<rect width="20" height="20" fill="white" transform="translate(18.6562 8.44128) rotate(18.8641)"/>
</clipPath>
</defs>
</svg>
