<svg width="123" height="57" viewBox="0 0 123 57" fill="none" xmlns="http://www.w3.org/2000/svg">
<path d="M79.0728 8.82563C78.1485 5.35575 75.41 2.6203 71.9308 1.68359C65.6352 -1.8549e-06 40.3782 0 40.3782 0C40.3782 0 15.1337 -1.8549e-06 8.82563 1.68359C5.35575 2.60785 2.6203 5.34641 1.68359 8.82563C0 15.1212 0 28.2632 0 28.2632C0 28.2632 0 41.4052 1.68359 47.7007C2.60786 51.1706 5.34642 53.9061 8.82563 54.8428C15.1337 56.5264 40.3782 56.5264 40.3782 56.5264C40.3782 56.5264 65.6352 56.5264 71.9308 54.8428C75.4006 53.9185 78.1361 51.1799 79.0728 47.7007C80.7564 41.4052 80.7564 28.2632 80.7564 28.2632C80.7564 28.2632 80.7564 15.1212 79.0728 8.82563Z" fill="#38342D"/>
<path d="M32.3086 16.1484V40.3785L53.2897 28.2634L32.3086 16.1484Z" fill="white" fill-opacity="0.25"/>
<path d="M117.217 51.4263C115.623 50.3464 114.481 48.6784 113.812 46.4035C113.143 44.1286 112.798 41.11 112.798 37.332V32.1941C112.798 28.3788 113.184 25.3197 113.955 23.0075C114.727 20.6953 115.935 19.0117 117.565 17.9598C119.196 16.9048 121.343 16.3665 124.001 16.3665C126.621 16.3665 128.716 16.9049 130.297 17.9847C131.877 19.0646 133.032 20.7482 133.766 23.0324C134.498 25.3197 134.859 28.3757 134.859 32.1785V37.3165C134.859 41.0944 134.498 44.1255 133.791 46.4128C133.085 48.7001 131.927 50.3837 130.321 51.4356C128.728 52.4906 126.556 53.0289 123.82 53.0289C121.02 53.0445 118.81 52.5061 117.217 51.4263ZM126.17 45.8776C126.606 44.7199 126.839 42.834 126.839 40.2262V29.191C126.839 26.6485 126.621 24.7969 126.17 23.6143C125.734 22.4442 124.95 21.8529 123.833 21.8529C122.753 21.8529 121.997 22.4442 121.546 23.6143C121.11 24.7844 120.877 26.6454 120.877 29.191V40.2262C120.877 42.8465 121.082 44.7355 121.505 45.8776C121.928 47.0352 122.7 47.6109 123.817 47.6109C124.95 47.6109 125.722 47.0321 126.17 45.8776ZM239.867 37.4223V39.2085C239.867 41.4834 239.932 43.1795 240.072 44.3216C240.2 45.4512 240.483 46.2883 240.906 46.8018C241.33 47.3153 241.986 47.5861 242.873 47.5861C244.068 47.5861 244.89 47.1224 245.325 46.1981C245.761 45.2738 246.007 43.7303 246.044 41.5737L252.919 41.972C252.956 42.2801 252.972 42.7033 252.972 43.2448C252.972 46.5217 252.072 48.9616 250.286 50.5798C248.5 52.198 245.97 53.0072 242.693 53.0072C238.762 53.0072 236.011 51.7748 234.433 49.307C232.852 46.8392 232.068 43.0363 232.068 37.8735V31.6931C232.068 26.3747 232.89 22.5064 234.521 20.0542C236.151 17.6144 238.952 16.3914 242.923 16.3914C245.658 16.3914 247.753 16.8924 249.218 17.8945C250.684 18.8965 251.711 20.4525 252.315 22.5718C252.906 24.6911 253.214 27.6195 253.214 31.3476V37.4129H239.867V37.4223ZM240.881 22.522C240.483 23.023 240.212 23.8446 240.072 24.9743C239.932 26.1039 239.867 27.8404 239.867 30.1402V32.6827H245.699V30.1402C245.699 27.8653 245.621 26.1444 245.469 24.9743C245.313 23.8042 245.033 22.9701 244.635 22.494C244.236 22.0179 243.608 21.7751 242.758 21.7751C241.908 21.7627 241.28 22.021 240.881 22.522ZM97.8166 36.7563L88.7451 4.00872H96.6589L99.8332 18.8467C100.642 22.5096 101.234 25.6184 101.619 28.1983H101.85C102.12 26.3498 102.712 23.2533 103.636 18.8965L106.925 3.99316H114.839L105.665 36.7532V52.4657H97.8166V36.7563ZM160.589 17.0604V52.4532H154.359L153.665 48.1244H153.496C151.8 51.4014 149.258 53.0321 145.878 53.0321C143.529 53.0321 141.792 52.2603 140.675 50.7198C139.558 49.1794 139.004 46.7769 139.004 43.5V17.0604H146.968V43.0488C146.968 44.6297 147.136 45.7593 147.481 46.4284C147.826 47.0975 148.405 47.4429 149.214 47.4429C149.908 47.4429 150.577 47.2375 151.206 46.8143C151.835 46.391 152.311 45.8496 152.619 45.196V17.0604H160.589ZM201.468 17.0604V52.4532H195.238L194.544 48.1244H194.376C192.68 51.4014 190.137 53.0321 186.758 53.0321C184.408 53.0321 182.671 52.2603 181.554 50.7198C180.437 49.1794 179.883 46.7769 179.883 43.5V17.0604H187.847V43.0488C187.847 44.6297 188.015 45.7593 188.36 46.4284C188.706 47.0975 189.284 47.4429 190.094 47.4429C190.788 47.4429 191.457 47.2375 192.085 46.8143C192.714 46.391 193.19 45.8496 193.498 45.196V17.0604H201.468Z" fill="#38342D"/>
</svg>
